<?xml version="1.0" standalone="no"?>
<!DOCTYPE svg PUBLIC "-//W3C//DTD SVG 1.1//EN" "http://www.w3.org/Graphics/SVG/1.1/DTD/svg11.dtd" >
<svg xmlns="http://www.w3.org/2000/svg" xmlns:xlink="http://www.w3.org/1999/xlink" version="1.1">
<metadata>
Created by FontForge 20170731 at Tue Nov 22 00:35:09 2016
 By Aleksey,,,
Copyright (c) 2016 by Ovoz Creative. All rights reserved.
</metadata>
<defs>
<font id="Honebee" horiz-adv-x="0" >
  <font-face 
    font-family="Honebee"
    font-weight="400"
    font-stretch="normal"
    units-per-em="1000"
    panose-1="0 0 0 0 0 0 0 0 0 0"
    ascent="750"
    descent="-250"
    x-height="464"
    cap-height="688"
    bbox="-469.506 -440.391 870.077 887"
    underline-thickness="50"
    underline-position="-200"
    unicode-range="U+000D-007A"
  />
<missing-glyph horiz-adv-x="259" 
 />
    <glyph glyph-name="t.001" unicode="tt" horiz-adv-x="337" 
d="M287 189q3 -9 -13 -25q-1 -1 -11 -14q-10 -24 -27 -52q-7 -17 -11 -23l-4 -9l-12 -30q-2 -3 -3.5 -8.5t-2.5 -8.5q-1 -2 -2.5 -6.5t-3.5 -6.5l-1 -1q-1 -1 -1 -3q-3 -5 -8.5 -16t-9.5 -17q-12 -21 -48 -27q-46 -4 -73 38q-9 15 -10 31q0 8 -3 25t-4 26q-9 73 -7 97
q3 5 2 11t-1 52v36h1q0 2 0.5 5t0.5 5t1 3q0 5 -1 6q1 8 1 23.5v23.5q0 5 1.5 14.5t1.5 13.5t2 17t2 20q0 9 4 33t2 37q-1 4 0.5 13t1.5 13l2 35v1l3 18l1 1q4 7 6 19q2 14 2 16l1 1v3q3 11 -1 23q2 10 2 14q0 16 5 41q6 26 5 40q0 1 2 11l25 17q6 -2 17 -4t17 -3q5 -1 8 -4
q23 -23 26 -43q0 -12 -1 -19l-12 -71q2 0 2 -1q0 -3 -2 -13q-9 -32 -12 -65q0 -6 2 -16q2 -43 -2 -73l-2 -64q0 -24 3 -32q1 -2 1 -10q-3 -26 2 -68q8 -83 11 -98q-4 -19 0 -39q2 -7 9 -11l8 -4q5 -1 5 -2q1 4 5 4l17 21l9 10q0 2 2 2q2 2 2 4l4 2q3 8 7 12q13 18 14 20
q1 3 3 5q0 2 1 3q7 11 15 19q0 2 2 2q1 1 3 1q4 4 10 5q9 1 9 -6zM105 593q0 -1 -2 -9q2 8 2 9zM91 601q-6 -31 -7 -49l8 49q3 16 11 48v1q-7 -21 -12 -49zM102 575q-2 -5 -3 -16t-3 -17t-4 -31q2 5 3 16t2 17q3 12 5 31zM90 495v-25v-25h1q0 17 -1 25v25zM86 78q1 -1 1 -7
q1 4 0 7q0 1 -1 0zM74 417q-3 -15 -5 -45q1 6 2 17.5t3 17.5l2 35q0 6 0.5 18t0.5 18q-1 7 -1 18v8q-3 10 1 10q2 2 -1 2q-1 0 -1 -10v-45q0 -29 -1 -44zM102 -9q-16 7 -22 26q-5 8 -11 40q-5 28 -5 86h-1q0 -65 6 -90q6 -31 12 -41q9 -20 21 -21zM111 8h1q-8 12 -12 19
q-5 13 -5 22h-1q0 -24 17 -41zM110 677l3 19h1q-2 -4 -4 -19zM134 -11q-7 0 -8 4h-1q4 -6 9 -4zM194 49v1l-2 -3q0 -2 -2 -4l-2 -4q-1 -1 -2 -4v-1l-2 -2l-1 -2q-1 -2 -1 -3l-4 -5v-1q-1 -1 -1 -2l-6 -9q-1 -2 -2 -2.5t-2 -2.5h1l9 13q0 1 1 2l1 1l3 6h1l3 7q0 1 1 2t2 3
q0 1 1 1q0 2 1 2q0 2 1 3v1zM406 239q1 -6 -10 -21l-10 -11l-21 -42q-3 -6 -10 -19l-3 -7l-9 -24l-6 -14q-2 -9 -5 -12q-1 -1 -1 -3q-6 -14 -15 -27q-9 -15 -39 -21q-36 -4 -59 31q-8 11 -8 25q0 7 -3 21t-3 21q-7 60 -6 78q3 5 2 9q-1 5 -1 43v29h1q0 7 1 8v3q2 2 0 4v39
q0 4 1.5 13t1.5 10q0 2 1.5 13t1.5 17q0 7 3.5 26.5t1.5 30.5q-1 4 0.5 11t1.5 10q1 9 1 28v1l3 15v1q4 7 6 16q0 2 0.5 6t0.5 6l1 1v3q2 11 -1 18q2 10 2 11q0 19 4 35q4 15 4 32q0 1 0.5 4t0.5 4q9 7 21 15l27 -6q7 -1 7 -3q20 -20 21 -35q1 -3 -1 -16l-9 -57q0 -1 2 -1
q-2 -10 -2 -11q-9 -34 -10 -53q0 -3 2 -13q0 -47 -2 -60q-1 -17 -1 -51q-2 -18 2 -27q2 -3 0 -8q-1 -4 2 -55q9 -78 9 -80q-4 -16 0 -32q3 -7 8 -9l6 -3q3 -1 4 -2q2 3 4 3l14 17q2 1 4 4t3 5q1 0 1 0.5t1 0.5l2 3q2 2 3 2q1 4 6 10l11 17q2 2 2 3q0 2 1 3q4 9 12 15l2 2
q1 0 2 1q7 4 9 4q7 1 7 -5zM257 568h1q0 -1 -2 -7q1 1 1 7zM246 574l-6 -39h1q1 6 3 20t3 20l9 39q-6 -19 -10 -40zM256 553h-1q-2 -4 -3 -13t-2 -13l-3 -26q1 5 4 27q3 8 5 25zM245 488v-20q0 -14 1 -21v21v20h-1zM242 149h1q1 -3 0 -6q0 5 -1 6zM232 424l-4 -36h1l3 28
q2 22 2 29q0 1 0.5 14.5t-0.5 14.5v15v7q0 8 1 8l-1 1q-1 0 -1 -8q1 -12 1 -36q0 -11 -2 -37zM255 77q1 0 1 1q-12 3 -19 20q-6 16 -9 33q-4 23 -4 70q-2 -45 4 -73q8 -30 10 -34q5 -13 17 -17zM263 91q-1 1 -4.5 7t-5.5 9q-2 6 -4 18q0 -22 14 -34zM262 636l3 15v1l-4 -16
h1zM281 76q-5 0 -6 3q0 1 -1 0q2 -7 7 -3zM330 125v1v-1q-1 -1 -1 -2l-2 -3l-2 -3q0 -1 -1 -3q0 -1 -1 -1q0 -1 -1 -2q0 -2 -2 -4t-3 -5l-1 -1v-1l-5 -7l-3 -4h1q1 2 3 5.5t4 4.5q1 1 1 3h1q0 1 1 2t2 3l3 6q1 1 2 4l1 1l1 1q0 2 1 3v1q0 1 1 2zM-154 533l1 -1q3 -2 3 -9
l-25 10q7 8 36 15q6 2 18.5 3t18.5 3q44 6 82 9q78 7 165 7q90 0 165 -4q14 -2 41.5 -2.5t41.5 -2.5h20t23 -0.5t20 -3t20 -6.5q15 -9 11.5 -25t-18.5 -23q-10 -3 -45 -1q-12 0 -38 2q-13 2 -40.5 3t-41.5 2q-53 3 -159 5q-94 2 -162 -2q-43 0 -79 -4l-37 -2q-29 -2 -39 4
q-13 7 -5 20q10 12 23 3z" />
    <glyph glyph-name=".notdef" horiz-adv-x="259" 
 />
    <glyph glyph-name=".null" 
 />
    <glyph glyph-name="nonmarkingreturn" horiz-adv-x="333" 
 />
    <glyph glyph-name="NULL" 
 />
    <glyph glyph-name="NULL" 
 />
    <glyph glyph-name="CR" unicode="&#xd;" horiz-adv-x="259" 
 />
    <glyph glyph-name="space" unicode=" " horiz-adv-x="259" 
 />
    <glyph glyph-name="exclam" unicode="!" horiz-adv-x="156" 
d="M49 29l2 40q4 46 -10 97q-1 2 -1.5 5l-1 6t-0.5 5q-1 13 -4.5 37.5t-5.5 44.5t-2 38q0 9 -2 26t-2 23q0 16 -2.5 48.5t-3.5 49.5q0 15 -0.5 44t-0.5 43q0 52 -2 62v8q0 12 -1.5 36t-1.5 35q2 13 4 71q12 4 17 4q39 -3 78 -20q5 -3 11.5 -9.5l7.5 -7.5q4 -14 6.5 -36.5
t2.5 -24.5q2 -30 -1 -83t-3 -62q-6 -48 1 -72v-2q0 -88 -1 -135q0 -112 -2 -144v-10l20 -93q-2 -1 -12 -15q3 -11 5 -27q-2 -7 -6 -8q-30 -17 -65 3q-5 4 -24 23zM115 632q0 -4 1 -11t1 -13q3 16 -2 24zM115 700q0 -8 -0.5 -25t-0.5 -25q1 16 1 50zM98 405q0 -10 2.5 -28
t2.5 -26q0 -9 0.5 -26t0.5 -25q2 -70 2 -106q0 -10 -0.5 -30t-0.5 -31h1q6 103 -2 214q-2 38 -6 58zM87 277q0 -25 1 -36q0 6 -0.5 18t-0.5 18zM26 651v67h-1q0 -44 1 -67zM31 620v11q-3 -6 0 -11zM31 519q0 32 1 51h-1q-3 -26 0 -51zM40 680h1v32h-1v-32zM43 680h-2
q-5 -33 7 -67q-2 6 -4 17.5t-3 17.5q0 25 2 32zM41 502q0 25 2 31h-2v-31zM41 589h2q1 0 1.5 -2.5t1.5 -5.5t2 -3v-12v-10q1 -9 3 -13l-3 33v4t-0.5 5.5t-2.5 4.5t-4 0v-1zM49 429q0 21 -4 37q0 -2 1.5 -15.5t1.5 -21.5h1zM75 355v-30h3q0 6 -1.5 16t-1.5 14zM82 618
q-1 -7 -1 -20q0 4 0.5 10.5t0.5 9.5zM70 286q2 -19 2 -89h1q2 45 -3 89zM56 330h-1q2 -77 6 -118q2 -67 8 -113h1q-8 99 -8 114q-4 40 -6 117zM80 -80q41 5 64 -18q3 -19 -3 -46q-29 -12 -54 4q-17 10 -18 30q-5 17 11 30zM85 -112v20q-5 -12 0 -20zM91 -100q-9 -2 -1 -12
q-6 8 1 12zM102 -114q0 12 1 14q-3 -9 -1 -14z" />
    <glyph glyph-name="quotedbl" unicode="&#x22;" horiz-adv-x="833" 
d="M490 592q0 -2 10 -34q9 -45 3 -124q-2 -19 -8 -26t-28 -19q-64 4 -102 65q2 6 4 16.5t3 16.5q14 44 13.5 60.5t-17.5 59.5q11 19 13 20q16 7 28 4q44 -13 81 -39zM450 582v-20q2 5 2 20q0 2 -1 2t-1 -2zM411 474q2 2 2.5 7t2.5 8q0 1 -1.5 1t-1.5 -1q0 -2 -1 -7t-1 -8z
M418 523q0 28 -15 71h-2q4 -12 17 -71zM424 471l2 3q-2 0 -2 -3zM437 523q-6 42 -11 61q3 -13 6 -33t5 -28zM442 443q19 28 13 62q3 -33 -13 -62zM253 572q26 -28 22 -64q0 -8 1 -30t1 -37q-11 -15 -16.5 -18.5t-24.5 -9.5q-33 10 -43 18t-31 36q-1 13 2.5 40t1 48.5
t-15.5 38.5q2 5 6 14.5t6 14.5q39 12 61 -16q24 -24 30 -35zM182 592q14 -27 9 -64h2q5 35 -11 64zM182 479l4 10t5 10.5t4 8.5h-2q-10 -16 -11 -29zM199 479h2q0 1 1 4t1 4h-2q0 -4 -2 -8zM212 518q3 25 -6 53h-2q-1 0 -1 -2q8 -16 8 -51h1zM216 577h3q-5 3 -5 7q-2 0 -2 3
q0 1 -1 1v-1q3 -7 5 -10z" />
    <glyph glyph-name="numbersign" unicode="#" horiz-adv-x="513" 
d="M481 389q15 -6 20 -16q6 -11 1 -29q-12 -14 -26 -14q-12 -2 -33 -10t-32 -10q-3 -10 -4 -22.5t-0.5 -18.5t2.5 -24.5t2 -21.5l15 -3q27 -1 50 -30q11 -13 7.5 -26t-18.5 -20q-7 -3 -26 -5q-4 0 -10 -1t-8 -1q-8 -6 -4.5 -31t2.5 -32q-1 -9 0.5 -19t5 -21t4.5 -18
q-2 -17 -16 -23q-14 -9 -31 -4q-40 9 -62 31q-5 2 -3 26t2 28q-2 27 -6 55q-10 6 -40 4q-65 -17 -80 -23q-5 -16 -5.5 -32.5t1 -39t1.5 -32.5q0 -16 3 -33t9 -38.5t8 -30.5q-3 -5 -6 -8.5t-4.5 -6t-5 -4t-5 -2.5t-8 -3t-9.5 -3q-19 3 -47 20q-20 11 -20 31q-1 5 -2 14t-3 14
q-14 62 -8 111l-3 39q-6 4 -15 12.5t-15 12.5q2 12 16.5 19t17.5 11q13 43 9 92q-50 4 -92 44q4 16 20 19q15 4 39 4q8 0 21 -0.5t19 -0.5q12 14 14 41q3 21 8 63.5t8 63.5q3 30 21 120q4 10 8.5 30.5t7.5 30.5q1 2 2.5 7t2.5 8t3 7.5t4.5 7.5t6.5 5q14 2 18 2t16.5 -5.5
t15.5 -6.5q8 -4 18 -17q-3 -40 -3 -41q-8 -44 -14 -65q0 -2 -0.5 -6t-0.5 -7q-3 -11 -10 -58q-9 -64 -16 -137v-15q13 3 38 7.5t38 8.5q3 0 13 6q8 46 5 88v23.5v28v24.5v86q0 15 2 18q6 6 35 18q46 -19 53 -25q9 -13 9 -37q-2 -20 -3.5 -60.5t-3.5 -60.5q-2 -13 0.5 -37
t2.5 -32q6 -4 34 -4q24 -3 39 -10zM383 593q-2 -12 -4 -36.5t-3 -36.5q6 51 7 73zM359 287h-1q0 -1 -3 -24q-1 -5 -2 -14.5t-3 -14.5h2q1 9 3 26.5t4 26.5zM363 552h-1q0 -49 -2 -62q-2 -50 -4 -60h2q8 80 5 122zM349 566q0 -10 -2 -35.5t-2 -40.5h1q3 27 3 76zM330 599
q3 -40 3 -82q0 -41 -3 -82q5 27 5 82q0 37 -5 82zM218 496q-2 -6 -3 -14.5t-2 -14.5q1 6 3 16.5t4 15.5q5 18 5 28q0 2 -1 2t-1 -2q0 -13 -5 -31zM210 445v-4l-1 -2h1q0 4 2 6v5q-2 -2 -2 -5zM206 487l-4 -22h1q6 30 7 47v-3q-1 -1 -1 -2v-1q0 -5 -1 -6q0 -2 -1 -6t-1 -7z
M202 437q0 -6 -2 -19t-2 -16h1q1 5 4 35h-1zM195 606v6q0 -2 -1 -4l-1 -2q0 -1 1 -1t1 1zM188 584v-2q-1 -1 -3 -7q-2 -3 -3 -7.5t-2 -7.5q-3 -9 -5 -28h1q2 6 3.5 16t2.5 15q8 23 8 26h-1v-3q-1 -1 -1 -2zM166 559l-8 -47l-8 -46q2 7 3.5 15t3 17t2.5 14l9 47q3 11 9 43
t11 50h-2zM172 510q0 2 0.5 5t0.5 4q-3 -9 -3 -10l-2 -10h1l1 5q0 4 2 6zM158 379h1v25q0 -4 -0.5 -12.5t-0.5 -12.5zM150 453q-5 -12 -5 -18v-2q1 3 2.5 10t2.5 10zM126 306q14 -2 50 4q6 1 24.5 4.5t29.5 5.5q74 13 109 22q-43 -11 -104 -20l-52 -10q-47 -8 -57 -6z
M279 313v1l-43 -10l-20 -4q-5 0 -7 -1h-6v-2q58 11 76 16zM176 253q0 -7 -0.5 -18.5t-0.5 -17.5q0 -7 -1.5 -19t-1.5 -18h1q1 5 1.5 11t1 13.5t0.5 11.5v37zM160 224v22v-22zM150 213q0 1 3 26h-1q-3 -17 -2 -26zM142 254v-38q0 -6 -1.5 -19t-1.5 -20h1q2 8 2.5 22t0.5 15
v40h-1zM132 13v74q0 2 -1 2t-1 -2q0 -56 2 -74zM143 33v31q0 2 1 6.5t1 8.5v7q-2 0 -2 -2h2l-1 -3q0 -3 -0.5 -6t-0.5 -4q0 -2 -0.5 -6t-0.5 -6q0 -18 1 -26zM158 147q9 0 24 2t20 2l47 8q-25 -5 -46 -6q-30 -6 -45 -6zM165 -41q0 6 -1 18.5t-1 18.5q0 29 2 38q0 4 1.5 33
t1.5 44q-2 -13 -3 -38.5t-2 -38.5q0 -6 -0.5 -19t-0.5 -19q0 -25 3 -37zM268 151v2q-14 -1 -44 -5.5t-44 -6.5q18 0 43 5q7 0 22 2t23 3zM296 156q-2 0 -4 -1t-4 -1q2 0 4 1t4 1zM299 171q-26 0 -47 -4q-27 -2 -49 -6q-25 -4 -64 -11l4 13q-2 -2 -3.5 -6.5t-2.5 -6.5
q-12 -1 -30 -6v-1l30 7v-4q-2 -14 -2 -22q2 14 2 19q2 4 2 7q18 3 64 10q8 1 23.5 3t23.5 4q8 1 24.5 2t24.5 2zM275 199q4 0 17 2t21 3q0 10 -1 27t-1.5 31t-0.5 28q-21 0 -53 -7t-49 -16q-2 -7 -3 -19.5t-3 -18.5q-1 -2 -3 -9t-2.5 -10.5t0.5 -9.5t5 -11h17q45 7 56 10z
M316 319h-3q16 0 39 7v1q-4 -1 -11.5 -3t-11.5 -4h-6q-1 -1 -8 -1h1q1 1 6 1h3v2l-2 -2h-1q-5 0 -6 -1zM343 273v-26q3 13 0 26zM333 254q0 4 1 12t1 13q-3 -13 -3 -26q0 -14 1 -23h1q0 1 1 2q0 4 -1 11t-1 11zM363 90q5 12 5 17h-2q0 -2 -1.5 -7.5t-1.5 -9.5zM379 182v1
q-15 -2 -17 -3q0 2 0.5 6.5t0.5 7.5l-1 -6q0 -6 -2 -8q-7 0 -10 -1q2 5 2.5 14t0.5 10h-1q0 -3 -1 -11.5t-1 -12.5q-2 -1 -28 -3v-2h4l1 1q1 0 1 0.5t1 0.5h6h6q6 1 9 3q0 -3 -0.5 -6t-0.5 -4q-4 -2 -10 -2v-1q2 0 5.5 0.5t4.5 0.5q0 -18 -3 -36l-4 -71h1q2 12 3 35.5
t2 35.5l2 36q5 0 9 2q-2 -15 0 -29q0 18 1 29h6v1q-2 -1 -6 -1q0 5 2 11q4 0 9 1t8 1zM368 269q-6 -10 -5 -15q0 2 1 4t1 4q2 6 3 7zM388 350q-19 -6 -25 -7q12 1 25 7z" />
    <glyph glyph-name="dollar" unicode="$" horiz-adv-x="360" 
d="M317 236q4 -9 11.5 -29t12.5 -30q11 -32 11 -69q-4 -59 -32 -123q-7 -16 -33 -33q-5 -3 -16 -9.5t-18 -10.5q-2 -16 -2 -22t4.5 -21t5.5 -22l-10 -17q0 -1 -1.5 -2.5l-3.5 -3.5l-4 -4q-18 -2 -28 -5q-5 2 -14 3.5t-14 2.5q-26 13 -28 39q0 35 -9 51q-2 0 -8.5 3.5
t-10.5 5.5q-57 20 -87 71q-26 40 -30 79q-4 19 0 40q16 13 39 14.5t44 -2.5q5 -7 24.5 -15t24.5 -20q0 3 0.5 10t0.5 11q-2 40 -6 78q0 2 -0.5 5.5t-0.5 4.5q0 67 -1 102l-4 42q-21 27 -45 39q-20 11 -35 36q-7 15 -23 39q-21 34 -18 75q1 55 42 105q8 47 67 68q10 0 13 1
q20 5 23 23l2 32q0 8 3 11q9 12 31 12q32 -2 54 -18q5 -32 -7 -84q4 -2 8.5 -5t7.5 -4q49 -13 69 -64l5 -10t4 -9q-1 -13 5 -40.5t3 -41.5q-7 -11 -29 -19q-26 6 -34 10t-32 21q-2 9 -6 14q0 1 0.5 4.5t-0.5 5.5t-5 2h-2q-4 -17 -5.5 -37t-2.5 -45t-2 -37q0 -6 0.5 -17
t0.5 -15q0 -3 3 -24q27 -42 54 -81q17 -27 34 -71zM98 661q-8 -5 -9 -10q4 7 9 10zM41 522q0 94 48 158v1q-54 -73 -48 -159zM81 639h-1q-14 -20 -21 -55q18 50 22 55zM108 629q3 3 -1 3h-2q-17 -31 -26 -62h1q8 26 11 31q1 2 3 7.5t4 8.5q3 3 4 7q0 2 1 3v1h1l1 1q0 1 1 2
t2 -2zM134 476q4 21 6 70t-1 70q-9 -12 -15 -27q-5 -61 4 -106q0 -1 6 -7zM159 540q0 5 2 26.5t2 33.5h-2q-1 -9 -1.5 -19.5t-1 -22.5t-0.5 -18q-3 -28 -3 -59q1 9 4 59zM44 98q0 -2 1.5 -7.5t2.5 -9.5q-1 4 -2.5 9.5t-1.5 7.5zM36 93q3 -12 11 -34h1q-11 31 -12 34zM62 13
h1q-22 31 -28 46q-10 22 -13 53q5 -61 40 -99zM121 56h-2q1 -1 2.5 -3.5t3 -4t3.5 -1.5v1q-7 0 -7 8zM100 113q0 -11 7 -15q-6 6 -7 15zM94 101q5 -19 14 -28q-9 11 -14 28zM91 33v1q-9 12 -12 21q4 -11 12 -22zM138 17q-27 18 -42 42q-17 26 -21 56l-1 -1q9 -68 64 -97z
M174 591v9v-9zM174 558q-5 -18 -3 -41q3 40 3 41zM165 391v18v-18zM163 252v-1q4 4 4 22q2 7 2 32l-3 30t-3 31q4 -25 4 -59v-27q-3 -26 -4 -28zM170 155h1q-6 42 1 76v2q-9 -43 -2 -78zM191 660q7 55 3 110q3 -36 -3 -110zM213 646h-1q0 -15 1 -22h1q0 4 -0.5 11t-0.5 11z
M200 345v-14q0 8 2 14h-2zM215 764q2 -2 2 -8q1 4 -2 8zM214 733q0 -17 -1 -28q0 -5 -2.5 -14t-2.5 -14h1q7 19 5 56zM192 47q1 -1 1 0q0 17 -2 67.5t-2 77.5q-1 48 -1 145q0 9 0.5 25.5t1 30.5t1.5 26h-2q-6 -145 0 -289q0 -1 3 -83zM202 147q-6 42 -3 63q-6 -39 3 -63z
M209 241h3q1 21 1 62q-3 -52 -4 -62z" />
    <glyph glyph-name="percent" unicode="%" horiz-adv-x="474" 
d="M268 300q-36 -128 -43 -158q-2 -8 -6.5 -22.5t-7 -24t-4.5 -22.5t-2 -25q0 -4 -1 -5q-7 -16 -13 -52q-5 -7 -11.5 -9.5t-15 -2t-12.5 -0.5q-30 14 -35 30l8 29l24 108q27 105 50 172q3 14 12.5 39.5t12.5 38.5q7 26 37 115q7 21 15.5 44t18.5 50.5t16 43.5q2 4 4 11t3 11
q12 7 37 -3q19 -6 27 -33q-26 -84 -35 -104q-8 -18 -38 -100q-17 -51 -41 -131zM163 107h1q0 1 0.5 5t0.5 6zM241 307q12 29 17 65q-7 -37 -17 -65zM275 380l-9 -35zM271 397q3 4 5 16q-4 -6 -5 -16zM300 546l-1 -2q-1 -2 -1 -3q0 1 2 3.5t3 4.5v3v-1q-1 -1 -1 -2t-2 -3z
M202 219l-8 -19zM210 239l4 25q2 19 5 29q10 37 16 54q6 20 17.5 56t16.5 52q4 11 10.5 32t9.5 30h-1l-36 -110q-28 -89 -32 -107q-2 -6 -4 -15.5t-3 -15.5q-4 -15 -4 -30h1zM186 446q-3 -2 -12.5 -7t-13.5 -9q-37 -30 -94 -16q-42 35 -47 103q0 29 3 57q0 9 4 16
q9 26 17 44q9 25 35 51q20 22 50 20q39 -1 65 -31q9 -9 18 -21q21 -24 17 -56l-2 -33q-2 -14 -4 -17q-7 -15 -16 -44t-14 -40q-1 -9 -6 -17zM211 619h-1q9 -65 -22 -123h1q30 56 22 123zM194 573q-2 -2 -2 -6q1 2 2 6zM191 562q1 -30 -14 -56q16 23 14 56zM176 588l4 3h-2
q0 -1 -2 -3zM169 541q0 -11 -3 -16q5 8 3 16zM56 603q3 7 13 30q2 5 7.5 14t7.5 13q6 6 9 12q1 1 2 3t2 3.5t2.5 3t3 2t3.5 0.5v1q-3 0 -5.5 -2t-4.5 -4t-4.5 -6.5t-3.5 -5.5q-3 -6 -9 -15.5t-9 -15.5q-21 -36 -21 -63h1q1 5 2.5 15t3.5 15zM80 453v2q-8 6 -5 15
q-4 -10 5 -17zM73 623q2 1 9 11h-1q-1 -4 -8 -11zM105 651h-1q-7 -10 -24 -48h1q16 36 24 48zM98 486q-1 -9 7 -17q-8 8 -7 17zM104 616q1 2 2 5zM70 579v4v-4zM91 431q-3 1 -4.5 0t-4 1t-3.5 2t-3 2.5t-3 3.5t-2.5 4l-2 4l-2 4t-1.5 4q-9 24 -6 41q-5 -20 7 -45
q10 -26 25 -21zM105 442q-13 4 -21 26q-1 2 -3.5 13t-4.5 17q1 -4 4 -16.5t6 -18.5q4 -16 19 -21zM106 660q2 2 4.5 6t3.5 6h-1l-3 -6t-4 -6zM117 446v1q-1 1 -1 5v1q-2 -5 1 -7zM153 599q1 7 -1 24q0 9 -9 9q-19 -22 -23 -53q-3 -19 4 -63h3q17 29 26 83zM443 136
q15 -41 3 -98q-3 -10 -4 -15q-2 -29 -11 -41q-2 -2 -2.5 -6.5t-1.5 -6.5q-7 -40 -48 -49q-2 0 -5.5 -0.5t-4.5 -0.5q-25 4 -51 18q-59 33 -61 104q-3 25 3 73q1 15 15 37l4.5 9t5.5 10t5.5 8t8.5 8.5t12 5.5q42 5 82 -10q24 -6 39 -26q10 -13 11 -20zM298 160v-1l10 10h-1
q-5 -1 -9 -9zM300 -3l-9 35q3 -18 9 -35zM280 84q5 0 5 -4q0 4 -5 4zM297 -29q-7 6 -11.5 13t-7 17.5t-3.5 16t-3 19.5t-2 17q2 -66 27 -83zM302 -26q-20 23 -20 51h-1q0 -34 21 -51zM376 91q0 7 -7 10q-17 -36 3 -69q4 27 4 59zM366 156v-2v2zM369 170q-15 -1 -33 -11
q-16 -7 -12 -19h1q-1 10 7.5 16.5t16.5 9t20 4.5zM344 140q0 5 2 7q1 3 6 5q-4 -1 -7 -4.5t-1 -7.5zM346 181h4v1q-3 -2 -4 -1zM321 163q-7 -7 -5 -10h2v1v4l1 1q3 3 2 3q1 1 5 6l14 10q-12 -7 -19 -15zM324 -53q-6 -1 -6 2q0 -3 6 -2zM330 -29q-12 10 -17 22t-5 27
q-5 -34 22 -49zM386 -47q-15 3 -27 10q-11 4 -19 17q-6 11 -13 46h-1q0 -27 14 -47q14 -21 46 -26zM398 68q4 12 -1 30h-1q2 -7 2 -30zM404 38v-1v1zM415 64v29h-1v-14.5t1 -14.5zM426 35q2 16 1 19q0 -12 -1 -19zM431 73q0 31 -16 59h-1q11 -19 17 -59z" />
    <glyph glyph-name="ampersand" unicode="&#x26;" horiz-adv-x="463" 
d="M402 124q11 -20 27 -35q2 -7 5 -20.5t5 -20.5q-10 -23 -35 -28q-39 -10 -80 -4q-11 1 -30 13q-4 2 -12 9t-13 10q-13 -8 -20 -28q-4 -12 -12 -24t-19 -26.5t-16 -22.5q-1 -3 -18 -17q-67 -43 -116 -16q-19 11 -22 13q-21 19 -21 41q-1 15 -3 43t-3 43q0 10 3 20
q4 19 22 111q11 55 44 129q4 6 6 13l-26 69q-19 52 -8 111q4 31 28 89q6 16 22 32q31 31 69 64q42 40 96 19q57 -20 54 -82q-4 -30 1 -70q2 -35 -14 -58q-10 -14 -18 -31q-13 -28 -24 -39q-2 -2 -4 -6t-4 -6l-30 -54q-4 -4 -6 -16q6 -16 29 -35q5 -4 29 -28q5 1 7 2.5
t2.5 5.5t1.5 5q8 29 18 43q29 20 62 10q19 -5 25 -20t-5 -34q-14 -21 -18 -38q-5 -15 -18 -38q-9 -19 -8 -22q12 -18 47 -76zM242 206h-1q0 -1 1 -3.5t1 -4.5h2q-2 7 -3 8zM207 29h-2q3 -13 -12 -23q8 2 12 9t2 14zM243 282l-24 35v-2q11 -17 24 -33zM306 545
q-11 -46 -37 -85q26 37 37 85zM286 510h-1q-6 -18 -15 -36q2 3 16 36zM251 447l-14 -29h1q7 8 13 29zM242 456q10 10 13 21q-3 -7 -13 -21zM195 255v-1q2 -2 8 -9t11 -11v1zM210 212q-4 5 -12.5 14.5t-12.5 14.5q-6 5 -13 14q0 1 -2 4t-3 4q-5 5 -3 6h3v1h-3h-2q2 -7 21 -29
q13 -18 26 -31q1 0 1 2zM181 271q0 -2 5 -2l-2 1q-2 0 -3 1zM165 607l10 16q-7 -8 -10 -16zM164 581q-29 -42 -34 -89h1q6 32 12 44q8 25 20 42q5 5 14.5 17t15.5 18q26 24 44 25v2q-22 -4 -40 -21q-19 -19 -33 -38zM92 204q2 3 2.5 7.5t1.5 7.5h-2q0 -5 -2 -15zM123 396
l1 1q-1 2 -2 3h-1q-1 2 -2 6l-3 6h-1q3 -3 3 -11zM154 584q-24 -28 -30 -50q9 24 30 50zM144 584q-20 -13 -24 -34h1q7 20 24 33zM92 429h-2q6 -42 20 -58q-8 15 -12 26q-6 22 -6 32zM97 363q4 -6 8 -18l5 -15q-1 -1 0 -1l1 1q-3 17 -10 31q-2 5 -7 15t-7 15q-17 43 -9 73
q-9 -30 4 -68q2 -5 7.5 -16t7.5 -17zM51 124q-4 -24 -3 -47q1 8 2.5 23.5t2.5 23.5q2 7 5 22t5 23q2 11 14 47q3 8 10 23t9 22q0 2 -2 2q-9 -17 -19 -47l-14 -45q-7 -39 -10 -47zM58 108h1q1 4 3 15t4 17t3 17t3 17l-8 -33q-2 -6 -3.5 -16.5t-2.5 -16.5zM47 44v10
q-1 -7 0 -10zM59 -40q-14 17 -17 40q-2 36 0 48q-6 -26 0 -51q7 -31 17 -37zM66 -13v1q-8 12 -7 22h-2q0 -14 9 -23zM164 442q16 16 40 62q2 5 12 24.5t15 33.5t5 28q-16 9 -33 0q-61 -76 -39 -148zM122 -60l1 1h-6q0 1 -6 3q-1 0 -1 -1q8 -6 12 -3zM127 -6l9 13l11 19
q49 55 70 121q-3 5 -10.5 20.5t-11.5 22t-13 15t-20 12.5l-6 -5q-28 -83 -30 -100l-4 -20q-4 -20 -5 -31q-3 -17 -1 -52q-2 -15 11 -15zM204 -26l16 27q-10 -10 -16 -27zM171 -46l1 1q36 34 64 102h-1q-11 -29 -27 -54q-14 -23 -38 -48zM233 28q-2 -2 -3 -5h1q0 1 1 2t1 3z
M325 305q-4 -7 -4 -10q2 2 2.5 5t1.5 5zM324 327q-5 -20 -10 -28v-1q9 16 10 29zM295 70v1q-16 21 -31 53q-1 0 -1 -1q3 -6 9 -17.5t11 -20t12 -15.5zM304 73q-15 28 -23 36q4 -8 23 -36zM346 280l10 19q-8 -10 -10 -19zM339 232h1l11 20l11 21q13 24 17 39q-2 -7 -20 -41
q-13 -25 -20 -39zM350 235l12 19q0 1 -1 1t-1 -1q-2 -3 -5 -9.5t-5 -9.5zM318 47q-4 2 -2 4h-1q-2 0 -2 -2q1 0 2 -1q1 0 3 -1zM337 57q-20 6 -22 29h-2q0 -24 24 -29zM383 52h13q-3 2 -13 2v-2z" />
    <glyph glyph-name="quotesingle" unicode="'" horiz-adv-x="209" 
d="M63 661q82 -19 117 -76q32 -114 -12 -218q-7 -12 -17.5 -17t-24.5 -7.5t-19 -4.5q-52 20 -65.5 31.5t-27.5 50.5q24 89 25.5 116.5t-13.5 101.5q5 3 18 10.5t19 12.5zM69 510q4 47 -6 90q0 1 -1 1t-1 -1q9 -48 5 -82q0 -45 -23 -69q19 15 26 61zM93 568q2 10 2 38
q-2 -8 -2 -38zM98 510v29q-3 -9 -3 -29q1 -2 3 0zM107 409v2q0 6 3 9h-3q0 -6 -3 -6v-6q3 0 3 1zM110 449q18 12 12 40q0 -15 -15 -40q0 -1 1 -1q2 0 2 1zM127 533q-5 45 -5 76q-4 -34 5 -76zM171 527v3v9h-2q-1 0 -1 -3q0 -2 1.5 -5t1.5 -4z" />
    <glyph glyph-name="parenleft" unicode="(" horiz-adv-x="284" 
d="M185 -10q28 -58 60 -95q11 -11 12.5 -16t-1.5 -20q-30 -30 -75 -11q-28 9 -47 31q-38 40 -53 65q-9 13 -17 39t-12 34q-8 21 -15 96q-2 16 -1 49.5t-2 50.5q-1 5 1 16.5t2 13.5q2 10 4 20.5t4.5 23t3.5 19.5q0 2 1 7t1 7q2 26 11.5 74.5t11.5 58.5l8 40q16 52 25 68
q5 9 24 57l23 9q26 -11 46 -17q8 -8 12 -17v-31q1 -3 4.5 -9t4.5 -9q0 -2 -0.5 -4.5t-0.5 -3.5q-35 -54 -40 -67q-20 -53 -22 -73q-4 -27 -11 -70q-2 -10 -7.5 -30.5t-7.5 -30.5q-2 -22 -2 -29q1 -41 6 -84q3 -38 25 -103q9 -28 24 -59zM136 -48h2q-5 19 -26 34
q16 -13 24 -34zM161 538v-2q3 4 1 11l-1 -1q3 -3 0 -8zM156 533q-8 -20 -31 -62h2q20 31 29 62zM125 497q9 9 10 19q-7 -16 -10 -19zM116 233v-27q0 21 2 27h-2zM70 102q-2 82 -1 100q0 17 2 49q0 3 0.5 7.5t1 8.5t1.5 8q0 1 1.5 11t1.5 15q-1 -3 -2 -11t-3 -12
q0 -11 -2 -25l-3 -51q-2 -61 3 -100zM74 183h1q3 21 3 41zM87 431h2q7 22 23 66q2 6 30 67h-1q-22 -46 -29 -66q-21 -53 -25 -67zM96 253q-1 -10 -4 -62q0 -38 5 -46v1q-6 13 -4 49q0 7 1 18.5t1.5 21t0.5 18.5zM97 304q0 -8 1 -15q0 8 -1 15zM101 410q10 19 14 41h-1h-1
q-1 -5 -13 -41h1zM147 -101h2q-30 32 -46 65q-17 42 -20 79q5 -88 64 -144zM171 -89v1q-1 0 -2 1q0 -2 2 -2z" />
    <glyph glyph-name="parenright" unicode=")" horiz-adv-x="258" 
d="M96 5q12 26 23 55q19 54 23 97q5 41 6 79q0 9 -2 27q-2 10 -7 29t-7 28q-6 32 -10 66q-3 21 -21 68q-5 13 -19.5 35.5t-17.5 27.5q0 1 -0.5 3t-0.5 4q1 3 4 8.5t4 8.5v29q4 9 11 16q7 2 21.5 8t21.5 8l22 -8q22 -52 23 -54q5 -9 9 -19t8 -24.5t6 -19.5q2 -6 4 -19t3 -19
q1 -4 10.5 -51.5t11.5 -73.5q0 -2 1 -6t1 -7q2 -8 5 -27.5t6 -31.5l3 -28q-3 -17 -2 -47.5t-1 -46.5q-7 -71 -14 -90q-3 -7 -7.5 -21t-9 -25.5t-10.5 -21.5q-21 -32 -50 -61q-15 -18 -44 -29q-41 -19 -70 10q-3 13 -1 19t11 15q28 32 56 89zM140 -31h2q7 19 23 32
q-20 -13 -25 -32zM119 517v2q-2 5 0 7l-1 1q-2 -6 1 -10zM124 514q10 -29 27 -58h2q-19 32 -29 58zM153 480q-4 4 -10 18q1 -9 10 -18zM161 208v25h-2q2 -6 2 -25zM204 110q5 37 3 94l-3 48q-2 14 -2 23q-2 3 -2 11t-2 11q0 -4 1 -12t1 -13q1 -3 1.5 -7t1 -8.5t0.5 -6.5
q2 -30 2 -46q2 -16 -1 -94zM200 186q0 6 -0.5 12t-1.5 14t-1 12q0 -18 3 -38zM186 419h2q-13 36 -23 62q-11 29 -27 62h-1q20 -41 28 -63zM180 252q0 -8 0.5 -17.5t1.5 -20t1 -17.5q2 -33 -4 -46v-1q5 9 5 44q-3 48 -4 58zM179 299q-1 -3 -1 -14q1 7 1 14zM175 399h1
q-8 21 -12 38h-1h-1q4 -19 13 -38zM130 -80h2q55 52 60 135q-3 -41 -19 -74q-17 -35 -43 -61zM110 -68v-1q1 0 1 2z" />
    <glyph glyph-name="comma" unicode="," horiz-adv-x="126" 
d="M104 105q9 -54 10 -68t-4 -33q-4 -12 -10 -34.5t-9 -31.5q-8 -13 -27 -11q-35 2 -52 24q-7 20 5 42q11 19 17 59q9 43 -12 96l15 12q8 -1 16.5 -5t13 -8t13.5 -11.5t13 -10.5q9 -10 11 -20zM41 -3h1q2 2 3 6t2 6q-4 -4 -6 -12zM50 102q-2 -5 -2 -23q2 5 2 23zM48 -53v-3
v3zM55 44v-1q8 21 6 56q-2 28 -13 39v-2q12 -12 12 -41q0 -24 -5 -51zM68 53v32q0 -5 -0.5 -16t-0.5 -16h1zM68 99h2q0 14 1 21h-1q0 -4 -1 -11t-1 -10zM77 34l-9 -27q12 22 14 55q5 33 -4 58q7 -36 4 -57q-2 -19 -5 -29zM81 11h1q7 5 9 21h-1q0 -12 -9 -21z" />
    <glyph glyph-name="hyphen" unicode="-" horiz-adv-x="409" 
d="M338 225h-12q-9 7 -20 2q-9 1 -28 2t-29 3q-7 1 -27 2t-31 4q-3 2 -18 2q-8 -1 -97 2l-15 3q-4 1 -12 2t-12 3t-5 2h-2h1q-2 0 -5 3q-2 0 -2 1h-1l-1 1q0 1 0.5 4t0.5 4v3q4 9 4 15q1 1 1 4l30 -2l43 -4q-17 3 -42 5q-21 2 -31 1q0 1 0.5 3t0.5 4q1 1 1 3l1 1l15 8
q14 -2 27 0q3 1 35 -2q17 -2 20 -2q10 2 60 -1q51 -2 79 -6q39 -6 82 -9q11 0 18 -1q1 0 2 -1q1 0 3 -1q8 -2 10 -2v-10v-2q0 -10 -2 -28q-2 0 -6.5 0.5t-6.5 0.5q-24 2 -35 2v-1l36 -2q9 0 12 -1q0 -2 -0.5 -6t-0.5 -6h-1l-2 -1q-2 0 -3 -1h-3h-10q-7 -1 -22 -1zM343 234
v-1q11 -4 27 -4q-10 2 -13 2zM341 254q24 -2 37 -1h-2q0 1 -1 0h-2q-3 0 -4 1h-10h-18zM72 271q2 0 4 -1h1q-1 1 -5 1zM38 279v-1q6 -2 29 -4v1q-21 2 -29 4zM83 257q3 -1 12 -1.5t10 1.5v1v-1h-3h-4h-6q-11 0 -14 1q-4 0 -8.5 0.5t-10 1.5t-8.5 1q13 -4 32 -4zM249 237
q-11 3 -20 3q1 0 8.5 -1.5t11.5 -1.5zM242 245l-12 3zM286 247v1q-10 2 -27 3.5t-27 3.5q-25 4 -56 4v-1q9 -2 27 -2t28 -2q9 -1 27 -3.5t28 -3.5zM216 268v-1h-1q-1 0 -2 1v-1h3q2 2 -1 2v-1h1zM227 270q18 -2 27 -2q-18 2 -27 2zM291 269v1q-14 6 -52 8l-27 3l-28 3
q18 -4 53 -6q3 0 8.5 -0.5t10 -1t8.5 -1.5q14 -1 27 -6z" />
    <glyph glyph-name="period" unicode="." horiz-adv-x="139" 
d="M61 137q38 -13 49 -34q16 -42 13 -68q-5 -41 -42 -46q-2 1 -10 3.5t-12 4.5q-40 13 -40 55q0 8 -2 22.5t-2 20.5q0 24 2 31q20 20 44 11zM40 71q0 7 -1 22t-1 23q-3 -24 2 -45zM51 92q-4 5 -4 13q0 -8 4 -13zM62 69h2q-9 31 -9 49q-5 -24 7 -49zM83 101v-17q2 5 2 17h-2z
" />
    <glyph glyph-name="slash" unicode="/" horiz-adv-x="413" 
d="M225 277q-38 -95 -65 -171q-3 -10 -11.5 -31t-14 -38t-7.5 -33l-2 -6q-5 -8 -8.5 -17.5t-7 -21.5t-5.5 -18q-6 -8 -13 -10t-16.5 -2t-14.5 -1q-1 1 -5.5 3t-5.5 3t-5 3t-5 3.5t-4 4t-4 4.5t-2 5.5t-2 6.5l12 32q4 13 11.5 36.5t14 43t13.5 37.5q34 93 75 186
q6 15 18 42.5t18 42.5q12 32 55 125q13 29 38 80.5t33 68.5l9 24q18 10 40 -3q22 -7 26 -35q-25 -65 -51 -113q-4 -8 -53 -108q-42 -96 -61 -143zM88 67h1q0 2 1.5 6t1.5 6q0 -1 -1 -3t-2 -4.5t-1 -4.5zM197 284q18 33 26 71q-14 -48 -26 -71zM230 326q4 15 13 38
q-9 -23 -13 -38zM241 382l7 18q-2 -4 -4 -10t-3 -8zM291 544q-2 -1 -3 -4l-1 -1q1 1 3 4t3 4l1 1q1 1 0 3l-1 -1v-1q2 0 1 -1t-2 -1q0 -2 -1 -3zM133 168q6 11 10 21q-4 -10 -10 -21zM163 238l8 32q17 42 24 58q11 28 50 117q6 12 15.5 34t14.5 33h-2l-52 -119
q-2 -4 -21 -48.5t-27 -67.5q-4 -19 -12 -34q-6 -22 -7 -33h2q4 20 7 28z" />
    <glyph glyph-name="zero" unicode="0" horiz-adv-x="323" 
d="M320 307q0 -15 2 -47q2 -41 -6 -66q-11 -42 -29 -135q-13 -63 -47 -103q-42 -50 -107 -39q-41 22 -68 49t-40 72q-5 25 -12 43q-19 61 -14 130q1 89 13 197q11 111 40 204q17 61 59 111q43 4 70 -30q15 -21 37 -31q26 -12 42 -36q35 -48 44 -101q2 -15 7 -43t7 -41
q6 -21 3 -43q-7 -33 -1 -63v-28zM60 554q-11 -36 -11 -72q2 6 3 18.5t2 18.5q1 5 3 17t4 18q10 32 23 66q-1 0 -2 1q-15 -35 -22 -67zM75 565q0 -12 -8 -42h1q7 23 7 42zM52 218q0 20 2 60q-1 -9 -1.5 -19t-1 -22.5t-0.5 -18.5q-2 -14 -2 -62zM53 307v-2q2 3 4 12
q-1 -2 -2.5 -5.5t-1.5 -4.5zM61 66h1q-15 26 -23 62q-6 42 -6 66q0 32 5 77q0 7 0.5 19t0.5 19q2 27 0 37q-1 -6 -1 -20v-21q0 -26 -1 -39q-5 -45 -5 -78q2 -81 29 -122zM64 120h1q0 2 -0.5 7.5t-0.5 9.5h-1q1 -7 1 -17zM88 600h-1q-6 -14 -6 -20q1 6 7 20zM176 182
q13 71 7 135q-7 63 -36 185q-7 22 -10 28q-3 10 -8 10q-9 -38 -11 -49q-20 -126 -22 -148q-12 -116 -4 -195q5 -67 28 -116q11 0 17 16q32 91 39 134zM181 14h1l2 9h-1q0 -2 -1 -5t-1 -4zM228 299h2q-6 72 -18 112q-5 22 -17 52q-2 5 -5.5 13.5t-4.5 11.5q-7 9 -10 9
q7 0 15 -22q2 -6 10 -22q3 -7 5.5 -15.5t5 -19t4.5 -16.5q12 -55 13 -103zM232 178q0 11 1 18h-1q0 -4 -0.5 -10t-0.5 -8h1zM245 332q3 10 -3 26h-1q6 -17 4 -26zM287 270q2 56 0 113q0 60 -13 111q-4 27 -17 58q-14 32 -29 40q16 -12 28 -41q8 -19 17 -52q8 -34 14 -108
q0 -85 -2 -111q-2 -59 -11 -106q-9 -62 -36 -114l1 -1q41 79 48 211zM253 462q0 -2 1 -5t1 -4q0 3 -2 9zM269 339q0 -30 -1 -46q0 -32 -7 -47q7 15 7 45q3 51 3 52q0 9 -1.5 27t-1.5 21q0 20 -10 33q10 -14 10 -39q1 -16 1 -46zM258 195v19h-1q-2 -12 1 -19z" />
    <glyph glyph-name="one" unicode="1" horiz-adv-x="241" 
d="M182 -65q-15 -12 -33 -12.5t-29 4t-31 15.5q-18 13 -22 35q-14 90 -7 136q4 20 4 45q1 30 6 122.5t7 143.5q1 19 1 41t-0.5 50t-0.5 44q-3 -3 -7.5 -9t-7 -9t-7.5 -5t-10 -2q-36 17 -42 20q-25 16 -7 45q16 22 64 97q11 18 27 23q4 2 10 7t9 7q13 11 35 20q25 7 36 -18
q15 -28 16 -40q1 -7 8.5 -21.5t5.5 -23.5q3 -7 6 -46l4 -66q2 -111 4 -134q0 -11 -2 -41q0 -7 -0.5 -19.5t-1 -23.5t-1.5 -21q-7 -79 2 -183q0 -56 1 -84q2 -46 2 -68q-4 -19 -21 -22l-9 -3t-9 -4zM196 97q-2 -25 -1 -37q2 8 2 37h-1zM177 44q1 9 1 83q0 57 -1 84h-1
q2 -54 2 -83q0 -15 -1 -42.5t-1 -41.5h1zM190 619h-1q0 -9 1 -25t1.5 -29t0.5 -25q1 -40 0 -79q0 -41 -9 -158h1q2 25 10 159v80q-3 66 -4 77zM175 580v-22q0 2 0.5 6t0.5 7v5v3q3 1 3 -2q-1 4 -3 4zM170 523q0 -45 -3 -88q5 35 3 88zM153 142q2 -22 5 -33h1q-1 17 -6 33z
M98 414q-4 -36 -2 -86h2q-3 42 0 86zM100 497v11q0 -13 -1 -16h1v5zM87 138q-1 5 -1 17h1q-2 -9 0 -17zM100 -3q1 0 1 1q-8 9 -10 30q0 30 -1 45q0 6 -0.5 20.5t-0.5 22.5q0 4 -0.5 11t-0.5 11v12v5q-2 3 -1 3v4v-4l-1 -1h1v1q0 -33 2 -95v-18.5t2 -22.5q2 -20 9 -25z
M109 26q1 -1 1 0q-5 15 -7 36q-1 19 3 37l-1 1v-1q-9 -42 4 -73zM119 57v25q0 -4 -0.5 -12t-0.5 -13h1z" />
    <glyph glyph-name="two" unicode="2" horiz-adv-x="355" 
d="M234 -125q-58 -8 -99 -25q-12 -6 -27 -1q-10 3 -31 12q-6 6 -14.5 15.5t-12.5 13.5q-34 37 -22 92q4 15 19 93.5t29 119.5q11 35 27 101t20 80q2 4 3.5 11t3.5 10q12 33 36 133q12 55 4 93q-2 7 -5 11q-8 2 -15 -1t-15 -9.5t-13 -8.5q-30 -2 -47 5.5t-40 33.5q1 7 1 21
q62 37 120 42q14 -2 28 -7.5t34 -15.5t27 -13q23 -9 39 -28q41 -44 29 -142q-18 -118 -26 -155q-4 -33 -14 -65q-7 -25 -21 -76t-22 -77q-3 -8 -9 -28.5t-10 -31.5q-21 -62 -30 -131q4 -7 14 -1l36 18q40 -19 53 -33q0 -2 1.5 -6.5t1.5 -6.5t-1 -6.5t-1.5 -8t-0.5 -6.5
q-4 -5 -8 -8t-7.5 -5t-9 -4t-8 -2.5t-9 -1.5t-8.5 -1zM278 628q17 -32 11 -70q10 36 -11 70zM256 342l-15 -40q-18 -56 -25 -84h1q1 3 10.5 37t16.5 51q3 8 15 42q10 24 7 39h-1q3 -18 -9 -45zM229 316q0 -1 1 -1q7 10 7 23q-2 -12 -8 -22zM223 325l-9 -22q10 19 15 39v1
q-2 -2 -3 -2q2 1 0 -6zM81 -36q0 -9 4 -13q-4 7 -4 13zM101 -85v1q-23 8 -32 33q-11 27 3 61l-1 1q-15 -28 -5.5 -59t35.5 -37zM132 302l3 15q0 1 -1 1q0 -3 -1.5 -8t-1.5 -8q0 -1 1 0zM200 611l2 -6q0 4 -2 6zM198 587v-1q2 -2 2 -21v-18q-2 -6 -4 -36q5 28 5 47q0 14 1 21
q-2 7 -4 8zM176 660q14 -45 13 -90q0 -20 -5 -45q-2 -8 -7 -23.5t-6 -20.5h1q10 20 13 45q5 28 5 45q2 49 -14 90v-1zM165 338q-5 -29 -15 -50q11 25 15 50zM167 458l-12 -36h1q2 5 4 11l4.5 13.5t3.5 11.5h-1zM135 168q3 8 16 60l15 59q5 19 14 59t15 60l-1 1
q-5 -19 -14 -59t-15 -60l-15 -59l-16 -61h1zM128 -114q-1 0 0 -1q14 8 31 8v1q-19 2 -31 -8z" />
    <glyph glyph-name="three" unicode="3" horiz-adv-x="338" 
d="M143 136q12 74 14 90q9 46 0 96q-31 0 -86 21q-24 6 -31 37q30 47 36 59q14 26 28 62q18 50 20 71q1 7 6 22.5t6 23.5t-1 28q-8 -2 -21 -3.5t-20 -2.5q-5 3 -17.5 9t-19.5 10q-12 8 -17 19q-1 2 -1.5 5.5t0 7t-0.5 7.5q35 28 97 28l25 14q4 -2 12.5 -4.5t15 -5t11.5 -5.5
q35 -17 54 -61t17 -92q-4 -56 -33 -125q-2 -5 -5.5 -12.5t-4.5 -9.5q1 -15 16 -28q33 -26 52 -78q10 -24 10 -49q2 -119 -7 -165t-18 -62q-3 -20 -10.5 -40t-18.5 -43.5t-16 -37.5q-2 -8 -6 -14q-8 -10 -19.5 -18t-19.5 -11t-23.5 -8.5t-20.5 -7.5q-6 -3 -16 -1l-85 23
q-19 5 -18 27q10 17 34 33q27 18 47 66q24 56 35 125zM252 26h-1q0 -9 -3 -18q4 7 4 18zM98 432q6 11 16 41h-1q-13 -34 -15 -41zM125 -35l-3 -4l4 3q0 2 2 2q0 2 1 3zM113 -40q-5 -2 -10 -11v-1q5 8 10 12zM94 -70h1q11 6 21 19v1q-11 -14 -22 -20zM129 -96v1q-1 0 -3 -1
l1 -1q1 0 2 1zM136 -73v1v1v-1q-1 0 0 -1zM140 -85q0 1 0.5 3t-0.5 3v-6zM156 -61h-1l-8 -9q-4 -4 -6 -12q1 2 3 5t4 5zM183 308h-1q0 -2 -1 -7t0 -7q2 10 2 14zM161 -52l3 6v1q-2 -1 -3 -6q-1 -1 0 -1zM189 178h1q2 11 3 33.5t2 34.5q0 29 -7 28q10 0 7 -18q0 -10 -2 -26
q-1 -9 -4 -52zM244 235q-2 -5 -2 -20h1l2 20h-1zM222 -27q16 19 14 45q-2 -20 -4 -24l-5.5 -11t-4.5 -10zM217 -61q-7 -9 -37 -37v-1q26 21 40 41q19 22 23 49q-8 -30 -26 -52zM207 -47q0 -1 -1.5 -2t-1.5 -3q0 -1 1 -1l3 5q0 1 -1 1zM248 592q0 -50 -19 -101q22 46 20 101
h-1zM206 476q0 -1 1 -1q14 22 9 45q1 -20 -10 -44zM200 431h1q8 6 8 19q-1 -10 -9 -19zM188 648q-2 -18 -6 -36h1q3 12 5 36zM147 550l-20 -49q5 9 22 54q9 28 12 58v30q0 15 -3 20q-8 11 -31 3v-1q28 12 32 -12q5 -19 -1 -52q-3 -17 -11 -51zM162 534q17 40 14 59
q3 -25 -19 -67q-2 -5 -12 -27.5t-15 -34.5q7 13 17.5 37t14.5 33zM156 357q22 -2 38 -22.5t22 -49.5q6 -30 1 -68q-2 -12 -6.5 -35.5t-5.5 -34.5q0 -1 1 -1q7 23 13 76q4 34 -3 68q-6 28 -22 47t-38 20zM152 -23h-1q-16 -45 -54 -62v-1q38 15 55 63z" />
    <glyph glyph-name="four" unicode="4" horiz-adv-x="324" 
d="M160 223q-12 7 -17 8q-12 1 -25 5.5t-21.5 9t-23.5 12.5t-22 12q-17 11 -23 30q-4 15 3 34q18 47 25 122q0 14 2 17q5 19 15 56t16 55q2 7 6 20t6.5 21t4.5 19.5t2 22.5q0 9 5 14q11 15 29 15q55 4 111 -26q34 -19 35 -68q0 -28 -1 -83t0 -83q0 -19 -1.5 -93.5t1.5 -93.5
q1 -18 0.5 -26.5t-2 -26t-1.5 -26.5q-2 -87 0 -104q0 -15 -1 -22v-153q0 -7 0.5 -14.5t1.5 -16.5t1 -14q-22 -33 -50 -23l-6 3q-7 2 -8 2.5t-6.5 3t-7 3.5l-6 4t-6.5 5.5t-5 6t-5 8t-4 9.5t-5.5 9.5t-8.5 9.5l-7 7q6 38 6 53q0 13 -2 36t-2 29q-3 33 -2 39q2 11 2 79v78
q0 2 -1.5 7t-1.5 8zM272 178q-2 -70 -2 -102q-1 -17 -1 -50q-2 -34 -1 -52q1 17 1 50l2 52q0 18 0.5 51t0.5 51zM259 107h-1q-2 -50 -2 -74zM248 85q2 -9 0 -18h1q0 11 -1 18zM226 -145v-5h1v5v6q-1 -1 -1 -6zM218 -133q-2 -13 1 -22q-2 15 -1 22zM225 117q-5 -20 -3 -40
q2 32 4 40h-1zM206 -97q-3 -27 0 -53h1q-2 36 -1 53zM201 -118q-1 -8 -1 -25q1 8 1 25zM185 -109v16q0 -3 -0.5 -8t-0.5 -8h1zM195 34v-20v20zM191 -116q2 38 2 56q-2 -38 -2 -56zM197 136v-1q2 0 1 -4v-5v-8v-18q0 -25 1 -37v42v21q0 8 -1 10h-1zM192 84h-1q-1 -9 -1 -28h1
q1 9 1 28zM176 -111h1q0 13 -1 20v-20zM184 -36v7q-3 -11 0 -15v1v7zM183 184q-2 -19 -2 -53.5v-42.5t0.5 -23.5t0.5 -23.5q0 -31 1 -46v47v15v17.5v14.5v30.5v35v29.5zM165 541q-3 -15 -11 -44.5t-12 -45.5h1q6 18 22 90zM171 507q-14 -45 -25.5 -110.5t-11.5 -96.5
q13 -3 15 -3q4 2 9 6t8 6q9 58 5 96q-1 16 0.5 49.5t-0.5 52.5zM129 277l-17 2v-1q4 0 9 -0.5t8 -0.5zM111 549v6v-6zM106 530l-21 -79q2 5 21 79zM77 488v-1q0 1 1 5t2 7.5t1 7.5zM80 389h1q3 7 5.5 15t5 18t4.5 15q5 21 14 50q22 86 26 103h-1l-26 -101q-10 -32 -14 -49
q-2 -6 -5 -16t-5.5 -18.5t-4.5 -16.5zM82 284q2 -4 5 -5.5t8 -3t7 -2.5q16 -4 30 -3q-23 2 -27 4q-2 1 -7.5 2t-9.5 3t-6 5zM132 256q1 0 1 1q-4 3 -10 1q2 0 9 -2zM144 266v-2l2 1q-1 1 -2 1z" />
    <glyph glyph-name="five" unicode="5" horiz-adv-x="355" 
d="M295 343q43 -51 29 -125q-4 -21 -10 -44q0 -55 -1 -78q0 -1 -3 -61q-5 -80 -44 -121q-23 -13 -24 -14q-28 -19 -59 -9q-10 3 -29 1q-24 -2 -47 3q-47 6 -67 53q-9 19 -12 26q2 26 2 43q0 45 -1 68q-2 55 7 99q11 5 25 13q20 -6 32 -15t21 -28q0 -61 1 -94q0 -22 2 -28
q5 -33 10 -52q5 1 6 0t3 4l3 4q23 49 32 101q20 130 22 174q1 12 1 37q-4 3 -18.5 15.5t-23.5 18.5q-13 10 -37 17q-27 6 -45 16q-35 20 -31 61q1 14 3 51t4 57q2 27 1.5 76t0.5 76q0 4 0.5 12t0.5 11q18 26 57 20q12 -2 34 -4.5t29 -3.5q35 -6 48 -17q8 -7 23.5 -19
t27.5 -22.5t21 -21.5q-1 -11 -1 -27q-19 -20 -46 -11q-26 8 -39 13q-3 -10 -4 -13l-9 -193q9 -7 46 -24q33 -16 59 -45zM73 499q0 1 3 90q2 15 3 44t2 45h-1q-2 -15 -3 -44.5t-2 -44.5q-2 -76 -2 -90zM89 566q2 8 2 36h-1q0 -6 -0.5 -18t-0.5 -18zM99 620q1 10 0 22v-22z
M97 514q1 7 1 19q-1 -7 -1 -19zM99 577q2 11 0 22q2 -11 0 -22zM112 545h1q3 111 3 113h-1q-3 -57 -3 -113zM123 541q3 45 3 47q-1 -7 -4 -47q-2 -32 -2 -47q3 22 3 47zM145 516h1q8 47 8 124h-1q0 -58 -8 -124zM257 137l2 61h-1q0 -20 -2 -60l-4 -61q3 20 5 60zM235 -22
l15 23l-15 -22v-1zM239 129q2 21 5 32q0 1 -1 1q-4 -15 -4 -33zM256 307q3 -24 4 -28l1 1q-1 4 -2 13t-3 14zM217 371q2 -2 9 -8t11 -11q2 -2 15 -23q-11 29 -35 42zM242 308v1q-1 1 -1 6q-1 -5 1 -7zM232 331q-3 9 -9 17l8 -17q0 -1 1 0zM164 481v1v3v6h-1q0 -9 1 -10z
M192 353q14 -10 25 -24q12 -15 16 -36q2 -14 2 -21q1 -7 -1 -20h1q3 11 1 34q-3 18 -12 35q-8 14 -18 23q-1 0 -5.5 4t-7.5 6q-1 0 -5 2t-7 4.5t-2 3.5h-1q-2 -2 1 -4l4 -3q2 -1 9 -4zM175 12v1q-5 -5 -6 -12q2 7 6 11zM145 -53q13 13 20 33h-1q-4 -11 -13 -24q-1 -3 -8 -10
q-3 -3 -8 -6.5t-6 -0.5q1 -7 16 8zM155 -58q19 17 25 26q-16 -18 -25 -26zM179 -62v-1q13 -3 28 21q10 15 20 40h-1q-9 -22 -19 -38q-5 -8 -12 -15q-4 -4 -10 -7h-5q-1 1 0 2l1 4zM222 -43l-12 -14zM217 -80v-1q28 23 44 70q-9 -22 -19 -38q-1 -2 -25 -31zM275 275l-3 38
q-2 -20 3 -38zM271 177v16q0 -4 -0.5 -9t-0.5 -7h1zM271 154l-3 -41q0 2 3 41zM288 249h1q0 42 -2 53q-6 29 -16 36q10 -10 13.5 -24t3 -36t0.5 -29z" />
    <glyph glyph-name="six" unicode="6" horiz-adv-x="379" 
d="M185 430q0 3 3.5 67.5t-2.5 71.5q-28 -53 -49.5 -131t-23.5 -134q2 -3 5 -3t6 1.5t5 1.5l16 4q68 17 140 -9q47 -20 70 -80q14 -34 11 -70q0 -7 -0.5 -20t-1 -24t-1.5 -20q-2 -21 -7 -57t-6 -42q-29 -47 -35 -59q-19 -33 -40 -42l-27 -15q-39 -5 -74 7q-7 4 -13 4
q-31 0 -79 38q-29 21 -43 83q-17 71 -23 153q-1 8 -1 24q0 82 1 92q1 31 10 79q8 52 18 98q8 37 14 54q27 86 49 137q8 22 11 33q0 1 1 4q0 2 1 3q18 18 25 52q23 11 43 0l63 -24q31 -12 49 -52q3 -8 22 -83q14 -62 5 -159q0 -5 -4 -14q-3 -1 -13 -3.5t-15 -4.5
q-5 -3 -14 -11t-14 -12q-14 -7 -47 13q-30 20 -35 49zM302 448l-2 -5h1q1 1 2 5q0 2 1 2v3q0 -1 -2 -5zM273 487v26q-2 -20 0 -26zM275 620v-1q8 -40 8 -103h1q4 41 -9 104zM268 606h-1v-2l1 1v1zM259 571h-1v-1l1 -2v-2q0 -1 1 0v2q-1 1 -1 3zM253 614h-1l3 -23v-1
q1 11 -2 24zM242 437q4 -6 3 -16q3 10 -3 16zM233 637q2 2 4 -4q2 -7 2 -13l2 -14q2 -24 2 -36q1 -21 -1 -66q6 44 2 84q-2 26 -5 39q0 3 -1.5 8t-4.5 2zM273 -59l-17 -17v-1q15 15 17 18zM271 198q-1 -7 -1 -19q0 3 0.5 9t0.5 10zM273 -26l-8 -8h1q6 6 7 8zM351 159h-1
q0 -3 -0.5 -9t-0.5 -10h1q0 12 1 19zM318 243l-1 -1q9 -36 12 -75q1 -12 -1 -74q0 -1 1 -1q4 35 1 77q-3 38 -12 74zM305 193q0 -36 2 -46q0 16 -2 46zM305 102v-5v5zM309 12q-6 -24 -16 -39q12 21 16 39zM299 235q-3 -10 -2 -16h1v8q0 1 0.5 4t0.5 4zM285 -66h-1l2 -2
q0 1 -1 2zM265 272q-1 1 -1 0q9 -7 16 -38q6 -35 7 -49q1 -16 1 -46q-2 -31 -5 -49h1q3 17 5 51q0 39 -2 50q-1 17 -7 51q-6 23 -15 30zM150 589q-1 -7 -5 -13q5 8 5 13zM134 557h-1q-22 -38 -27 -61l13 32q2 6 7.5 15t7.5 14zM125 576q-20 -27 -29 -52q15 33 30 52h-1z
M67 72q0 -39 15 -65q1 0 1 1q-15 33 -16 64zM54 118q-1 -10 4 -14q-4 7 -4 14zM89 -36v1q-18 14 -28 64q-9 36 -16 85h-1q8 -49 18 -92q10 -48 27 -58zM93 42q-11 9 -9 21q-2 -6 1 -12.5t8 -8.5zM249 -61h-1l-16 -22q4 4 9 11t8 11zM245 -20h-1q-11 -29 -25 -46
q-20 -27 -41 -28q20 0 41 25q20 28 26 49zM186 -64q14 0 23 12v1q-10 -13 -23 -13zM220 -24l-3 -4zM234 258q9 0 9 -38q0 14 -3 29q-2 10 -6 9zM226 287q-1 -7 3 -10q-4 5 -2 10h-1zM205 272v-1q9 1 19 -26q2 -5 4.5 -15t3.5 -13q3 -9 5 -28q3 -29 3 -30h1q0 19 -4 34
q-1 18 -6 35q-7 22 -11 30q-9 16 -15 14zM185 243q-50 0 -75 -1q0 -1 -1.5 -3t-1.5 -4q-5 -53 1 -91q1 -8 2.5 -24t2.5 -24q5 -60 15 -98q7 -27 21 -41h19q14 15 27 52q2 7 10 67q1 9 4 39.5t5 49.5q-1 4 -3.5 18t-4.5 22t-7.5 19.5t-13.5 18.5zM184 595q0 1 -1 1
q-24 -25 -43 -72q0 -1 -6 -17t-8 -25q-7 -27 -11 -46v-1q3 8 12 43q4 15 13 42q18 47 44 75zM221 585h-1q0 -60 3 -89h1q0 4 -1.5 37.5t-1.5 51.5zM221 615q-1 -3 -1 -12h1q1 6 0 12zM201 631q5 2 5 -2v-4v-9v-15q0 -5 0.5 -16t0.5 -17v-28t2 -35h1q1 11 -2 64q0 19 -2 65v1
q-4 0 -5 -4z" />
    <glyph glyph-name="seven" unicode="7" horiz-adv-x="283" 
d="M69 -87q-3 2 -9 5.5t-10.5 7.5t-7.5 9q-2 7 -4 10l2 29q1 16 3.5 45.5t4 53.5t1.5 45q0 6 2 17t2 15q0 3 2 10.5t2 12.5q1 38 16 131q3 23 11.5 65t9.5 49q4 16 9 47t8 47q3 12 5 32q8 38 4 59q-37 -4 -57 6.5t-39 44.5q2 2 5.5 6.5t5.5 6.5q34 11 42 13q32 8 44 18
q24 18 52 6q4 -3 35 -13q41 -11 50 -54q-7 -70 -7 -75q-1 -26 -17 -119q-11 -76 -17 -110q-12 -70 -12 -71q-9 -36 -11 -99q-3 -92 -3 -184q-1 -17 0 -46.5t1 -38.5q1 -11 -0.5 -14t-12.5 -17q-32 -7 -83 21q-6 3 -14 14t-13 15zM193 426q4 15 4 36h-1q0 -21 -4 -36h1z
M209 583q-6 -53 -16 -100q11 45 16 100zM72 653v1q-3 -1 -5 -3q1 0 2 1q1 0 3 1zM107 62h1l3 45h-1q0 -5 -1 -14t-1.5 -16.5t-0.5 -14.5zM107 14h1q3 16 3 33h-1zM119 88h2h-2zM123 57q0 6 2 20h-1q-2 -14 -2 -21q1 0 1 1zM123 -8v17q0 -3 -0.5 -8t-0.5 -9h1zM133 20
q1 6 4 39q2 30 2 42h-1l-3 -40q-2 -30 -2 -41zM133 -40q6 10 4 24h-1q1 -12 -3 -24zM152 344v-1q5 12 5 26h-1q0 -16 -4 -25zM152 -84v16q-2 -8 0 -16zM177 380q0 -27 -11 -54q11 24 11 54zM170 480q-1 -11 -5.5 -32.5t-5.5 -33.5q11 43 21 135q-6 -46 -10 -69zM161 487
q0 -14 -4 -22h1q4 10 3 22zM106 668h-1h1q1 -1 8 -1v1h-8zM79 665q8 -2 14 0v1q-3 -1 -14 -1zM160 667l-68 -16q44 8 68 16zM141 556h-1q0 -2 -0.5 -6t-0.5 -6zM128 484q6 22 6 46q-2 -24 -6 -46zM113 641q14 2 22 5q-15 -2 -22 -5zM137 458l-12 -60l-13 -62q5 14 14 62
l12 61q15 73 23 121h-1l-11 -61zM99 -21v-11q0 8 1 11h-1zM86 -2q-2 -21 -1 -31l3 62l3 61h-1l-3 -61q0 -5 -0.5 -15t-0.5 -16zM65 26l8 74q-7 -42 -8 -74zM65 3q0 -16 -4 -31q5 14 5 31h-1z" />
    <glyph glyph-name="eight" unicode="8" horiz-adv-x="381" 
d="M247 747q5 -3 17 -11t18 -12.5t15 -12.5t16 -17q52 -70 35 -153q-15 -74 -48 -136q-12 -23 -31 -69.5t-23 -55.5q4 -6 23.5 -42.5t31.5 -54.5q20 -34 14 -70q-14 -101 -64 -147q-19 -17 -25 -26q-2 -3 -15 -31q-7 -7 -16 -10t-20.5 -4.5t-18.5 -3.5q-53 25 -58 28
q-63 34 -72 103q-2 10 -6.5 30t-6.5 35.5t0 29.5q9 85 17 106q5 13 17 54.5t23 62.5q2 6 5.5 19.5t5.5 19.5q-19 31 -25 37q-66 79 -25 188q17 41 52 98q7 13 23 22q46 24 71 33q38 14 70 -10zM217 537h-1q1 -4 0 -7q0 -1 -2 -7h1q4 5 2 14zM209 564h1q5 11 5 33h-1
q0 -18 -5 -33zM215 204h-1q0 -11 5 -15q-4 7 -4 15zM159 689l1 -1q15 10 41 17q-21 -3 -42 -16zM142 490l10.5 3.5t11.5 3.5q5 11 9.5 23t7.5 26.5t4.5 23t4.5 27.5t4 25q0 2 -0.5 5t-1.5 7.5t-1 7.5q-7 -4 -13 -9.5t-10 -9.5t-10 -12.5t-8 -11.5t-8 -14.5t-7 -13.5
q-23 -42 -13 -92q4 2 10 5.5t10 5.5zM167 276q0 1 -1 1t-1 -1l1 -1q1 0 1 1zM95 255h1l21 57q11 29 23 55q-17 -32 -25 -55q-18 -49 -20 -57zM115 238l-1 1q-11 -19 -12 -22q0 -1 1 -1q6 13 12 22zM108 662q20 25 42 40q-25 -17 -42 -40zM96 668q6 3 11 8v1q-5 -7 -11 -9z
M97 625q-10 -8 -10 -15q1 8 16 19q9 6 18 15q-3 -3 -11.5 -9t-12.5 -10zM93 553q-12 -35 -8 -66q6 -38 29 -38q1 0 1 1t-1 1q-28 0 -28 55q3 31 16 61q15 37 69 95q0 1 -1 1q-56 -52 -77 -110zM54 556l-1 1q-14 -15 -5 -38q0 -1 1 0q-8 22 5 37zM71 481q-4 27 2 60q1 1 0 1
q-10 -27 -3 -62q1 0 1 1zM71 560h1q0 7 4 11q0 1 -1 1q-3 -3 -3 -5q-1 -1 -1 -7zM91 301q-23 -41 -27 -69v-1l12 36q6 17 16 34h-1zM83 45q-7 3 -9 12q0 -11 8 -13q1 0 1 1zM74 185h1l12 33q0 1 -1 1q-11 -31 -12 -34zM95 -23q-18 10 -22 31q3 -24 22 -31zM94 -3
q-2 2 -3 5.5t-3 5.5v-1q2 -1 3 -5t3 -5zM108 -58q1 0 1 1q-47 23 -54 81l-1 -1q2 -26 17.5 -49.5t36.5 -31.5zM121 2q-1 2 -3 4.5t-3.5 5t-2.5 5.5h-1q5 -11 10 -15zM94 84q12 -62 58 -87v1q-45 31 -57 86q0 1 -1 0zM170 -53v1q-16 -1 -29 7h-1v-1q16 -10 30 -7zM169 37
q17 13 36 54q15 27 8 66q-5 35 -26 48q-6 -11 -8 -23.5t-2.5 -28.5t-1.5 -25l-20 -25q0 -23 2 -31.5t12 -34.5zM186 -16q49 49 68 114q-26 -72 -68 -114zM228 220q25 -34 22 -81h1q6 42 -23 81zM271 76h-1q-5 -22 -23 -47h1q18 18 23 47zM269 164h-1q0 -3 0.5 -7.5t0.5 -7.5
q1 3 0 8t0 7zM252 67l10 20zM253 189q-1 18 -14 42q-15 22 -21 16q7 3 13 -5t11 -20q4 -6 11 -33zM257 593q5 31 -6 52q-11 24 -33 15q12 4 22.5 -5t13.5 -24q6 -22 -2 -58q0 -3 -12 -52q-2 -9 -8 -26.5t-8 -27.5q5 11 12 34.5t8 26.5q10 42 13 65zM228 631q7 -30 -5 -62h1
q14 30 4 63v-1zM260 660q2 1 4 -3.5t3 -11t1.5 -12.5t0.5 -9q1 -6 0 -17t-1 -15h1q3 24 0 50q-1 2 -2 8t-2.5 9.5t-4.5 1.5q-1 -1 0 -1zM270 503q1 3 4 22h-1q-3 -21 -3 -22zM279 553q17 33 6 74q5 -43 -7 -74h1z" />
    <glyph glyph-name="nine" unicode="9" horiz-adv-x="442" 
d="M359 -28q-10 -34 -41 -51l-39 -25q-40 -22 -85 -15q-8 2 -25 3.5t-25 2.5q-50 6 -95 61l-15 21q-9 15 -9 16q-26 97 9 162q8 17 24 20q56 11 98 -28l5 -8l4 -50v-52q1 -23 6 -54l30 21q9 11 17 26q14 21 17 35q30 89 34 176q0 1 -0.5 5t-0.5 6q-6 0 -7 -1
q-27 -23 -78 -10q-29 6 -54 37q-6 7 -16.5 20t-15.5 21q-27 36 -28 83l-3 56q0 9 1 12q5 18 7 51.5t4 43.5q20 115 58 179q24 38 58 53l26 10q43 23 95 -17q3 -2 18 -17q25 -25 28 -48q1 -12 11 -34q28 -57 35 -152q4 -41 16 -199q2 -75 1 -89q-3 -46 -14 -102
q-3 -10 -5.5 -37.5t-8.5 -41.5q-26 -57 -29 -73q-1 -4 -4 -9.5t-4 -7.5zM246 735q-23 -20 -38 -59q-10 -18 -14 -32q-8 -24 -5 -37v1q-4 18 9 42l12 30q15 31 36 55zM194 751q0 -1 1 -1l10 8q-3 -1 -11 -7zM200 689v1q-16 -13 -18 -39q1 21 18 38zM139 366q-3 8 -5 26l-3 29
q2 -22 2 -32q2 -16 6 -23zM143 667q-12 -12 -17 -38q0 -1 1 -1q4 23 16 39zM124 456q0 1 -1 2t-2 2.5t-1 2.5q0 -1 1 -2.5t2 -2.5t1 -2zM136 683v1q-25 -45 -22 -74h1q-3 24 21 73zM141 305q-10 23 -20 50q-7 24 -12 52q-7 54 0 108q0 1 -1 1q-9 -45 0 -109q4 -26 12 -53
q18 -45 21 -49zM191 280q-10 0 -18 8.5t-9 20.5q1 -13 8.5 -22t18.5 -7zM271 605q4 23 2 55q0 6 1 17.5t0.5 21.5t-4.5 20q-42 -45 -60 -115q-6 -22 -23 -118q-7 -60 6 -118q1 -6 3.5 -9.5t7.5 -2.5q16 9 24 33q3 7 6.5 20t4.5 17q3 8 5.5 22t6.5 24.5t11 18.5q2 48 4 58
q2 43 5 56zM37 41q0 10 2 32q5 36 14 64h-1q-11 -35 -14 -66q-2 -24 -2 -35q0 -20 4 -28q-3 7 -3 33zM56 8q0 3 0.5 9.5t0.5 10.5q0 -4 -0.5 -10.5t-0.5 -9.5zM56 46q1 8 3 30t4 34v1q-8 -35 -7 -65zM65 134v1q-1 -1 -2 -4h1v1zM75 12q-7 10 -5 42q1 25 6 49v1
q-6 -24 -8 -56q0 -30 7 -36zM108 -31v1q-4 0 -4 5q0 -5 4 -6zM269 73q0 -1 1 -1q7 9 5 24h-1q1 -12 -5 -23zM273 -73q-23 -15 -33 -18q0 -2 1 -1q20 7 32 19zM282 123h1q6 40 3 79h-1v-1h1q-1 -1 0 -10v-9q0 -12 -1 -19q0 -8 -1.5 -22t-1.5 -18zM371 50v-3v3zM376 558h-1
q5 -68 7 -154q0 -14 -0.5 -39t-0.5 -38q0 -3 -1.5 -32.5t-1.5 -45.5q2 15 4 79q1 27 1 77q-2 85 -7 153zM360 433v-1q2 1 3 -3.5t1.5 -11.5t1 -11.5t0.5 -6.5q0 -5 -0.5 -15t-0.5 -15q3 14 1 43q0 1 -0.5 7t-2 10t-3.5 4zM354 336q2 -14 0 -27q2 13 0 27zM353 471h-1v-11
t1 -10h1q0 3 -0.5 10t-0.5 11zM337 72v-1q5 2 3 8v-1q0 -4 -3 -6zM289 5v-1q17 10 27 30q1 1 0 1q-13 -20 -27 -30zM294 -59l6 6v1l-7 -7h1zM318 -2q11 13 29 43q28 51 27 99h-1q0 -6 -1 -7q0 -1 1 -1v-1l-2 -14q-2 -18 -5 -26q-8 -26 -20 -49q-11 -19 -29 -44
q-28 -32 -33 -40l1 -1q14 15 33 41zM333 -14q9 9 18 33h-1q-3 -4 -8 -17l-10 -15q0 -1 1 -1z" />
    <glyph glyph-name="colon" unicode=":" horiz-adv-x="180" 
d="M53 282q-27 29 -37 42q11 57 13.5 86.5t-6.5 86.5q2 2 28 16q50 -24 77 -65q0 -42 -3 -65q-3 -34 14 -66q-1 -3 -4.5 -18t-9 -22t-16.5 -11q-9 -1 -17.5 1t-20.5 7.5t-18 7.5zM102 427v9v-9zM86 385q-6 -22 -9 -30q3 8 9 30zM72 464v-60l-9 -63q9 43 9 60q3 31 0 63z
M51 441q0 -7 1 -21t1 -21q0 32 -2 42zM46 366q0 -5 -4 -14q0 -2 1 -2h1q7 15 7 35q-2 -3 -3 -9.5t-2 -9.5zM48 148q20 -3 50 -19.5t34 -18.5q12 -19 12.5 -56.5t6.5 -52.5q-16 -22 -38 -22.5t-41 8.5q-8 8 -24.5 25.5t-27.5 27.5q9 14 11 27.5t0.5 36t-1.5 27.5q15 15 18 17
zM51 45q2 14 2 61q0 2 -2 0v-61zM65 50v30v-30zM92 47q0 22 -9 56q3 -26 9 -56zM134 22l-1 -1q0 -1 1 -1v2z" />
    <glyph glyph-name="semicolon" unicode=";" horiz-adv-x="163" 
d="M69 212q33 -5 52 -28q9 -19 7 -54q-2 -18 -4 -53.5t-3 -53.5q-5 -49 -42 -72q-31 -2 -47 7q-26 15 -32 30q8 18 10 22l7 10.5t7 11.5q8 20 15 85q0 7 -1 21t-1 22q0 35 3 44q8 10 29 8zM82 84q-1 -13 -1 -39q1 13 1 39zM81 163v-20q1 7 1 20h-1zM69 78q-1 -16 -7 -46
q6 18 8 43q3 21 3 46h-1v-3v-1v-6v-12q-1 -3 -1.5 -6.5t-1 -8t-0.5 -6.5zM43 -14h2q2 1 10 15h-2l-4 -8q-1 -2 -6 -7zM49 30q5 15 7 36q2 6 3.5 17.5t2.5 17.5q5 41 1 73q-1 1 -1 0q2 -41 -2 -72l-4 -34q0 -6 -3 -18.5t-4 -19.5zM98 39q12 45 7 93q0 -63 -7 -90
q-11 -27 -16 -36q-9 -14 -26 -28q0 -1 1 -1q27 17 41 62zM105 0v-1q3 0 4.5 2.5t-0.5 4.5q0 1 -1 0q2 -4 -3 -6zM138 418q-2 -28 -6 -57q-4 -14 -1 -33q5 -21 -13 -39q-5 0 -16 1t-17 1q-4 3 -9.5 6.5t-8 5t-6 4.5t-5 4t-4 3t-4 4t-3.5 4t-3.5 5t-3.5 6t-5 8q16 46 16 62
q2 36 6 64q9 14 24 13q63 -9 59 -62zM79 350q3 17 3 52q0 22 -3 49h-1q0 -5 1.5 -23.5t1.5 -27.5q0 -8 -1 -25t-1 -25zM91 408v-21v21zM96 412q0 22 2 29q0 1 -1 1t-1 -1q-1 -9 -1 -29h1zM96 357v26q0 -5 -0.5 -13t-0.5 -13h1zM104 369q2 13 4.5 37.5t3.5 32.5h-1
q-6 -45 -7 -70z" />
    <glyph glyph-name="less" unicode="&#x3c;" horiz-adv-x="368" 
d="M333 497l10 7l7 -11l-2 -2q0 -2 -2 -2l-2 -2l-8 -7l-18 -14l-9 -6q-12 -2 -17 -11q-23 -12 -49 -30q-33 -23 -50 -29q-8 -3 -15 -10q-20 -18 -66 -48l12 -15q7 -13 13 -16q9 -8 24 -24t18 -19q27 -28 51 -60q23 -33 52 -65l12 -13l1 -2q1 -1 1 -3q4 -7 5 -9q-5 -5 -6 -7
q-2 0 -2 -2l-21 -18q-2 3 -9 10q-20 22 -24 26q3 -5 7 -9.5t9 -9.5l8 -8l8 -9l-10 -8q-1 0 -2 1l-3 2q-1 1 -1 2h-1l-7 7q-7 5 -17 15l-8 9q-2 11 -12 15q-1 1 -38 44q-33 41 -35 45q-3 5 -12 14q-11 9 -22 20.5t-24 26.5t-21 23l-6 9h-1h-3h-2q0 2 -2 3t-2 3v1q-1 1 -1 2
l-6 15l-2 3h1v1l-1 -1l-3 7q0 1 -1 2v1q0 1 2 3t3.5 6.5t2.5 6.5q14 10 21 17q5 4 15.5 10t13.5 8q16 9 18 11q6 6 48 35q54 35 67 42q39 21 71 42l15 10q1 1 5 1q7 3 9 5l7 -8l1 -1v-1l15 -23q-1 -1 -5 -3.5t-6 -4.5q-25 -16 -29 -19v-1zM303 492q0 -1 1 -1l30 21v1l-1 -1
q-1 0 -2 -1l-1 -1q-1 -1 -4 -2l-7 -6q-4 -2 -9.5 -6t-6.5 -4zM240 101v-1q6 -11 16 -22v1l-8 10q-1 3 -8 12zM253 117v-1l25 -27v1l-1 1l-1 1l-1 1l-3 3q-1 2 -6 7zM176 170q-2 4 -12 16q2 -4 12 -16zM170 190l7 -10l-7 11v-1zM164 249q4 -7 33 -43q16 -19 17 -20
q2 -2 15 -23q-6 14 -30 42l-18 21q-3 4 -8.5 11.5t-8.5 11.5zM201 188h1l-18 21v-1q7 -10 17 -20zM175 216h-1q0 -1 1 -1l-1 -1v1l-2 2l2 -3q3 0 1 2zM140 237v-1q5 -7 17.5 -20.5t17.5 -21.5l34 -44l1 1q-16 21 -34 43q-19 26 -36 43zM81 361l14 9l-15 -8zM63 340l-1 -1
l1 -1l1 1zM73 326v1h-1zM72 344h-1h1zM64 352h1l-1 1v-1zM82 332v-1l1 1h-1zM56 348l1 -1v1h-1zM89 285v1h-1q-1 0 -2 1q0 1 -2 3l-5 5q-7 7 -9 10l-3 4l-1 -1l7 -7q1 -1 4.5 -5.5t7 -7.5t4.5 -3zM91 320l12 -15q-3 5 -11 15h-1zM100 344l1 -1l6 4t5 4l1 2h-1v-1q0 -1 -1 -1
l-3 -2q-2 -1 -3 -2q-2 -1 -3 -2q-1 0 -2 -1zM185 436l-25 -14q23 10 46 27l23 14l25 11q-20 -5 -46 -24q-3 -1 -23 -14zM226 451l-23 -15q5 2 13 8t10 7zM195 428h1q0 -1 -1 -1q-1 -1 -2 -1q2 0 3 1q0 3 -2 1h1zM218 420h1q1 0 2.5 1t4 2t4.5 2h-1l-4 -1q-4 -2 -7 -4z
M240 423l-18 -9v-1q2 1 18 10zM216 426l48 27q-22 -10 -48 -26q-7 -5 -23.5 -14.5t-24.5 -15.5q0 -1 1 -1q19 10 47 30zM342 489h-1l-11 -6q-2 -2 -6.5 -4t-6.5 -3h1q8 3 24 13z" />
    <glyph glyph-name="equal" unicode="=" horiz-adv-x="422" 
d="M360 216h-12q-9 8 -20 0q-6 1 -58 1q-8 1 -27.5 1t-30.5 3q-10 3 -18 0q-16 -2 -97 -5q-14 2 -16 3q-17 2 -25 5h-4l-1 1q-1 0 -3 2q-2 0 2 -2q-2 0 -3 2q-2 2 -3 2h-1v2q-2 0 -3 1v11v3q3 12 3 21v6h30q7 0 14 -0.5t16 -1.5t14 -1v1q-15 3 -43 3q-20 0 -31 -1v9l1 2v2v2
q8 2 15 12q9 0 27 2q5 1 10.5 1t13 -0.5t11.5 -0.5q2 0 9 -1t11 0q17 4 61 4q53 2 78 -1q39 -4 84 -4h19q1 0 4 -3q3 -1 11 -1q0 -2 0.5 -7t0.5 -7v-4q2 -8 2 -36h-14q-27 0 -35 -2q0 -1 18 0h18h13v-16q0 -1 -1 -1h-1l-1 -1q-1 -1 -3 -1h-2q-8 -2 -10 -2q-4 -1 -8 -1.5
t-8.5 -1t-6.5 -0.5zM364 228q11 -4 27 -4v1q-6 0 -12 2q-2 0 -6.5 0.5t-8.5 0.5zM378 256h-18v-1q24 0 37 1v2h-2h-1h-1h-5q-6 -2 -10 -2zM89 255q1 0 3 -0.5l2 -0.5q-1 1 -5 1zM54 262q9 -3 29 -3q-15 3 -29 3zM102 236q22 0 22 3l-1 1v-1q-2 0 -3 -1h-3h-7h-13
q-10 0 -28 2v-1q4 0 10.5 -1t12 -1.5t10.5 -0.5zM270 224v1q-3 1 -6.5 1.5t-8 1t-6.5 0.5v-1q11 -3 21 -3zM249 238q6 -3 13 -3l-6 1q-5 0 -7 2zM306 242q-18 3 -55 5q-43 2 -57 0q10 -1 28 -1h27q10 -2 57 -4zM233 263v-1q-2 0 -2 1v-1h2q0 3 -1 3v-2h1zM271 267h-27
q9 -1 27 -1v1zM307 271q2 0 2 1t-2 1q-14 6 -52 6q-21 0 -27 2q-6 0 -15 0.5t-14 0.5q19 -4 54 -4h27q11 -1 27 -7zM333 393q-11 8 -20 1q-9 1 -29 1t-29 1q-6 0 -18 -0.5t-22 0.5t-18 4q-10 1 -19 0q-19 -4 -54 -5t-43 -2q-3 1 -8.5 2t-8.5 2q-20 3 -24 4l-2 1q-1 0 -3 2
h-2q-1 1 -0.5 1t2.5 -1q-2 -2 -4 0l-2 2q-1 0 -1 1t-1 1l-1 1h-1v11v4q0 4 1 11t1 10v5q11 1 31 1t43 -3q-17 4 -43 4q-20 0 -31 -1q1 2 1 9v3v1q13 10 15 13q18 0 27 4q14 4 35 -2q2 0 6.5 -0.5t8.5 -0.5t7 1q8 3 18 4t22.5 0.5t18.5 -0.5q36 4 80 -1q28 -3 83 -5
q3 0 9 0.5t9 0.5q3 -3 5 -3q1 0 3 -0.5l4 -1t3 -1.5l2 -12v-4q0 -28 2 -36q-5 -2 -14 -2q-4 0 -11.5 0.5t-13 0.5t-10.5 -1v-1q6 0 18 0.5t19 0.5h12v-17q-2 0 -3 -1q-3 0 -3 -2h-2q-2 0 -5.5 -0.5t-5.5 -0.5q-21 -3 -23 -3q-2 -1 -11 -1zM363 404l-14 2q-1 0 0 -1
q25 -3 27 -3q-3 2 -13 2zM344 433q23 -2 38 2h-2q-1 1 -1 0h-3h-4h-9q-14 0 -19 -2zM79 432h-5h4h1zM39 440v-1q9 -3 28 -3v1q-1 0 -28 3zM86 414h4h5.5h6t5 1t1.5 2l-3 -1h-4h-5q-5 -2 -15 -2q-4 1 -8.5 1.5t-10 1t-8.5 0.5q11 -3 32 -3zM255 402q-11 3 -22 3q21 -3 22 -3z
M235 414l10 -2h2v1q-2 0 -6 0.5t-6 0.5zM290 418v2q-25 4 -55 4q-47 2 -57 1v-1h28t29 -1q23 0 55 -5zM217 441v-1h-3q2 0 3 -1h1v1q-1 0 -1 1zM256 444h-28h8.5h10.5h9zM293 450q-8 4 -17 5t-19 1.5t-17 1.5h-27q-18 2 -30 2q19 -4 54 -4q18 0 29 -1q9 0 27 -5z" />
    <glyph glyph-name="greater" unicode="&#x3e;" horiz-adv-x="393" 
d="M42 518l10 -7l30 -20v1q-4 3 -29 19q-1 1 -3 2.5t-4.5 3t-3.5 2.5l15 23l1 1v1l7 8q2 -2 9 -5q4 0 5 -1l15 -10q32 -21 71 -42q13 -7 67 -42q42 -29 48 -35q2 -2 18 -11q3 -2 13.5 -8t15.5 -10q7 -7 21 -17q2 -2 3 -6.5t3 -6.5t2 -3v-1l-1 -2l-3 -7l-1 1v-1h1l-2 -3
l-6 -15v-1l-1 -2q-1 -2 -2 -3q-1 -2 -2 -3h-2h-3h-1l-6 -9q-8 -8 -21 -23t-24 -26.5t-22 -20.5q-9 -9 -12 -14q-2 -4 -35 -45q-37 -43 -38 -44q-11 -4 -12 -15l-8 -9q-10 -10 -17 -15l-7 -7h-1q-1 -1 -1 -2l-3 -2l-2 -1l-10 8l8 9l24 27q-4 -4 -24 -26q-7 -7 -9 -10l-21 18
q0 2 -2 2q-1 2 -6 7q1 2 5 9q1 1 1 3l1 2l12 13q29 32 52 65q24 32 51 60q3 3 18 19t24 24q6 3 13 16l12 15q-46 30 -66 48q-7 7 -15 10q-17 6 -50 29q-26 18 -49 30q-5 9 -17 11l-9 6l-18 14l-8 7l-2 2q-2 0 -2 2l-2 2q1 3 7 11zM82 506q-1 0 -6.5 4t-9.5 6l-7 6l-4 2l-1 1
q-1 1 -2 1l-1 1v-1l30 -21q1 0 1 1zM145 114v1q-7 -9 -8 -12l-8 -10v-1q10 11 16 22zM132 130v1l-13 -14q-5 -5 -6 -7l-3 -3l-1 -1l-1 -1l-1 -1v-1zM209 184q10 13 12 16q-10 -12 -12 -16zM208 194l7 10v1q-6 -8 -7 -11zM221 263q-3 -4 -8.5 -11.5t-8.5 -11.5l-18 -21
q-24 -28 -30 -42q13 21 15 23q7 10 17 20q29 36 33 43zM183 202h1q10 9 17 20v1zM211 230h-1q-2 -2 1 -2l2 3l-2 -2v-1l-1 1q1 0 1 1zM245 251q-17 -17 -36 -43q-18 -22 -34 -43l1 -1l34 44q5 7 17.5 21t17.5 21v1zM305 376l-15 8l14 -9zM323 353l-1 1l-1 -1l1 -1zM312 341
v-1l1 1h-1zM313 358h1h-1zM320 366h1v1zM303 345v1h-1zM328 361l1 1h-1v-1zM296 300v-1q1 0 4.5 3t7 7.5t4.5 5.5l7 7l-1 1l-3 -4q-2 -3 -9 -10l-5 -5q-2 -2 -2 -3q-1 0 -1 -0.5t-1 -0.5h-1zM282 319l12 15h-1q-8 -10 -11 -15zM284 357l1 1l-2 1q-1 1 -3 2t-3 2l-3 2
q-1 0 -1 1q-1 1 0 1h-1q-1 -1 6 -6zM225 436l-25 14q-20 13 -23 14q-26 19 -46 24l25 -11l23 -14q23 -17 46 -27zM182 450l-23 15q2 -1 10 -7t13 -8zM189 442h1h1q-2 2 -2 -1q1 -1 3 -1q-1 0 -2 1q-1 0 -1 1zM166 434h1q-2 1 -4.5 2t-4 2t-2.5 1h-1q3 -2 7 -3zM163 428
l-18 9q16 -9 18 -10v1zM121 467l48 -27q29 -20 47 -30q1 0 1 1q-8 6 -24.5 15.5t-23.5 14.5q-26 16 -48 26zM44 503h-1q16 -10 24 -13h1q-2 1 -6.5 3t-6.5 4z" />
    <glyph glyph-name="question" unicode="?" horiz-adv-x="307" 
d="M289 567q-1 -21 1.5 -59.5t2.5 -50.5q-3 -32 -4 -37q-2 -9 -5.5 -27t-5.5 -29.5t-6.5 -26.5t-10.5 -28l-13 -41q-14 -41 -27 -61q-8 -12 -11 -24q-14 -33 -18 -54q-5 -10 -10 -29t-7 -26l-5 -6q-4 -5 -8 -8q-55 -7 -85 22q-9 9 -9 35q6 62 39 110q12 18 22.5 39.5
t21 48.5t17.5 42q9 19 18.5 56.5t13.5 48.5q12 31 12 72q0 32 -9 81q-10 39 -28 50q-12 -3 -16 -7q-14 -14 -20 -25q-5 -12 -14 -62q1 -18 1.5 -20.5t-6 -20t-7.5 -21.5q-12 -9 -45 -3q-15 4 -31 22q-14 22 -21 35l11 77q1 13 9 22q12 26 49 59q15 13 31 12q20 -1 67 -7
q9 -1 25 -4t22 -4q1 -1 13 -10q13 -10 17 -23q14 -36 15 -38q14 -54 14 -80zM33 552h3q-3 21 2 52q-6 -34 -5 -52zM39 559l2 27q-2 -18 -2 -27zM52 561q0 7 1 22t1 22q-4 -19 -2 -44zM59 533q0 1 -1 2l-1 1q-2 2 -2 4q0 -6 4 -7zM65 580q0 2 1 4l1 3q-2 2 -2 1q2 -2 1 -3
t-1 -3v-2q-1 -1 -1 -5q1 1 1 5zM77 694q-19 -14 -34 -44h2q9 21 32 44zM85 702l-2 -1l-2 -2v1q3 0 6 3l3 3q7 2 9 4q-10 -2 -14 -8zM67 561v-12q0 8 1 12h-1zM85 528q-6 15 -4 37q0 6 1.5 18t1.5 19q-5 -21 -3 -41q-2 -22 4 -33zM87 540q0 13 3 22h-1q-2 -5 -2 -22zM94 691
q1 1 5.5 4t8.5 5q-10 -3 -18 -11q-1 -1 -4.5 -3.5t-5.5 -4.5t-2 -6h2q0 4 2 6.5t6.5 5.5t5.5 4zM104 686l8 5zM122 720q-2 0 -13 -4q8 0 13 4zM144 698v1q-10 -4 -16 -5v-1q10 1 16 5zM179 716q-18 0 -44 -8q4 1 44 8zM98 173l4 13q1 1 1 6h-1v-2l-2 -6v-4l-6 -12
q-2 -8 -4 -22h1q1 3 3 12.5t4 14.5zM112 213l7 14q-7 -12 -8 -14v-1zM125 154v1q0 1 1 2h-1q0 -1 -3 -2v-1v-2q3 3 3 2zM138 147h1q4 5 4 13q0 -5 -5 -13zM143 183h1q8 25 9 26q-4 -5 -10 -26zM143 209q2 7 7.5 20t6.5 17q-2 -5 -8 -17.5t-9 -19.5q-11 -27 -12 -37
q3 6 7 18.5t8 18.5zM165 287q-22 -24 -39 -77q-8 -14 -15 -42q-8 -27 -4 -39l1 1q-3 8 4 42q12 35 15 42q19 51 38 73zM160 142q10 23 10 26h-1q-1 -6 -9 -26zM169 117q-7 -7 -7 -14h1q0 2 1 5l1 2q2 1 4 7zM193 192q5 14 24 60h-1q-3 -8 -11 -28t-12 -31q-2 -4 -21 -62h1
q4 12 10.5 32.5t9.5 28.5zM121 -34q33 -6 41 -29q0 -20 -3 -38q-5 -24 -26 -25q-5 0 -16 0.5t-16 0.5q-7 0 -21 14q-2 4 -4 11t-3 9q6 36 11 46q15 16 37 11zM91 -80l3 12t4 12q-6 -13 -7 -24zM99 -92q1 5 2 15t3 16q0 1 -1 1q0 -5 -2 -15.5t-2 -16.5zM119 -47l-8 -45
q2 9 4.5 24.5t3.5 20.5zM121 -91q-2 -2 -1 -3q0 2 1 3zM143 -70v-4v4z" />
    <glyph glyph-name="at" unicode="@" horiz-adv-x="519" 
d="M485 386q2 -40 4 -48q2 -42 -4 -58q-2 -8 -1 -11q1 -24 -11 -54l-9 -24q-5 -14 -15 -20l-45 -10q-21 1 -33 6.5t-30 25.5l-11 -37q-4 -13 -20 -36q-14 -18 -36 -17q-29 4 -55 18q-6 4 -21 21q-4 6 -7.5 12.5t-7.5 14.5l-6 12l-2 6q-1 4 -4 20t-2.5 19.5t0.5 20.5
q2 33 -1 50q-3 27 10 71q0 2 1.5 6.5t1.5 6.5q1 15 5 28.5t12.5 35t10.5 27.5q1 4 5 8l22 12q27 17 56 3q2 -2 4 -7t3 -7l9 -3q17 -5 23 -23q5 -13 10 -34q23 -14 28 -26q-4 -72 14 -150q1 -7 6 -15q4 1 4 3q23 40 26 71q1 8 2.5 26.5t3.5 28.5q2 1 0.5 12t-1.5 13l-6 57
q-3 37 -27 65q-1 2 -3 5t-3 5q-13 21 -48 43q-15 9 -29 4l-2 -1h-2q-44 -1 -85 -46q-26 -30 -57 -110q-4 -8 -16 -48q-9 -28 -10 -48q0 -6 -2.5 -19.5t-3.5 -21.5q-4 -19 0 -39q1 -7 1 -18q2 -60 25 -105l24 -42q26 -44 81 -61q10 -3 15 -4q14 -4 32 4q7 9 12.5 19
t12.5 25.5t10 21.5q14 6 19 9q21 3 40 -7q6 -17 -2 -33q-6 -9 -8 -23q-2 -18 -13 -32l-38 -22q-23 -11 -56 -16q-14 -2 -18 -2q-13 -1 -25 0q-74 19 -100 35q-37 23 -50 50q-11 24 -37 70q-6 15 -7 19q-18 78 -18 90q-1 11 -1 33l4 60q2 25 6 41l3 32q1 6 2.5 17t3.5 17
q1 10 7 19q7 8 10 21q11 33 41 58q22 19 35 42l9 11q50 37 71 43q25 15 66 15q20 0 25 -2q6 -2 19 -3.5t20 -3.5q4 -1 11.5 -2.5t13.5 -3t11 -3.5q31 -10 48 -37q32 -50 44 -121q1 -9 3 -27.5t3 -27.5zM70 417l-8 -31q-3 -15 -3 -30q2 5 2.5 15t1.5 16l8 30q11 31 27 55
q0 1 -1 1q-13 -19 -27 -56zM74 132q-11 28 -13 38q-4 21 -6 41q-2 21 7 85q-12 -48 -8 -86q2 -21 6 -40q5 -23 14 -38zM72 239v-15h1q0 2 -0.5 7t-0.5 8zM83 154q-7 24 -7 29q-3 20 -2 32h-1q0 -37 10 -61zM88 196q-4 20 -4 46v21q0 2 0.5 6t0.5 6q0 1 0.5 2t0.5 3v3
q-8 -46 2 -87zM98 449q-14 -17 -21 -42q5 16 21 42zM216 -4q1 -1 4 -2h1q1 -1 2 -1l-3 2q-1 0 -4 1zM102 480q5 7 7 8q-2 -1 -7 -8zM97 174l-1 4q-1 4 -1 6.5t1 3.5v-1h1q0 2 -2 0v-6q0 -1 2 -7zM107 455q0 4 3 7q-3 -3 -3 -7zM107 382q2 6 10 22h-1q-5 -10 -9 -22zM103 238
v-16q0 11 1 16h-1zM137 82v1q-3 0 -2.5 -2.5t2.5 -6.5l2 -5q4 -7 14 -21q20 -24 39 -34q-24 18 -34 29q-10 12 -13 18q-1 2 -5 9q0 1 -1 2t-2 3l-1 2q0 4 1 5zM129 38q0 1 -1 0q5 -10 12 -14h1q-9 9 -12 14zM125 20q-9 9 -26 42h-1l13 -23q1 -2 14 -20q16 -20 35 -24
q-2 1 -18 10q-7 5 -17 15zM112 66q2 -2 2 -4l3 -3q-2 4 -5 7zM144 406q2 4 8 12t8 14q-2 -5 -8 -12.5t-8 -13.5zM202 527q-53 -56 -77 -139q-6 -19 -8 -44l8 39q3 13 11 37q20 45 38 71q13 21 28 36zM392 569q0 -2 1.5 -4.5t1.5 -3.5q-2 7 -3 8zM385 548q-21 30 -49 39
q-21 7 -66 1q-1 0 0 -1q45 7 65 0q16 -4 29 -16q4 -4 11 -12t10 -11zM395 548h1q-6 8 -8 13q0 1 -2 3q-2 1 -2 3q0 1 -2 3t-2 4q-1 -2 1 -3v-1l5 -8zM245 423q-6 -6 -7 -15h1q2 8 6 14q1 1 0 1zM230 194q3 -13 13 -20h1q-11 8 -14 20zM229 360q-3 -11 -5 -32h1q1 5 2 16
t3 16l6 33q-1 -5 -3.5 -16t-3.5 -17zM214 362l8 32q-6 -14 -8 -32zM205 392q-7 -26 -7 -45q1 5 3.5 21t4.5 25q6 19 17 42q-8 -13 -18 -43zM227 131q-14 19 -23 38q-2 4 -4.5 11.5t-3.5 9.5q-7 18 -4 25q-4 -9 2 -22l8 -22q11 -25 25 -40zM233 148h1q-20 12 -20 36
q-2 -24 19 -36zM261 137q-22 18 -35 42q-14 24 -15 52q0 1 -1 0q2 -29 15 -53q14 -25 36 -41zM260 406q5 20 17 27h-1q-9 -5 -16 -22q-9 -28 -11 -40q-5 -22 -5 -38q-2 -24 3 -40q-3 33 -2 39q0 16 5 38q6 24 10 36zM273 151q1 -1 1 0l-6 5q-1 0 -1 -1q1 -1 3 -2q1 -1 3 -2z
M300 292q5 27 0 43q-5 19 -2 32q1 0 0 11v10q0 2 -0.5 4t-0.5 3l-14 14q-4 -9 -12 -53q-4 -22 1 -53l10 -66l4 -13q4 11 11 55q0 1 3 13zM330 378q-2 -6 -1 -7q0 6 1 7zM310 220h1l4 9q-1 -1 -2 -4t-3 -5zM311 196q11 11 11 26q-1 -15 -11 -26zM326 201q3 19 2 31h-1
q0 -20 -1 -31l-9 -29q8 14 9 29zM332 314v39q-2 -29 0 -39zM336 287q-3 6 -3 10q0 -5 3 -10zM350 289h1q-4 20 -4 45q0 29 1 44q-5 -48 2 -89zM464 415v-22q0 -4 -0.5 -12t-0.5 -11h1q2 11 0 45zM458 289v-13q1 2 1 9v3v1h-1zM443 447q-1 0 0 -1q3 1 3 -10q0 -1 0.5 -4.5
t0.5 -5.5l2 -22q0 -27 -1 -40q3 16 1 49q0 7 -2 23q0 1 -0.5 4.5t-1.5 5t-2 1.5zM441 415q0 -18 1 -29q1 9 -1 29zM439 351q-3 -21 -3 -22q-2 -14 -5 -20q0 -1 1 -1q3 7 5 21q2 5 2 22zM435 427l2 -9q0 1 -2 9zM412 207q0 -1 1 -1q30 37 31 82q-3 -46 -32 -81zM435 208
l-6 -6l-6 -6q4 2 7 5q2 1 3 3zM439 219h1q13 19 15 46h-1q0 -13 -4 -24q-1 -4 -3 -7.5t-4.5 -7.5t-3.5 -7zM459 234q6 12 8 26q-5 -17 -9 -27q-6 -10 -7 -11l-8 -11q9 9 16 23z" />
    <glyph glyph-name="A" unicode="A" horiz-adv-x="358" 
d="M118 627q5 13 30 57q4 4 8 11t7 11q5 3 21 3q1 0 7.5 -1.5t11.5 -1.5q28 -9 35 -25l6 -6q42 -35 57 -106q3 -11 11 -89q0 -52 3 -77q0 -1 8 -9q10 -10 4 -29q-6 -5 -6 -9q2 -20 5.5 -54.5t6.5 -62.5t8 -52q14 -64 14 -116q0 -3 2 -8t2 -8v-3q1 -9 2 -26t3 -26q1 -5 5 -22
t6 -28q-2 -2 -4 -8q-6 -3 -16 -10q-39 0 -48 -4q-7 -1 -14 0.5t-16 4.5t-13 4q-17 3 -20 17l-9 46q-5 12 -7.5 27t-4 35t-3.5 30q0 20 -3 29q-6 32 -3 45v18q-2 13 -6 57t-8 67q0 1 -1.5 4t-1.5 5q-1 1 -9 1q-4 3 -16 3q-72 -10 -82 -11q-1 -8 -8 -18l-8 -57q-4 -13 -12 -89
q-3 -23 -3 -63q-3 -15 -11 -35q-7 -5 -21 -5q-35 11 -45 23v20q0 12 1.5 32.5t1.5 30.5l9 41q2 16 9 47.5t10 47.5q7 16 3 28q-5 4 -14 8t-14 9q-10 10 -3 18l42 8q6 13 6 23q5 22 20.5 61.5t20.5 56.5q14 56 35 98q3 5 5.5 16.5t3.5 15.5zM54 371q-2 -6 -2 -9q2 4 2 9z
M36 318q4 7 12 30l-6 -15zM62 318q3 12 7 34.5t8 34.5q-4 -12 -9.5 -35t-8.5 -34q-12 -48 -17 -63v-2q8 16 20 65zM339 -9v3v-3zM323 96q0 -16 7 -25q-7 21 -7 25zM304 163v38v-38zM293 -21q1 -3 2.5 -8t3 -8.5t2.5 -5.5h3q-5 7 -11 22zM269 109h-3q0 -28 3 -43q-4 22 0 43z
M261 20q-7 21 -7 37q0 7 -1 20t-1 20l-8 78h-3l8 -79q1 -6 2 -19.5t3 -19.5q0 -25 7 -37zM257 374v-18v18zM254 595h-2q7 -100 12 -132q-1 11 -5.5 58.5t-4.5 73.5zM244 394q-1 2 -3 0q1 -7 2 -22t3 -22q0 -29 3 -40q0 8 -1.5 22t-1.5 21q0 8 -1 21.5t-1 19.5zM220 444
q8 -91 12 -159q0 27 -12 159zM172 583q-12 -22 -41 -107q-21 -80 -25 -97q-2 -2 -2 -5t1 -7.5t1 -7.5q9 2 27.5 2.5t33.5 3t28 9.5v20q-2 13 -4 37.5t-3 33.5q0 51 -2 66v35q0 17 -9 29h-2q0 -1 -1.5 -5t-1.5 -7z" />
    <glyph glyph-name="B" unicode="B" horiz-adv-x="463" 
d="M453 245q0 -11 -2 -29t-2 -25q-1 -18 -5.5 -34t-14 -43t-11.5 -32q-20 -57 -39 -87q-25 -44 -51 -56q-1 0 -2 -1q-17 -17 -41 -19h2q-30 -2 -94 -4q-87 -5 -114 2q-16 3 -32 122q-5 40 -10 116q-9 98 -4.5 289t16.5 224q10 29 49 58q15 12 37 24q25 15 50 25q41 21 79 6
q14 -5 32 -10q38 -7 54 -42q24 -52 7 -113q-4 -15 -20 -57q-1 -4 -1.5 -16t-0.5 -18l11 -7q15 -7 35 -34q30 -38 43 -78q25 -75 27 -98q2 -42 2 -63zM326 52q-5 -6 -10 -13q2 3 6 7.5t4 5.5zM331 644h1q8 17 7 28q0 -14 -8 -28zM321 202q13 64 -6 156q-10 51 -37 103
q-2 3 -6 7.5t-4 5.5q-9 2 -25 -7l-37 -24q-6 -4 -7 -8q-17 -29 -21 -56q-4 -16 -6 -35l-3 -21q3 -23 -2 -60q-6 -65 3 -126q1 -6 1.5 -12.5t1 -14t0.5 -11.5q2 -46 14 -69q8 -14 24 -30l18 -2q26 17 46 55q25 61 37 114q8 33 9 35zM272 -15l-21 -8q-1 0 -4 -0.5t-6 -0.5
h-6.5t-5.5 1t-2 3q1 -6 13 -5q13 1 25 6q25 10 38 34v1q-14 -21 -31 -31zM115 220h1q-4 11 -6 24.5t-2 21t1 25.5t1 22q2 64 5 100q-4 -52 -6 -104q-2 -30 -2 -47q2 -31 8 -42zM128 112v-1l11 -42q8 -19 19 -18q-11 1 -19 23q-2 5 -5.5 18t-5.5 20zM327 711q-4 -17 -4 -45
q3 38 4 45zM311 623q-8 -24 -13 -36q8 15 13 36zM262 731q-1 0 0 -1q17 7 25 4q9 -3 13 -16q6 -13 4 -45q-6 -41 -32 -89q0 -1 1 -1q20 35 30 76q3 25 2 39q0 22 -10 32t-33 1zM167 664q-22 -66 -22 -162q6 10 6 11q4 11 23 26q25 16 31 18q16 7 25 24q16 21 29 62q3 8 5 49
q0 9 -10 10q-37 -6 -61 -37q-9 -1 -26 -1zM133 353h-1q-2 -24 -1 -37q0 -23 3 -34q0 6 -1 17.5t-1 17.5q-1 12 1 36zM129 394v-9q0 1 0.5 4t0.5 5h-1zM325 -3v1q-23 -17 -39 -33h1q7 7 21.5 18.5t16.5 13.5zM333 21q1 0 0 1q-6 -6 -8 -13q3 7 8 12zM364 407q-1 1 -1 0
q7 -4 7 -14q1 10 -6 14zM378 302q4 22 -1 50q0 7 -3.5 17.5t-10.5 5.5q8 3 11 -9.5t3 -24.5q3 -14 1 -39zM378 239q0 1 1 2q-1 11 0 24q-3 -11 -1 -26zM407 198q3 19 3 54q2 29 -2 52q-5 58 -19 93q-8 26 -23 46q3 -6 10 -19.5t10 -20.5q9 -19 14 -46q11 -54 8 -100
q0 -10 -0.5 -29.5t-0.5 -29.5z" />
    <glyph glyph-name="C" unicode="C" horiz-adv-x="426" 
d="M132 -33q-30 17 -51 59q-31 55 -51 136q-11 37 -17 127q-3 41 4 108l9 42q3 17 5 42q1 28 17 54q1 1 29 61q13 3 19 7t4 13l-11 9l24 73q6 4 17 12t18 13t17.5 11t19.5 10q34 11 62 3q5 -1 14 -3t13 -3q10 -2 13 -5q16 -6 20 -11q7 -8 27.5 -20t27.5 -22q2 -2 3 -5t2 -5
q-7 -23 -31 -22q-26 1 -52 6q-3 1 -8.5 3t-9.5 2q-16 -17 -31 -71l-25 -114q0 -4 -2 -6q-12 -90 -16 -108q-8 -56 0 -154l10 -41q2 -7 9 -27.5t10.5 -30t10 -26t14.5 -29.5t17 -26q20 29 43 84q9 20 18 90q13 5 17 8q6 -1 19.5 -4t20.5 -5t15.5 -7.5t14.5 -14.5
q1 -16 2.5 -47.5t3.5 -47.5q1 -7 -1 -21q-7 -40 -28 -77q-5 -13 -16 -26q-17 -17 -38 -17q-19 2 -28 -2q-7 -1 -25 -9q-49 3 -51 3q-45 -4 -98 31zM394 138h-1q1 -4 1 -38q3 18 0 38zM369 33q2 3 2 15h-2v-15zM375 166q4 -46 0 -91q6 45 0 91zM334 42l9 18q-6 -9 -9 -18z
M297 22q-1 0 0 -1q10 10 18 14v1q-8 -4 -18 -14zM265 -15v-1q20 -1 37.5 9.5t23.5 29.5q-18 -40 -61 -38zM179 25h-2q-1 0 0 -1h2q2 0 2 1h-2zM170 -3l-6 3v-1l2 -1q2 -2 3 -2q2 -2 5 -2q-1 2 -3 2q0 1 -1 1zM219 644q-6 -11 -26 -61v-2q5 10 13 30.5t14 31.5q14 30 38 53v1
q-24 -21 -39 -53zM165 101q0 2 -0.5 7.5t-0.5 9.5h-1q1 -3 1 -9v-8q1 -1 1 0zM189 642l-12 -23q-15 -28 -20 -43q5 9 25 52q7 10 12 23q6 14 4 17q1 -4 -0.5 -8.5t-4.5 -10t-4 -7.5zM184 551q1 -13 -9 -29h2q10 13 7 29zM164 543h-1v-1q1 0 1 1zM126 139h-1q2 -6 3 -15.5
t2 -14.5q1 -4 2.5 -12.5t3.5 -12.5q15 -34 25 -45q-14 20 -23 49q-2 5 -4.5 13.5t-3.5 11.5q0 18 -4 26zM81 217q-1 0 -1 -1q-6 -81 56 -193h1h1q-36 75 -43 93q-7 23 -12 50q-3 15 -2 26q-1 3 -1 12v1q1 12 6 10l1 1q-5 2 -6 1z" />
    <glyph glyph-name="D" unicode="D" horiz-adv-x="435" 
d="M430 363q-2 -17 -5 -25q-3 -10 -12.5 -51.5t-19.5 -61.5q-5 -10 -18 -39t-20 -44q-1 -3 -7 -14t-8 -17q-4 -16 -19.5 -41t-18.5 -30q-12 -25 -36 -29l-9 -3l-12 -19q-23 -41 -66 -51l-33 -9q-10 -4 -23 -15h-26t-28 -2q-22 -4 -47 9l-8 8q1 5 4.5 21.5t5.5 26.5
q-12 21 -8 42q-4 19 -5 53.5t-3 49.5q-1 5 -1 18q0 12 2 36.5t3 37.5q0 6 1 9q5 23 7.5 47t3 57.5t1.5 47.5l8 105q5 30 0 60q-2 29 5 54q7 24 4 54q-4 21 -6 39q3 12 16 12q14 -1 35 16q4 4 12 10.5t11 9.5q33 0 50 8q9 4 31 2q47 -6 105 -34q0 2 1 2q1 4 5 4q2 1 6 0
q2 0 5 -3q1 -4 0 -7q0 -3 -2 -3q0 -1 -1 -1l21 -14q16 -9 30 -31q2 -3 20 -31q16 -20 31 -76q3 -10 5 -46l15 -116q0 -10 -2 -26zM67 85h1v57.5t1 55.5q0 65 4 114l3 65q-7 -76 -9 -228v-64zM74 526q9 53 16 120q-9 -53 -16 -120zM70 -48h2v3.5v3v3.5v3q0 -2 -1 -6t-1 -7z
M100 551q3 49 3 50q-3 -25 -3 -50zM94 213l3 63h-1zM98 312q1 13 1 39q-2 -26 -2 -39h1zM176 16q33 51 47 92q21 63 37 115q8 24 14 61q6 45 16 82l6 30t5 30q1 8 -1 54q-5 78 -26 135q-5 18 -27 46q-25 25 -56 22q-11 -13 -13 -41q-1 -8 -2 -22t-2.5 -25.5t-4.5 -21.5
q-1 -3 -1 -25q2 -20 1 -29l-3 -72q-3 -43 -2 -46q3 -13 2 -70.5t-1 -70.5q1 -18 -2 -51t-3 -44q0 -8 -4 -37t-2 -45q1 -5 -1.5 -15t-2.5 -11q-2 -14 -2 -16q2 -37 4 -45q15 8 24 20zM287 165q-4 -10 -6 -22q5 11 6 22zM274 116q-14 -29 -31 -43v-1q21 20 31 44zM298 83
q1 2 13 26.5t10 38.5q0 -14 -10.5 -36.5t-12.5 -28.5zM329 203h-1q-5 -7 -11.5 -21t-8.5 -18q-4 -8 -9 -22t-8 -21q-22 -49 -41 -75q-5 -7 -15 -17l-9 -9q-1 0 -3.5 -2.5t-4.5 -2.5q-5 0 -5 6v-6q4 -1 15 6q6 4 14 15q20 24 25 34q16 29 37 82q16 34 25 51zM355 531
q0 6 0.5 17.5t0.5 17.5q-1 -12 -1 -35zM364 350v-24q0 16 1 24h-1zM381 483q6 42 -5 89q-4 22 -12 42q0 2 -1 3t-1 2l-2 6l-1 1h-1q-6 -1 -4 -5h1q3 3 5 2q0 -2 1 -3l1 -2v-2q1 -2 2.5 -5.5t1.5 -4.5q3 -6 5 -16q7 -27 8 -35q4 -24 2 -72zM378 332q7 26 5 63h1h-1v2v-2
q-1 1 -2 1q1 0 1 -0.5t1 -0.5q0 -25 -5 -63z" />
    <glyph glyph-name="E" unicode="E" horiz-adv-x="290" 
d="M36 -43q-6 0 -7.5 6.5t3.5 8.5q-1 1 -1 3q-6 0 -7 7q-2 88 -5 137l3 7q-6 34 -7 54q-2 19 0 27q1 1 1 2l3 3v3q-1 5 3 9q0 2 -0.5 5.5t-0.5 4.5q-1 11 1.5 32t2.5 32t-1.5 35t-0.5 43.5t8 36.5q6 13 8 17v6q2 21 -1 32q-2 14 -2 21q-1 9 4 28q2 22 0 28q-6 19 -9 25
q-4 17 -2 54q0 12 3 29q0 14 7 21q10 13 35 6q1 1 3 1q14 2 22 2q1 0 4.5 1.5t5.5 1.5q3 2 5 -2h14q4 0 3 -4l6 -2l48 3q3 0 3 -3h5q6 2 6 -5q25 1 58 -4q15 -3 24 -20q0 -17 -15 -21q-4 -2 -13.5 -4t-12.5 -3q-41 -6 -55 -19q0 -8 -1 -15q0 -3 0.5 -7t0.5 -6q-3 -31 -5 -96
q-1 -9 -1 -26v-18q-4 -18 -4.5 -52.5t-1.5 -44.5q-2 -15 4 -24q17 -4 46 -4q23 0 35 -16q4 -19 -14 -31q-10 -4 -34 -5t-36 -7q-3 -6 -1.5 -22.5t1.5 -21.5q0 -3 0.5 -14.5t-1.5 -15.5q-2 -38 -1 -58v-43.5t1 -44.5q6 -2 18.5 -4.5l17.5 -3.5q11 1 32 1q4 0 5 -1h25
q7 0 7 -7v-7q7 -9 -2 -20q-8 -8 -33 -15l-11 -2q-5 -5 -8 -5l-29 -2q-1 0 -3 -1.5t-4 -1.5q-50 -1 -99 -6h-2q-29 -2 -42 -5q-9 -1 -9 7zM117 224q4 -14 -1 -34q5 13 3 34q0 1 -1 1t-1 -1zM116 21q1 -1 1 -8v1v7h-1zM87 161q2 30 5 45q7 52 4 84h-1q3 -32 -4 -88
q-3 -13 -5 -42q-4 -20 0 -42v1v10t1 11v21zM70 17h-1q-2 -2 -2 -4q0 -6 2 -10v-4l1 1v3q-2 6 0 14zM98 503v1v-1q0 -1 -1 -2q-1 -2 -1 -3v-4l2 -7q0 1 -0.5 4t-0.5 4v2q1 2 1 6zM62 199l-2 -21q1 3 1.5 6.5t1 8t0.5 6.5h-1zM99 391q1 6 2 19t2 19q2 26 2 39h-1q0 -20 -3 -39
q-3 -36 -3 -38h1zM119 369q6 40 6 99q0 32 -1 47q0 3 -0.5 7.5t-1 8.5t-1.5 8q0 8 -5 8q2 0 5 -10v-11q2 -5 2 -22q2 -31 1 -46q0 -37 -5 -89zM87 664h1h-1zM119 260h1q-1 10 0 22h-1q-4 -13 0 -22z" />
    <glyph glyph-name="F" unicode="F" horiz-adv-x="293" 
d="M27 728q2 0 8 1.5t10 1.5q5 0 15 -1t14 -1q30 0 51 -12l7 -3q3 0 10.5 0.5t11.5 0.5q3 0 4 -1h13q27 1 77 1h4h3h16.5t21 -0.5t16.5 -2.5q14 -3 21 -16q1 -1 7 -1q9 -1 9 -10q0 -19 -30 -25q-3 -2 -7 -7t-5 -6q-5 0 -14 0.5t-12 0.5q-16 2 -21 1q-29 -5 -78 9
q-16 5 -29 2q-6 -17 -4 -45q5 -15 3 -35q-1 -11 -4 -128q0 -3 0.5 -6.5t0.5 -4.5q9 -8 22 -6q17 1 47 -5q23 -6 26 -23q-5 -8 -12.5 -11.5t-17.5 -6t-15 -4.5q-27 -6 -51 0q0 -1 -1.5 -8.5t-1.5 -11.5q-5 -57 0 -131q2 -14 2 -41.5t1 -40.5q1 -8 3 -48t9 -61q8 -27 1 -45
q-8 -8 -19 -13q-8 -13 -20 -28q-6 -1 -11 -1t-10 1t-8.5 1.5t-9 2.5t-7.5 3l-8 4l-8 4q-9 5 -14 22q-10 33 -18 71q-8 36 -4 58q0 11 -1 30.5t-1 29.5q0 53 -1 59q-4 29 -2 63q4 30 2.5 81.5t0.5 80.5q6 79 3 111q-1 7 0 21.5t1 18.5q0 6 -0.5 19.5t-0.5 21.5q-2 45 5 69z
M70 303q4 -10 3 -25h1q3 11 -2 26h-1q-1 0 -1 -1zM81 487l-3 -43h1l3 43h-1zM87 604v-16h1v16q0 1 -1 0zM73 569h-1q0 -1 -3 -52q4 20 4 52zM275 696h-44q11 0 29 -2h1zM48 460l4 52q4 48 4 108h-1q-2 -71 -5 -106q-2 -34 -5 -51q-1 -9 -3 -26.5t-3 -27.5q0 -1 1 -1
q2 11 4.5 28.5t3.5 23.5zM56 100l2 -24q2 4 -1 26v27q-2 38 -2 54q0 8 -0.5 25t-0.5 27q0 34 -1 53q0 1 -1 1q-1 -17 1 -54q0 -36 1 -53q0 -10 0.5 -28t0.5 -27q1 -8 1 -27zM70 134h2q0 6 -2 16.5t-2 14.5q0 10 -2 28l-2 59h-1q0 -18 2 -60l2 -28zM102 682q5 -1 18 -1
q-5 1 -18 1zM109 542v-30q0 -2 2 0q1 14 0 30q0 1 -1 1t-1 -1zM100 119h1q0 5 -8 54l-3 27l-2 13q0 2 -0.5 4.5t-0.5 3.5v9q1 0 1 1q-3 1 -3 -3t1 -6l4 -35q5 -42 10 -68zM210 674q-23 4 -55 12q-4 1 -9.5 3t-10 3.5t-9.5 1.5q-2 0 -3 0.5t-3 0.5h-17v-1h11h5q15 -1 38 -10
q6 -1 17 -4t19 -4.5t17 -1.5z" />
    <glyph glyph-name="G" unicode="G" horiz-adv-x="374" 
d="M-2 360q-1 33 7 75q5 13 5 22q1 16 7.5 45t7.5 41q0 3 7 18q5 11 6 19q11 51 56 110q22 29 51 34q8 2 13 5q18 7 35 1q30 -11 63 -14q27 -4 42 -23q20 -20 30 -37q20 -25 26 -57q14 -58 9 -108l-2 -8q0 -3 -5 -8l-20 -8q-36 11 -45 22q-4 4 -10 10.5t-11 11.5t-10 9
q-4 3 -5 8q3 52 1 62q-1 11 -6 29t-6 24q-7 4 -14 -3q-18 -13 -32 -39q-20 -28 -35 -83q-8 -39 -16 -109l-4 -25q0 -2 -2.5 -9.5t-1.5 -11.5q2 -8 -1 -53q-5 -67 1 -143q-1 -11 0.5 -22.5t4.5 -26t4 -22.5q4 -34 40 -67q9 -1 12 7q27 51 33 86q2 8 6 22t5 19q18 47 18 113
q-6 10 -27 12q-28 3 -37 28q6 8 11.5 9.5t37.5 5.5q6 -1 16 -2t16 -3l27 -9q19 -9 46 -14q16 -9 21 -32q9 -45 -3 -106q-3 -9 -3 -11q-1 -18 -6 -35t-14 -41.5t-12 -33.5q-1 -1 -1 -3q-13 -52 -53 -87q-29 -15 -63 3l-24 8q-40 7 -76 29q-22 10 -30 34q0 2 -4 6
q-12 8 -27 32q-2 6 -10 23t-12 28q-6 14 -7 23q-3 19 -13 51q-15 54 -15 107q2 36 -2 62zM351 273q0 -21 -2 -59q-5 -32 -6 -60h1q2 10 3.5 30t2.5 30q0 6 1 27t0 32zM330 238q3 -2 3 -30l-4 -28q-5 -27 -15 -56q11 26 16 63q4 15 4 32q0 12 -1 15q0 4 -3 4zM321 281h-1v-14
h1v14zM310 181q0 -6 -1 -8q1 2 1 8zM299 70l6 14q-4 -6 -6 -14zM251 62q39 64 42 110h-1q-3 -40 -41 -110zM221 15h2l3 4l3 3q1 1 0 1l-4 -3zM142 58l-19 18l19 -19v1zM132 29q-13 13 -18 20q-21 25 -22 45v-1q0 -21 19 -43q5 -7 18 -20l19 -19l1 1q-2 3 -5 6t-6.5 6t-5.5 5
zM138 575h1q2 2 4 8v1q-1 -2 -3 -5t-2 -4zM209 668q-39 -19 -50 -57h1q6 16 17 29q9 13 26 24q8 5 35 12h5q5 1 10.5 1h11t9 -1.5t2.5 -3.5q1 2 -1 3.5t-6.5 2t-8 0.5h-8.5h-5q-22 0 -38 -10zM176 703q-4 0 -7 -4q3 4 7 4zM169 668q-13 -13 -19 -24q-19 -22 -28 -54h1
q14 35 24 48l15 21q5 7 10 10q9 11 14 9v1q-2 2 -5 0.5t-5 -3t-4 -5t-3 -3.5zM122 625v-1q10 14 15 23q1 1 3 4t4 5q0 1 1.5 3t1.5 4h-2l1 -1q0 -2 -2 -5t-2 -4q-4 -4 -7 -10q-2 -3 -6.5 -8.5t-6.5 -9.5zM88 116v1q-7 -13 2 -14q-6 6 -2 13zM90 287q-3 -21 1 -38h1l-3 20
q1 7 1 18zM62 310q-6 -25 -1 -59q1 -28 8 -61h1q-8 53 -8 61q-2 19 -1 31v15v7l1 4q1 0 1 -4q0 5 -1 6zM64 354h-1q0 -7 -2 -21h1q2 5 2 21zM37 374q-1 1 -1.5 0.5t-0.5 -2.5h1q0 -22 -1 -25q0 -4 -0.5 -12t-0.5 -12q0 -37 2 -48q0 -9 2 -26t2 -22q6 -35 11 -49h1
q0 3 -4 18.5t-5 24.5q-1 7 -3 22t-3 22q-3 30 -1 89v12q0 2 0.5 4t0.5 4z" />
    <glyph glyph-name="H" unicode="H" horiz-adv-x="333" 
d="M277 644q11 -4 22.5 -18.5t14.5 -17.5q1 -5 10 -84q1 -9 -2 -100q0 -8 1 -31.5t0 -36.5q-2 -77 -5 -118q-2 -28 1 -42v-9.5v-10v-8.5q-4 -49 3 -97q2 -12 0 -23q-1 -22 -25 -22q-19 0 -43 13q-17 9 -28 19q-17 11 -17 27l-3 40q0 20 -1 28q0 3 -0.5 6.5t-0.5 4.5
q3 13 4 26.5t0 33.5t-1 26q-1 46 0 89q-6 10 -21 8l-58 -10q-7 -8 -5 -25q5 -29 0 -65q-4 -59 0 -118q0 -8 -0.5 -37.5t1.5 -39.5q2 -5 0.5 -40.5t-1.5 -41.5q1 -3 -1 -13q-12 -13 -32 -10q-48 6 -70 26q-10 38 -9 60q2 21 -2 36q-4 17 -2 80q0 43 -1 48t2 56v49q-2 12 1 69
q7 107 7 125q0 30 2 83t2 71q0 10 -2 59q0 1 3 16q14 9 29 3q13 -6 48 -8q25 -1 42 -25l-3 -49q-8 -110 -7 -134q0 -37 -2 -117q0 -1 1 -5q4 -6 15 -4q37 6 67 28q3 16 5 53l6 105q2 34 -2 50q-2 18 9 25q16 3 48 -3zM45 684q-3 -45 -3 -89q0 -58 1 -89h1q0 16 -0.5 45
t-0.5 44q0 27 2 89zM40 467h-1q1 -7 1 -19q0 -5 -2 -19h1q3 14 1 38zM31 50v1q-6 18 -4 48v52q2 70 2 105h-1l-2 -108q0 -34 -1 -53q0 -32 6 -45zM39 207v6.5v8.5v7h-1q0 -20 1 -22zM40 -4q-2 16 2 23l-1 1v-1q-5 -13 -1 -23zM45 106h1q-2 24 -2 36v12v13.5v11.5
q-2 -26 -1 -38q0 -28 2 -35zM66 549q0 7 2 20t3 19q-3 -13 -5 -39t-2 -40q2 30 2 40zM108 257q3 23 3 71h-1q0 -11 -2 -71zM221 336h1q1 11 1 31h-1q0 -6 -0.5 -16t-0.5 -15zM238 513q2 8 4 22t3 22h-1l-8 -42q-3 -16 -5 -44q-5 -50 -4 -88h1q0 47 4 88q2 19 6 42zM242 233
v-58q3 39 -3 118h-1q2 -10 4 -60zM247 425q2 6 3.5 17t2.5 17h-1q-2 -5 -3 -16t-2 -16q-3 -17 -3 -34q0 1 3 32zM254 507v-9q0 8 1 9h-1zM253 151l2 39q0 26 1 38h-1q0 -25 -1 -38q0 -6 -0.5 -19t-0.5 -20zM282 115h1q0 1 -1 3v6q-4 -4 0 -9zM298 328h1q0 13 -1 20
q1 -10 0 -20zM302 381q1 23 1 65v31l1 17q1 16 -1 16q-1 -11 -1 -31v-33v-65z" />
    <glyph glyph-name="I" unicode="I" horiz-adv-x="172" 
d="M20 544q-2 100 -8 126v18q20 7 53 -1q25 -5 54 -16q13 -3 19 -19q10 -52 10 -62v-29v-30q0 -12 -0.5 -25.5t-1.5 -29.5t-1 -25q0 -62 1 -70q1 -11 1 -95q2 -51 5 -79q0 -3 1 -9t0 -10q-3 -20 6 -76q6 -56 7 -77q1 -7 -4 -21q-25 -14 -32 -23q-5 -8 -21 -10q-5 0 -16 -1
t-17 -1l-18 9q-33 11 -38 57q-2 12 -3.5 36.5t-2.5 36.5v25q0 6 1 20t0.5 24.5t-2.5 19.5q-1 2 -1 9q3 67 5 197q2 45 1 68q-2 6 0 31.5t2 31.5zM83 23q0 -1 0.5 -2t0.5 -2q0 2 -1 3v1zM61 26h1q-5 5 -6 8h-1q3 -7 6 -8zM89 586v11v-11zM82 462q-2 -48 -2 -72l3 72
q2 22 5 34q0 3 2 17q3 15 3 18q-4 -11 -6 -34q-3 -10 -5 -35zM65 138h-1q-3 -34 0 -69h1q-1 35 0 69zM64 336h-1q3 -17 1 -50q2 13 0 50zM51 72q-3 60 -3 63q0 18 2 64h-1q0 -8 -1 -21t-1.5 -24t-0.5 -21q2 -10 3 -30.5t2 -30.5zM56 364q-1 11 -1 31q0 1 -1 1t-1 -1
q0 -5 0.5 -10t1.5 -11t1 -10zM53 604h-1q6 -46 6 -91q1 -31 -1 -89q9 93 -4 180z" />
    <glyph glyph-name="J" unicode="J" horiz-adv-x="367" 
d="M211 -53q-52 -6 -72 -4q-72 6 -99 71l-15 51q-4 7 -1 13q1 4 3 26t5 34q3 15 12 50q18 8 24.5 8t38.5 -9q4 -3 10 -10t8 -9q-2 -17 -4 -20q-13 -34 -13 -88q0 -2 8 -32q11 -8 27 -3q32 22 46 64q2 5 4 13.5t3 11.5q2 5 4.5 16t3.5 14q0 2 1.5 7.5t0.5 8.5q-4 20 2 51
q9 83 13 118v22v22l8 126v83q0 1 1 30.5t-1 29.5q-2 10 -2.5 29.5t-1.5 29.5q4 6 15 12t13 8q35 5 79 -24q12 -12 8 -27q-6 -6 -13 -16q0 -8 1 -11q7 -70 8 -85q-2 -36 0 -71v-20v-23.5v-19.5q5 -44 1 -76q-1 -13 0.5 -37.5t1.5 -34.5v-14q-5 -33 1 -62q5 -34 -3 -57v-9
q-2 -42 -6 -49q4 -19 -13 -54q-3 -11 -11 -18q-20 -23 -44 -44q-20 -17 -52 -22zM316 405h-1q-2 -66 -5 -99q-2 -32 -2 -49q-2 -5 -2.5 -14t-0.5 -10q0 -10 -2 -26h1q2 5 2 26l3 24q0 25 3 49q2 16 4 99zM64 131h-1q-4 -6 -2 -14q0 9 3 14zM78 113q6 16 10 23v2
q-16 -24 -14 -51h1l1 11q0 10 2 15zM85 55h1q-2 18 -1 27q0 5 2 15t2 12q4 20 17 51h-1q-14 -33 -18 -54q-7 -35 -2 -51zM295 338l-1 -1v-16t-1 -16q2 -17 -3 -34h1q3 11 3 34q1 11 1 33zM292 370h-1q0 -13 -1 -16q2 6 2 16zM274 122l-8 -14q-4 -5 -5 -12q4 5 8 14t6 12h-1z
M246 12q3 0 6 3h1q-5 -3 -7 -3zM268 297q-2 -7 0 -12h1q-2 9 0 12h-1zM233 -26l-1 -1l13 10q-7 -3 -12 -9zM275 524h-1v-2l1 -2v4zM276 631q1 -8 -2 -41q0 -4 -2 -18.5t-2 -21.5q2 8 5 41t1 40zM272 660q0 -2 1 -5q1 -1 1 -2q0 1 -1 2q-1 3 -1 5zM258 494v-11v-9
q-2 -4 -4 -20h1q2 5 4 24v11v6q-2 0 -3 -1v-1h1zM249 674q2 -1 3 -4.5t1 -8.5v-6v-20v-40q-1 -27 -1 -81h1q1 31 1 90q0 8 -0.5 22t-0.5 22q1 10 0 20q0 6 -4 7v-1zM185 -7v-1q1 -1 6 1l10 3q3 1 22 12h-1q-4 -2 -16 -9l-9 -3l-3 -1q-2 -1 -5 -1l-3 -1h-1zM137 -23v-1
q23 -9 49 -3t43 26v1q-19 -19 -43 -26q-26 -6 -49 3z" />
    <glyph glyph-name="K" unicode="K" horiz-adv-x="364" 
d="M136 552q6 -3 13 4q7 6 46 39.5t60 51.5q6 5 27 31q35 2 61 -26q1 -7 1 -19q-9 -12 -29.5 -28.5t-23.5 -19.5l-34 -25q-6 -6 -18.5 -16.5t-16.5 -14.5q-2 -2 -5 -5.5t-6 -6.5t-6 -5q4 -4 8.5 -6.5t9.5 -5t8 -4.5q11 -9 24 -16q16 -10 27 -33q15 -31 25 -98q8 -72 8 -80
q4 -40 3 -78q0 -11 1.5 -30t1.5 -23q3 -9 3 -17q-6 -36 10 -69q8 -17 -14 -41q-47 -7 -82 9q-36 19 -32 52q2 29 -3 47q-2 4 -4 20q0 32 -4 47q-7 33 -3 66q0 38 -1 41q-1 7 -1 18q0 5 -2 35q-6 34 -6 52q-1 7 -17 50q-18 -22 -23 -27q-3 -21 -5 -66q-1 -14 -3 -41t-4 -41
q0 -9 0.5 -25t0.5 -25q-5 -44 3 -87v-24v-10.5t1 -9.5q2 -16 2 -24q-4 -27 7 -57q0 -1 1.5 -8.5t1.5 -11.5q1 -30 -28 -30q-49 0 -74 14q-12 9 -19 16q-8 18 -6 45q8 52 -1 100q-1 6 0 13q-1 15 -1 44v45q0 12 -1 36t-1 37q0 4 3 67v38q-1 8 0 15q1 34 0 68q0 6 1.5 38
t1.5 49q-1 14 0.5 39t-0.5 38q0 4 2 18q5 6 14.5 6t16.5 1l8 10q12 14 26 8q15 -3 36 -13q24 -11 17 -37q-4 -18 -3 -52t-3 -52zM43 546h1q2 34 2 50q0 20 2 27q1 7 1 26h-1q-2 -6 -1 -14.5t-1 -11.5q-1 -11 -1 -27q-2 -42 -2 -50zM62 323v-5v5zM57 647q-5 -5 -3 -11
q0 8 3 11zM54 589q2 24 5 32q-6 -17 -5 -32zM43 152q-2 70 -2 100v51q2 32 2 50l-1 -1h1q-1 -3 -1 -11q0 -3 -0.5 -7t-0.5 -7q0 -16 -1 -24q-2 -25 0 -51q-2 -59 3 -100zM53 162q6 58 1 122v-19.5v-22.5v-19q0 -10 -0.5 -30.5t-0.5 -30.5zM78 465q0 91 4 136q-8 -73 -4 -136
zM55 9v1q-3 0 -2 4q-3 -5 2 -5zM70 243l2 29q-2 -18 -2 -29zM78 329q0 6 1 7q-1 -1 -1 -7zM86 130q0 6 -3 8q3 -3 3 -8zM93 53q3 10 1 25q0 10 -2 26q0 -8 2 -26q0 -5 -0.5 -13t-0.5 -12zM109 47q5 33 3 77q0 32 -7 76h-1q7 -47 7 -77q0 -26 -2 -76zM295 260v-23q0 -1 3 -22
q0 -1 1 0q-3 20 -4 24q2 4 2 10q0 1 -1 3t-1 3q0 5 2 2q0 1 -1 1zM285 199h-1q2 -3 2 -9.5v-8.5q2 4 -1 18zM277 327q11 -51 5 -101q8 40 -5 101zM238 92h-1q1 -3 4 -6zM305 638q3 1 5 3q-2 -2 -5 -3zM223 191v-10q0 -1 1 0q-1 2 -1 10zM225 207q-3 21 -3 41v20q2 14 2 19
h-1q-1 -7 -1 -19q-2 -10 0 -21q-1 -21 3 -40zM232 432h-1q0 -18 6 -31q-6 17 -5 31zM225 462h-1l4 -6q1 0 1 1q-4 1 -4 5zM223 386l-9 41q-10 38 -33 48v-1q25 -10 34 -53l3 -18t4 -18q2 -31 4 -38q0 6 -0.5 12.5t-1.5 14.5t-1 12zM220 564q1 1 0 1q-13 -7 -15 -8v-1
q2 2 7.5 4.5t7.5 3.5zM237 594q-17 -8 -29 -17q-16 -7 -19 -14q4 5 23 15q2 1 25 16zM252 612q-4 0 -9 -5q4 4 9 5zM211 593q-29 -20 -39 -32q29 23 41 32q35 30 38 33q0 1 -1 1q-10 -13 -39 -34z" />
    <glyph glyph-name="L" unicode="L" horiz-adv-x="264" 
d="M22 304q2 56 0 76q-1 7 2 40q12 151 16 187q3 28 -5 84q-2 20 7 28q32 -2 52 -2q25 0 50 -18q12 -12 10 -35l-14 -202q-1 -8 0 -25t1 -23v-34q0 -6 1 -19t1 -20q0 -1 0.5 -3t0.5 -3q-4 -9 -3 -32t0 -32q-3 -18 2 -40q1 -6 -0.5 -18t-1.5 -16q-2 -60 0 -80q1 -3 -2 -42
q-1 -17 -1 -50q10 -7 31 0q25 9 56 -4q19 -7 27 -25q-3 -21 -31 -26q-13 -2 -36.5 -4.5t-30.5 -3.5q-28 -2 -37 -6q-24 -9 -48.5 0.5t-35.5 32.5q-3 39 -5 113q-2 2 -2 7v89l-4 75q-1 15 0 31zM136 -11v-1q2 2 3 2q0 -1 1 1l1 2q-1 0 -1 -1l-2 -1q0 -2 -2 -2zM108 81l-2 -1
q2 0 2 1zM122 52l-2 -34q0 -18 4 -20q-3 3 -4 7.5t0 10.5t1 7q1 11 1 29zM127 543q-2 -16 -6.5 -45t-6.5 -40q9 33 14 84q4 23 10 88h-1q-8 -77 -10 -87zM90 21q0 -8 1 -10h1q0 2 -2 10zM99 331v13q0 -2 -0.5 -6.5t-0.5 -6.5h1zM56 -5h1q-13 18 -13 49q2 49 2 59h-1
q2 -8 0.5 -31t-1.5 -31q0 -33 12 -46zM60 -21h4h-4zM76 317v24q-2 -31 3 -51zM66 67v2v-2zM65 9q-5 9 -4.5 22.5t-0.5 22.5h-1q2 -8 0.5 -15.5t-0.5 -16t6 -13.5zM80 627q0 -5 -1 -14t-1 -13l3 27h-1zM78 588q-2 -12 -4 -36.5t-3 -36.5h1q4 24 6 73zM68 382q-3 -6 0 -14
q-2 8 0 14zM66 476q0 -4 2 -14q-2 10 -2 14zM56 240q4 30 2 73q-2 35 -6 72h-1q5 -41 6 -74q1 -23 -1 -71zM58 588q-4 -37 -6 -74q2 13 4 38.5t3 35.5q5 40 6 75h-1q-2 -13 -3.5 -37.5t-2.5 -37.5zM42 485q-1 -9 -1 -29q1 11 1 29z" />
    <glyph glyph-name="M" unicode="M" horiz-adv-x="508" 
d="M476 -43q-34 -6 -49 9q-8 9 -37 29q-17 11 -22 22q2 23 -4 91v5q0 22 0.5 66.5t0.5 68.5q-3 50 -4 60q-7 59 -4 82q1 7 -0.5 21t-1.5 20q-1 28 -1 89q-24 -27 -54 -124q0 -4 1.5 -10t1.5 -9q-2 -15 -12.5 -22t-22.5 -1q-32 13 -46 29q-8 9 -14 23q-4 18 -15 35
q-7 11 -17.5 32.5t-14.5 28.5l-7 9q-1 -2 -2 -3l-1 -1q-11 -65 -22 -274q-1 -20 -0.5 -30t2 -29.5t1.5 -30.5q0 -2 0.5 -5.5t0.5 -5.5q0 -53 2 -68q2 -11 6.5 -29.5t5.5 -24.5q1 -7 5 -13q2 -9 -3 -15.5t-14 -6.5q-41 2 -60 5q-23 3 -39 31q0 45 -1 69l-4 58q0 2 -0.5 7
t-0.5 9v26.5t-0.5 31.5t-2.5 26v83q-2 48 -5 71q0 2 -0.5 4t-0.5 4l2 115q0 14 -1 22q-3 38 5 87q5 18 7 52q7 10 20 7q10 -6 15 -7q4 -1 10.5 -4t12 -5t10.5 -3q34 -9 52 -37q34 -52 37 -58q16 -29 35 -68q9 -14 22 -30l7 8q5 16 18.5 42t17.5 36q11 29 13 33q9 18 29 52
l20 30q2 3 5 10t5 10q13 6 36 -2q12 -5 17 -7.5t12.5 -9t10.5 -15.5q14 -60 9 -141q-4 -59 7 -123q2 -22 4 -62t3 -56q1 -11 1.5 -37.5t3.5 -41.5q2 -16 4 -45.5t3 -41.5q0 -4 2 -14q6 -30 5 -46q0 -6 4 -13q5 -23 4 -36q0 -4 1.5 -13.5t1.5 -11.5q-1 -5 -5 -11
q-8 -8 -11 -8zM38 455q-2 22 -2 30h-1q0 -19 3 -30zM40 565q1 31 9 64q0 1 -1 1q-8 -32 -9 -63q-5 -36 -1 -65q0 49 2 63zM52 473q2 16 2 73h-1q1 -14 0 -39.5t-1 -33.5zM68 576v6h-1v-6h1zM58 133h1v47q0 31 1 46q0 16 0.5 46t0.5 46l-2 -5l1 2v-2v-5v-11q0 -16 -1 -24v-45
q-1 -16 -1 -47v-48zM68 98v1q-2 9 -1 11h-1q-2 -6 2 -12zM71 174h1q2 13 2 55zM77 251q0 2 -2 12h-1v-5q1 -5 3 -7zM89 477l-1 -1q2 -6 1 -8q1 4 0 9zM81 209v20h-1q0 -13 1 -20zM88 398q3 21 0 41h-1q3 -13 1 -41zM104 403h1q1 7 4 49q0 8 0.5 24.5t0.5 24.5l-2 -49zM97 34
h1q0 2 -1.5 8t-1.5 10v16q1 12 1 34h-1q0 -25 -1 -36q0 -24 3 -32zM110 348q1 12 0 22v-21v-1zM309 523q-1 0 -1 -0.5t-1 -0.5h1zM287 485h1q0 3 1.5 6.5t4 8t3.5 6.5v1q-11 -18 -10 -22zM346 543q-17 -17 -35 -48q-12 -19 -15 -26q-2 -2 -3 -6.5t-2 -6.5q-5 -8 -3 -13
q0 4 2 9l2 5q3 11 7 15l14 25q12 21 33 46zM406 560v10l-1 -1v-8q0 -1 1 -1zM386 204l-2 8q-4 -10 -1 -18v12q0 4 1 4v1v-1q1 -1 1 -6h1zM383 240q-2 -14 -1 -21q1 7 1 21zM391 613v-76l-2 -37l-3 -39q0 -1 1 -1q1 6 1.5 12t1 13.5t0.5 11.5l2 39q1 12 -1 77zM382 259
q1 17 1 51t-1 51v-51v-51zM384 38q-5 24 -5 55v55q1 -19 -1 -56q0 -39 6 -54zM396 291v-24q0 4 0.5 12.5t0.5 11.5h-1zM404 508h1q-3 23 -2 38q-3 -21 1 -38zM395 228h1q0 9 1 11v1q-2 -10 -2 -12zM394 143v-1v1zM395 89q-1 16 0 32h-1q-3 -18 1 -32zM425 272q-1 -8 -1 -24
q1 8 1 24zM427 457h1q3 14 5 61q0 41 -1 61h-1q1 -20 1 -61q-2 -41 -5 -61zM426 -7q-9 5 -11 17h-1q1 -12 12 -17zM440 254q1 19 1 55q0 5 0.5 14t0.5 14q0 29 2 29q-2 0 -2 -2v-7t-1 -7v-32q-1 -23 -1 -64zM439 204q1 7 1 18q-1 -7 -1 -18z" />
    <glyph glyph-name="N" unicode="N" horiz-adv-x="383" 
d="M376 56q-4 -28 -31 -33q-16 -2 -24 -5q-22 6 -45 27q-13 15 -16 26l-21 54q-4 7 -8.5 20t-7.5 20q-4 12 -10.5 32t-12 36.5t-9.5 32.5q-2 7 -34 79l-12 12q-7 -111 -4 -139q1 -3 1 -12q0 -68 8 -146v-14q-2 -50 1 -69v-3v-4.5v-4.5l-24 -25q-10 -4 -22 -6q-50 10 -69 58
q0 12 1 20q0 33 -2 43v16q3 34 -3 103v9v53t-1 53q-3 27 -5 83v18q-2 30 -2 46q0 8 0.5 25t0.5 27q2 44 0 59q-2 23 3 37q13 13 34 3q61 -27 73 -36q11 -18 10 -34q-4 -17 8 -38q19 -39 57 -113q24 -51 50 -99q1 7 1 15q0 11 -2 35.5t-3 38.5v25l8 130q3 45 -3 88l-2 6v97
q0 1 2 9l14 7l53 -23q16 -7 21 -23q10 -18 14 -40q2 -13 4 -66v-149q0 -17 -1 -26q-5 -77 4 -166q0 -1 1.5 -8.5t1.5 -11.5q-3 -36 4 -100q1 -16 -1 -49zM74 441h-1q2 -25 -2 -43h2q1 15 1 43zM71 482v1q0 -2 -0.5 -6.5t-0.5 -6.5h1v12zM59 360q0 14 -2 48q0 7 -0.5 23.5
t-0.5 24.5l-2 47v48h-1v-48q1 -15 1 -49q2 -30 2 -47zM65 340h-1q3 -21 4 -25zM60 48q0 14 -0.5 41t-0.5 41q0 22 3 41q0 3 0.5 9t0.5 10q0 10 -3 14q-1 1 -1 0q2 -5 2.5 -11t-0.5 -14t-1 -12q-2 -30 -2 -40q0 -61 2 -79zM76 363q-6 14 -3 23h-2q-2 -14 5 -23zM67 -26
q-2 6 -2 8q0 -6 2 -8zM79 236q0 19 1 28q-1 -9 -1 -28zM76 123l2 34h-1q0 -5 -0.5 -16.5t-0.5 -17.5zM79 184q1 3 1 15q-1 -3 -1 -15zM86 80q1 9 1 27q-1 -9 -1 -27zM91 131q10 44 5 94h-1q2 -23 0 -47q0 -26 -4 -47zM232 282h-1q5 -21 15 -36q-10 16 -14 36zM201 315
q21 -63 48 -96v1q-3 5 -8.5 14t-10 16.5t-8.5 14.5q-2 3 -21 50zM251 180q1 0 1 1q-6 9 -15 25.5t-15 24.5q13 -28 29 -51zM295 482q1 57 0 114q0 -1 -0.5 -57t0.5 -57zM305 167q4 31 4 95q0 46 -6 94v-1q5 -52 5 -95q0 -46 -3 -93zM331 417q0 -2 -3 -29v-1q3 11 3 30z
M325 295v-14h1q0 2 -0.5 7t-0.5 7zM331 641l2 -2v-2v-3v-8v-16q0 9 1 16v14q0 1 -1 2q-1 -1 -2 -1zM327 526q2 16 2 68q-2 -57 -2 -68zM319 139q3 21 3 44h-1q0 -7 -0.5 -14t-1.5 -15.5t-1 -13.5l-4 -44q3 16 5 43zM326 218q1 17 -1 48q1 -15 1 -48zM342 635q-2 -13 -2 -58
v-58h2v58v58zM339 452q1 5 1 43q-2 -29 -1 -43zM335 175q2 7 4 30h-1l-3 -30q0 -3 -1.5 -13t-1.5 -16q1 2 3 29zM340 247q-4 4 -1 6q0 1 -1 1q-2 -7 2 -7z" />
    <glyph glyph-name="O" unicode="O" horiz-adv-x="387" 
d="M149 -43l-52 36q-4 5 -8 12.5t-6 10.5q-23 33 -40 92q-16 72 -19 103q-7 75 -5 98q4 16 4 47q3 75 19 140q2 14 2 16q-1 14 11 51q16 43 28 69q15 39 39 63q8 7 33 40q32 11 37 13q24 11 52 -7q34 -24 46 -38q17 -20 18 -46q0 -17 -1 -24q-7 -37 24 -102q14 -30 17 -40
q17 -57 20 -75q7 -22 6 -47q-7 -84 -7 -108q0 -52 -8 -108q-1 -13 -19 -84q-4 -11 -4 -21q-3 -18 -15 -43q-6 -8 -13.5 -25t-12.5 -25q-10 -17 -24 -25q-64 -4 -122 27zM336 358v31q-4 -31 4 -63h2q-6 22 -6 32zM323 406v12q0 -1 -1 -5.5t-1 -6.5h2zM318 417l-2 23
q-1 -7 1 -22.5t2 -18.5q2 -8 4 -22t3 -22q7 -55 -1 -91h1q9 32 1 87q-1 7 -3 22t-3 23q0 3 -0.5 6.5t-1.5 8t-1 6.5zM305 189v4q-3 -1 -3 -4h3zM300 139l-10 -23q-1 -1 0 -1q7 11 10 24q5 8 5 26q0 -11 -5 -26zM131 579q12 26 15 30q3 9 15 29q-20 -29 -30 -59zM177 -31
l58 -20q-10 6 -30 12t-24 8q-33 14 -46 31q14 -20 42 -31zM150 9v-1q1 0 2 1q11 1 14 -2q-4 4 -16 2zM179 -8q-1 0 -1 -1q13 -8 34 -16h1q-6 3 -17.5 8.5t-16.5 8.5zM253 -23l-6 -2v-1q0 -1 2 -1q1 3 4 4zM176 506q-4 -6 -7 -19t-4 -16q-5 -13 -18 -87q-2 -13 -3.5 -37.5
t-2.5 -34.5q-4 -38 8 -84q25 -84 53 -150q7 -13 32 -44q9 17 10 23q5 11 12.5 34.5t8.5 26.5q14 41 21 102q1 10 4 63.5t7 81.5q3 45 -7 82q-33 105 -57 147q-1 2 -4 5t-3 4l-9 -8q-15 -21 -41 -89zM108 639q-21 -44 -23 -60q1 5 23 60zM89 537q-9 -24 -9 -51q7 44 9 51z
M66 256v2q0 -6 3 -16.5t3 -15.5q1 -3 3.5 -14.5t4.5 -17.5q-1 11 -7 33q-2 10 -2 13q-1 3 -2 8t-3 8zM60 290q0 -11 5 -16v1q-3 5 -5 15zM80 137h1q-19 47 -25 81q-9 53 -6 85h-2q0 -46 7 -85q9 -50 25 -81zM97 551q12 48 30 76q9 20 43 69q-58 -68 -73 -145zM103 279
q-5 -27 8 -53h1q-12 29 -8 53h-1z" />
    <glyph glyph-name="P" unicode="P" horiz-adv-x="421" 
d="M235 160q-15 7 -58 23q-5 -37 -4 -61q2 -14 -1 -23q-2 -11 -1 -19q2 -15 0 -65q-3 -26 4 -64q5 -18 0 -32q-2 -2 -29 -9q-4 0 -11.5 1t-11.5 1q-27 -2 -48 19.5t-21 48.5q1 19 -8 70q-7 26 -7 48q0 19 -6 61q0 3 -1 6.5t-1 5.5q0 13 -0.5 39t-0.5 40q-2 42 -4 50
q-3 17 -1 42q2 65 5 96q0 8 1.5 30t1.5 29t-2 30q0 7 0.5 14t1.5 16t1 15q5 43 -5 81q-5 14 1 30q32 22 61 6q10 7 38 33q26 19 54 18q53 -5 104 -18q39 -10 70.5 -43t39.5 -74q15 -92 10 -143q-10 -92 -28 -132q-4 -8 -25 -75q-6 -21 -25 -37q-46 -35 -53 -41
q-9 -8 -41 -17zM384 459q-1 -53 -15 -103q24 70 10 208q6 -70 5 -105zM367 554q-2 -7 -3.5 -20.5t-2.5 -20.5q4 21 6 41zM361 482q-6 -54 -6 -84h2q3 70 4 84zM339 339q13 13 13 36h-1q1 -18 -12 -36zM72 196q-1 -17 2 -42q0 -25 4 -42l-4 43q-1 15 -1 41h-1zM76 627
q0 1 -1 0l2 -7l1 1zM73 596q0 -20 -2 -60q-2 -36 4 -58q-5 28 -3 60q2 38 1 58zM49 188h1q0 20 2 26q1 1 0 1q-4 -13 -3 -27zM61 433q1 -1 1 0q-2 8 -3 23.5t-2 23.5q-1 7 -1.5 15t-1 17.5t-0.5 14.5q0 52 4 95q-5 -40 -5 -96q2 -67 8 -93zM66 24q-4 36 -6 72
q-1 12 -2.5 35.5t-3.5 35.5q0 -32 5 -72q2 -39 7 -71zM76 -35q-4 6 -6 14q-1 5 -1 17q-5 -19 7 -31zM88 74q-6 6 -3 10q-2 -2 -1 -5.5t4 -4.5zM96 256q-5 54 0 109q-7 -55 0 -109zM106 516h1q-2 32 -1 47h-1q-3 -26 1 -47zM177 256q18 -14 21 -28q0 -1 1.5 -2t3.5 -2.5
t3 -2.5q27 16 63 54q6 6 16 24q1 2 7.5 20t8.5 27q18 54 23 82q1 4 4 20t4 23.5t1 20t-2 23.5q5 33 -6 103q-5 34 -24 53q-27 13 -90 13q-13 0 -24 -8q-28 -23 -34 -34q1 -5 5 -20q-2 -6 -5 -9q1 -5 4 -29q5 -26 4 -45t-1 -54q-2 -19 5 -26q1 -6 3.5 -21.5t3 -20.5t-0.5 -22
q-1 -1 -1 -22l1 -21q0 -4 1 -14t0 -16q-3 -21 5 -66z" />
    <glyph glyph-name="Q" unicode="Q" horiz-adv-x="421" 
d="M394 180q-1 -13 -10 -57q-2 -8 -6 -23.5t-5 -22.5q1 -3 3 -9.5t3 -10.5l34 -88q8 -21 18 -34q9 -11 8 -23q-3 -8 -16 -14q-13 -4 -25 0q-13 6 -37 20q-9 24 -29 65q-13 -14 -30 -27q-39 -35 -99 -24q-4 2 -13.5 4t-13.5 3q-52 9 -82 48q-17 24 -22 36q-35 69 -39 121
q-3 27 -11 92v2q0 7 -0.5 63t2.5 63q1 4 5.5 27t6.5 35q6 37 33 117q13 47 30 74q29 49 68 73q8 0 23 0.5t24 0.5q16 -3 42 -19l4 -3q11 -13 35 -32.5t33 -30.5q5 -5 6 -8q16 -23 27 -50q26 -54 26 -87l3 -23q5 -14 6.5 -30t2 -35.5t1.5 -29.5q2 -40 2 -55t-3.5 -53.5
t-4.5 -54.5zM75 215q-6 23 -7 37q-3 20 0 39q0 1 -1 1t-1 -1q-5 -39 9 -76zM73 255q0 12 1 15q-4 -13 1 -32h1q-3 15 -3 17zM76 392q7 21 7 39l-1 -9q0 -8 -2 -12q-2 -5 -4 -18zM72 442v-2q13 41 21 76q-5 -18 -21 -74zM334 529q-1 -3 -1 -13q0 2 0.5 6t0.5 7zM180 563h-1
q-4 -7 -10 -22.5t-9 -23.5q-4 -8 -9.5 -24.5t-8.5 -24.5q-24 -71 -30 -99q30 95 31 98q3 9 9 25t8 23l21 47zM137 3q-19 17 -24 39h-1q4 -24 25 -39zM153 582v1q-16 -24 -24 -47q-9 -20 -16 -50h1q7 32 15 49q9 19 24 47zM125 587l-20 -40q11 24 21 40q3 7 7 13.5t9 14
t8 11.5h-1q-16 -23 -24 -39zM104 421l-8 -31q12 25 12 64q0 -18 -4 -33zM84 94l17 -17q-9 12 -17 17zM151 -26v1q-16 5 -26 12q-13 10 -21 25q-11 18 -19 66q0 1 -1 0q6 -45 21 -70q22 -30 46 -34zM162 29v1q-4 5 -5.5 16t-2.5 13q3 -24 8 -30zM325 223q11 46 5 88v18
q1 40 -6 102q-3 15 -3 16q0 5 -7 42q-6 27 -43 102q-4 2 -13 10t-16 11q-25 -25 -37 -56q-4 -11 -33 -104q-1 -3 -4.5 -17t-4.5 -20q-1 -16 -7 -52.5t-7 -56.5q0 -4 -2 -12.5t-2 -12.5q-2 -26 -2 -30q2 -17 0 -64q0 -38 10 -63q5 -12 15 -37t14 -38q10 -29 27 -55
q6 -10 15 -11q41 26 63 72q11 26 0 49q-40 85 -46 95q-8 15 -6 24q7 9 17 9q39 -2 58 -27q1 -1 2 -3.5t2 -3l3 -1.5t4 1q2 20 4 25zM362 351q3 -16 0 -32q7 30 -6 62q4 -13 6 -30zM355 129q4 9 4 21q-1 -5 -2.5 -12t-1.5 -9zM373 224q1 7 1 19q0 -3 -0.5 -9t-0.5 -10z
M375 274q1 5 1 45q0 22 -3 43q-5 48 -17 88h-1q12 -38 17 -87q3 -23 3 -45v-44z" />
    <glyph glyph-name="R" unicode="R" horiz-adv-x="381" 
d="M154 -95q-7 -5 -11 -5q-58 10 -82 22t-28 40q-5 22 -2 36q4 50 -1 109q-6 51 1 190q1 15 3 44.5t2 45.5q1 34 6 97t6 86q0 7 2 26t1.5 33t-3.5 27q5 5 11 5.5t12 -1t14 0.5q2 1 8 6t10 7q55 39 121 39q15 0 22 4q22 5 36 -5q18 -9 34 -25q7 -7 16.5 -21t13.5 -19
q22 -31 20 -75q0 -47 -12 -107q-17 -79 -34 -110q-11 -15 -18 -43q-10 -32 -36 -60q-5 -4 -12.5 -13.5t-11.5 -14.5q1 -3 2.5 -9t3.5 -9q35 -64 58 -112q15 -30 46 -83t40 -70l10 -13q12 -15 13 -27q-1 -11 -12 -15q-13 -6 -25 -4q-41 12 -51 39q-4 11 -14.5 27.5
t-12.5 21.5q-50 93 -59 110q-33 68 -59 116q-1 5 -5 9q-26 34 -28 37q-2 -18 -2 -27q-3 -30 3 -92q4 -25 4 -54v-99q0 -11 2 -33q2 -23 -2 -32zM281 91q-3 1 -1 -2l2 -4q3 -4 7.5 -11.5t8.5 -11.5q-7 9 -9 14q-1 2 -3 3t-2 3l-2 4l-2 3q-2 2 1 2zM247 174q0 1 -1 0
q6 -14 10 -21q-3 11 -9 21zM258 121l1 1q-2 4 -16.5 27.5t-23.5 37.5q-8 17 -20 32q-1 2 -6 10.5t-7 14.5t0 12q-2 -3 -1 -8t2 -7t4 -7t4 -8l21 -35q7 -11 20.5 -34t21.5 -35v-1zM207 243l14 -31q6 -13 18 -31q-3 6 -8.5 15.5t-9.5 15.5q0 1 -14 31zM211 366l12 33
q-7 -17 -12 -33zM261 402l-8 -20l8 19v1zM280 422q12 15 17 40q-4 -18 -17 -40zM293 383q3 5 3 11q0 -6 -3 -11zM333 551q0 -1 -1 -3v1q1 1 1 2zM333 520q-3 -13 -11 -39q-10 -31 -13 -38q10 22 24 77zM325 621q1 -7 -2 -19q2 5 2 19zM315 547l-12 -37l-14 -36q-4 -6 -9 -18
t-8 -18q4 6 9.5 18t8.5 17q13 32 14 37q1 3 5.5 17t6.5 21q7 23 6 39q0 -17 -7 -40zM303 562h-1q-8 -38 -11 -57q1 6 3.5 18t4.5 21.5t4 17.5zM246 670h1q17 6 27 2q14 -4 19 -18q2 -5 2 -23q1 -11 -1 -29q-3 -45 -28 -115q-3 -9 -12 -29.5t-13 -31.5q0 -1 1 -1q18 42 25 63
q14 41 18 62q9 29 11 64q2 34 -7 49q-8 10 -21 11q-1 0 -15 -2h-1q-1 -1 -3 -1h-1h1q2 1 9 5q-2 -2 -6 -3.5t-6 -2.5zM164 560q-6 -62 -6 -92q2 -33 0 -65q0 -7 -1.5 -28.5t-2.5 -35.5q2 3 4 5t3 3.5t1 2.5l57 103q6 12 9 24l9 33t10 32q14 39 14 96q0 3 -2 9q-2 1 -7.5 2
t-7.5 3q-49 -5 -77 -34q2 -21 1 -30q0 -5 -2 -14t-2 -14zM73 413h1q11 63 9 142q0 -23 -2 -71zM72 1q0 9 -0.5 26.5t-0.5 27.5v51q1 48 8 106q-8 -53 -9 -106v-53q0 -41 2 -52zM90 469v21t1 22l3 45q-6 -65 -4 -88zM135 540q-1 -19 -1 -57q1 19 1 57zM93 91l2 83h-1
q0 -13 -0.5 -41t-0.5 -42zM97 198q0 13 2 16h-1q-2 -10 -1 -16zM112 480q6 79 7 115l-8 -115l-3 -57t-4 -58h1q1 20 3 58t4 57zM111 177l-3 -12q1 1 4 12h-1zM123 62l-3 44q-2 37 -1 44q-1 -7 1 -44q3 -43 3 -44z" />
    <glyph glyph-name="S" unicode="S" horiz-adv-x="305" 
d="M88 182q8 -23 6 -47q-5 -39 2 -75l9 -33q5 -15 21 -24q1 2 7 8q13 35 14 59q1 8 2 25t2.5 30t5.5 25q4 9 -2 24l-15 46q-6 29 -16 40q-6 6 -7 12q-2 12 -22 55q-16 38 -25 56q-3 7 -21 55l-19 54q-9 24 -1 54l4 22q1 3 3 16.5t3 19t4 16t7 18t9 14.5q2 17 31 50
q3 5 9.5 10.5t7.5 7.5q59 7 73 9q11 -5 21 -6q16 -1 31 -13l19 -15q31 -19 40 -66q3 -20 3 -60q0 -18 -4.5 -23.5t-25.5 -10.5q-23 11 -29.5 16.5t-16.5 23.5l4 68q-9 10 -17 20q-17 0 -42 -25q-11 -19 -17 -41q-13 -45 9 -115q6 -19 23 -39q30 -32 41 -51q17 -25 24 -48
q9 -25 24 -92q0 -23 5.5 -65.5t6.5 -56.5q0 -6 2 -20q3 -64 -19 -117q-9 -23 -31 -33q-7 -4 -20.5 -9t-19.5 -8q-14 -6 -45 0q-46 11 -90 44q-14 12 -18 28q-5 13 -8 27l-9 45q0 1 -0.5 3.5t-0.5 4.5q0 5 1.5 18t2 20t2.5 17.5t5 19.5t7 17q2 5 7 10q5 -2 20.5 -5t22.5 -10z
M29 122v1q-4 -4 -2 -10l1 1v4q0 3 1 4zM274 629q0 -2 -0.5 -8t-0.5 -10q1 7 1 18zM256 657q1 -4 5 -23t4 -30h1q1 13 -3 26q-1 4 -3 13t-4 14zM224 685q5 -1 8.5 -3t5.5 -4.5t4 -7t3 -7t2.5 -8.5t1.5 -8q1 -8 2.5 -23.5t3.5 -23.5q0 9 -2 27q-2 5 -3 14.5t-2 14.5
q-9 26 -24 29zM240 44l-3 -29q-7 -23 -9 -28h1q2 5 4.5 14.5t3.5 12.5q3 14 3 27q1 7 1 61q0 -39 -1 -58zM224 147h-1q6 -14 1 -34h1q4 13 -1 34zM220 299q0 1 -1 0l2 -11h1q-2 8 -2 11zM202 129q0 -10 1 -13q0 2 -0.5 6t-0.5 7zM195 -7v-1q5 -5 14 8q9 16 11 26q2 5 2 34
v34q0 1 -1 0q0 -6 0.5 -28.5t-1.5 -28.5q-2 -17 -6 -24q0 -1 -2 -4.5t-3.5 -6t-4 -6t-4.5 -4t-5 0.5zM197 55h-1q1 -13 -3 -26q-5 -14 -11 -24h2q15 22 13 50zM192 86l-2 -8q0 -1 1 -1q1 2 1 9zM158 403l-16 35q-11 26 -16 34q-1 1 -1 0q4 -6 9 -17.5t8 -16.5q4 -15 15 -37
l19 -35q2 -2 8.5 -14t11.5 -18h1l-21 34q-4 6 -10 18t-8 17zM163 341l-15 35l-15 35l-1 1v-1q2 -7 8 -19.5t7 -15.5q7 -20 16 -35zM132 414q-12 15 -14 32v1q0 -19 14 -33zM158 677q-15 -11 -32 -47q-12 -25 -20 -59q1 4 8 24.5t12 31.5q15 36 33 48q0 2 -1 2zM104 615
q1 2 23 37h-1q-2 -3 -10 -16t-12 -21zM88 626q0 6 6.5 15t6.5 15q0 -5 -7.5 -14.5t-5.5 -15.5zM146 332q2 -4 8.5 -18t11.5 -21q1 -1 1 0l-20 39q-2 3 -19 40q-4 8 -32 83h-1v-2q11 -32 32 -80q3 -7 9.5 -20.5t9.5 -20.5zM157 -18h-14h14zM81 -1q0 -1 1 0q-16 19 -22 41
q-3 8 -5 22q-1 3 -1 11v7v2h1q1 1 -1 4q-6 -49 27 -87zM88 23q-20 18 -18 42q-5 -28 18 -42z" />
    <glyph glyph-name="T" unicode="T" horiz-adv-x="265" 
d="M206 -45q-4 -6 -9.5 -9t-11 -3.5t-12 -0.5h-12.5q-16 -21 -58 -12q-4 3 -16 14t-19 16q-2 14 -5.5 36.5t-4.5 32.5q-3 21 -3 64q0 9 -1 29t-1 30q0 136 2 157q1 9 0 25t-1 21q0 19 1 28l4 92q3 35 0 66q-2 8 0 37t2 35v25l-27 19l-19 20q-7 13 0 28q15 3 16 3
q26 -2 40 -2q25 0 41 11q11 9 23 4q23 -6 72 4q35 9 60 5q31 -8 54 -28q3 -1 5 -4.5t3 -7.5t2 -6q-10 -26 -35 -24q-14 1 -27 0t-33 -5.5t-26 -5.5q-11 -3 -14 -4q-5 -18 -5 -79q2 -29 1 -43q0 -14 -1.5 -41.5t-1.5 -33.5q-2 -44 1 -63q1 -9 -1 -24q-2 -65 3 -128q0 -6 1 -7
v-100l4 -77q2 -9 4.5 -32.5t5.5 -36.5q2 -5 -1 -25zM252 691h1q5 3 7 1q-4 4 -8 -1zM64 676q-2 0 -3 -1l1 1h2zM75 229q2 12 -5 17q5 -5 5 -17zM119 574q-2 -5 -2 -22q2 5 2 22zM81 51q-3 33 -4 39l-2 38q0 43 4 75q-6 -35 -4 -76q0 -26 1 -38q2 -30 5 -38zM90 215
q0 14 1 21h-1v-21zM90 90q0 8 -0.5 21.5t-0.5 19.5q0 19 3 38h-1q-6 -47 -1 -79zM108 316h1l1 1q-9 24 -10 47q-2 11 -2 49q-1 51 0 103q0 37 1 56h-1q-3 -170 1 -205q2 -35 9 -51zM114 396h1q-2 11 -4 62q-3 53 -1 64h-2q0 -91 6 -126zM136 691v-1l57 10q29 4 57 6v1
q-27 -1 -56 -6q-32 -5 -58 -10zM167 598h-1v-17q1 5 1 17zM144 274q1 7 1 21q-1 -7 -1 -21zM125 30h2q0 1 -2 1v-1zM140 62q0 4 -3 61l-3 63q-3 60 -9 122l8 -123l3 -62q3 -53 4 -61zM162 398q-8 94 -8 138q0 -66 8 -138zM161 164q0 26 -2 33q3 -21 2 -33zM169 685l50 3
q-7 0 -15.5 -0.5t-18.5 -1.5t-16 -1z" />
    <glyph glyph-name="U" unicode="U" horiz-adv-x="436" 
d="M55 68q-12 56 -16 71q-2 2 -3.5 7.5t-2.5 7.5q-5 7 -12 40q-2 22 -2 34q0 5 -2.5 44.5t1.5 44.5q1 12 3 49t6 57q2 0 0.5 6.5t-1.5 7.5q0 25 3 33q6 22 8 81q1 29 15 87q3 9 12 41q4 8 17 7q1 -1 6 -1q45 -18 75 -41q2 -1 4 -3.5t4 -5.5t3 -5q-1 -9 -1.5 -25t-2 -28.5
t-6.5 -24.5v-2q-1 -13 -4 -47t-3.5 -46.5t0.5 -46.5q1 -22 -1 -64q0 -34 2 -42q1 -2 1 -8q-2 -4 -0.5 -31t1.5 -31q0 -70 9 -137q4 -33 22 -78q3 0 8.5 -1t7.5 0q12 4 25 19q19 23 35 63q17 43 25 72q1 6 10.5 45.5t11.5 60.5q2 14 7 39.5t6 34.5v5q-2 25 1 71.5t3 54.5
q0 7 -2 23q-4 21 -4 49q-2 20 -8 36q-6 21 -5 30q0 6 -2 20q-4 10 1 30q2 2 5 3q2 0 3 0.5l3 1.5q9 -1 18 -5q41 -13 51 -54q3 -13 8.5 -34t7.5 -29q2 -10 2 -16q-2 -18 5 -81v-22q0 -6 1 -19.5t1 -19.5q0 -2 0.5 -5t0.5 -4q-1 -15 -2 -81t-5 -101q-5 -14 -7 -45.5t-7 -45.5
q-1 -2 -3 -28q-2 -24 -15 -34q-12 -10 -15 -27q-8 -23 -29 -40q-8 -5 -21 -18q-25 -25 -59 -15q-16 4 -41 6q-12 2 -22 6q-26 9 -60 23q-5 2 -16 11q-36 29 -59 70zM342 84q5 13 13 39q-8 -26 -13 -39zM357 165v-5v5zM375 397q1 7 1 25q-1 -9 -1 -25zM357 584q9 -25 16 -63
q4 -31 4 -67q5 70 -20 130zM353 495q-2 -32 0 -64q-2 32 0 64zM333 234q0 -15 -1 -24h1v8v9v7zM307 134q-7 -34 -29 -57q23 26 29 57zM267 19q27 32 43 71q18 39 22 82q-7 -37 -9 -43q-4 -15 -13 -37q-18 -41 -43 -73zM209 -20q1 0 2 -1.5t3 -1.5q0 1 -5 3zM117 52v1
q-17 36 -28 79q-8 46 -4 84h-1q-8 -92 33 -164zM131 126q1 -3 2 -10t3 -10h-1q-2 16 -4 20zM136 590q-2 -38 -2 -57h1q1 19 1 57zM116 209q-3 -20 -1 -60q2 -35 8 -59q-6 40 -7 60v59zM117 432l2 60q-2 -40 -2 -60zM113 524v8v-8zM106 114h1q-12 34 -8 60q-4 -28 7 -60z
M112 548l-8 -52h1q2 8 3.5 26t3.5 26zM88 437l-4 -52q2 7 4 45q2 8 3 23t2 23l10 89q1 9 2.5 26t3.5 26q-13 -90 -21 -180zM81 567h-1q3 -24 -5 -70q8 26 6 70zM66 271q-1 -7 -1 -19q1 7 1 19zM53 163q-15 -59 27 -97v1q-41 41 -27 96z" />
    <glyph glyph-name="V" unicode="V" horiz-adv-x="361" 
d="M221 -24q0 -3 0.5 -8t0.5 -9t-1 -8q-11 -12 -35 -6q-21 8 -40 2q-24 10 -33 15q-10 9 -15 28q-15 65 -26 148q-5 52 -17 122q-7 48 -8 87q-2 53 -1 80v5q-5 17 -5 82q0 16 -2 42t-2 34q-1 7 -1 17q0 41 -2 54q-4 29 -3 57q1 25 -3 50q0 3 -8 17q-3 6 -8 15q2 11 11 12
q26 2 35 0q7 -1 24 -1q4 3 17 8q9 -4 17 -16.5t13 -15.5q4 -38 12 -83q3 -14 4.5 -41t2.5 -35q0 -3 4.5 -47t4.5 -67q0 -18 3.5 -59.5t1.5 -63.5q-1 -4 0.5 -12.5t1.5 -12.5q1 -10 3.5 -39t4.5 -45q14 -111 16 -119q9 18 11 49q2 23 5 35l2 14q2 10 6 46.5t8 56.5
q5 28 11 82q1 16 6 40q11 45 14 64q2 14 2 16q5 46 14 78q3 10 3 19q0 29 11 62q6 19 5 34q-2 26 7 35q8 -1 38 -12q8 -4 17 -28q0 -19 -6 -59q-12 -51 -18 -91q-15 -91 -24 -127q-18 -91 -19 -101q-1 -19 -9 -57q-3 -12 -6 -34.5t-3 -24.5q-2 -34 -7 -52q-3 -10 -5 -22
t-4 -26t-3 -22q-5 -53 -20 -116q-3 -11 -3 -46zM139 335q0 -4 -0.5 -11.5t-0.5 -11.5h1q0 15 1 23h-1zM127 503q3 -10 1 -25q0 -16 1 -18h1q-1 3 -1 13v11q1 7 -2 19zM90 662q0 -1 -2 -15h1q1 3 1 15zM73 219h1l2 24h-1q0 -4 -1 -12t-1 -12zM93 510q-2 0 -4 2q-2 -13 2 -22
q-2 10 -2 13v4q0 4 4 3zM100 548h1q-1 14 -5 39.5t-6 38.5q7 -63 10 -78zM108 695l2 -23l3 -48l4 -47q2 -31 6 -41q-5 22 -6 45q0 5 -0.5 14t-1 17t-1.5 15l-3 47q-3 37 -4 45q0 -4 0.5 -12t0.5 -12zM106 520h-1q0 -36 7 -61l-4 30q-2 6 -2 31zM102 155v-10q1 2 1 8v1v1h-1z
M105 331h-1q2 -32 10 -50q-2 13 -6 24zM126 20q-2 17 -6 35q-2 6 -3 17.5t-3 16.5q-3 12 -5 34q-2 14 -2 17l-2 9v3q1 -1 1 -3q2 -3 0 -5q2 6 -1 10l-1 -1l9 -66q5 -17 6 -32q1 -6 3 -17.5t4 -17.5zM135 59q0 -1 1 0q-3 6 -10 28q-2 7 -4 30h-1q2 -17 5 -30q0 -1 3 -12
t6 -16zM142 217q-2 9 -8 38t-8 46q-2 7 -3 21t-2 21l-3 42h-1q0 -6 0.5 -12.5t1.5 -15.5t1 -14q2 -26 5 -42q7 -51 17 -84zM153 22h1q-6 8 -6 15q0 -10 5 -15zM175 33q-14 37 -19 63q-2 5 -4 15l-3 15q-5 20 -4 34h-1q-1 -12 4 -31q1 -6 3 -16.5t4 -16.5q11 -47 20 -63z
M179 4v-13q1 4 1 13h-1zM211 109h1q4 3 2 8q0 -5 -3 -8zM220 209q4 16 4 35l-2 -22l-2 -12v-2q-1 -1 -1 -3q0 -3 -1 -4q2 -2 -2 -2q0 -1 1 -1t1 2q2 8 2 9zM247 317q-3 -8 -3 -24zM226 155q1 0 3 2q-3 -1 -3 1l3 8q0 4 2 14l4 30l8 59q-4 -20 -8.5 -57.5t-8.5 -56.5z" />
    <glyph glyph-name="W" unicode="W" horiz-adv-x="580" 
d="M484 -65q-2 -5 -5 -6q-28 -18 -63 6q-7 5 -23 16.5t-28 21t-22 19.5q-23 21 -36 52q-6 14 -21 55q-2 3 -3.5 9.5t-3.5 10.5q-1 -12 -6 -39.5t-5 -42.5q0 -9 -2.5 -16t-9.5 -19t-8 -13q-14 -19 -33 -12q-9 3 -25.5 4.5t-21.5 2.5q-45 9 -67 31q-34 27 -56 88
q-13 35 -19 107q-1 7 2 72q2 40 4 51q0 5 1 6q6 22 8.5 63.5t3.5 50.5q1 13 4 37t5 43.5t3 36.5l10 44q13 10 43 2q19 -6 38 -31q23 -33 11 -73q-3 -9 -1 -24v-6.5v-8v-7.5l-3 -56q-2 -19 1 -137q2 -12 0 -23q-4 -41 8 -94q3 -10 16 -77q6 -23 17 -32q10 13 16 45
q12 82 12 83q2 14 7 39.5t7 35.5q1 11 1.5 33.5t2.5 33.5q-1 1 -3.5 8.5t-4.5 10.5q3 16 16 20h8l21 -9q22 -13 28 -30q25 -65 28 -96l6 -78q3 -65 39 -120q6 6 8 10q17 41 24 80l2 14q7 25 23 112q6 46 6 69q-2 80 -2 95q0 12 0.5 26.5t1.5 31.5t1 27q0 27 -1 42q0 10 1 13
q4 14 5.5 30.5t2.5 37t2 30.5q-4 13 -3.5 35.5t-1.5 35.5q6 11 17 8q16 -3 48 -13q25 -10 31 -38q5 -23 14 -91q3 -41 -5 -140q0 -15 -4 -27q0 -1 -1 -5t0 -6q2 -18 -3 -48.5t-5 -41.5q-2 -59 -5 -91q-1 -15 -2 -45t-3 -45l-4 -48q-4 -63 -40 -139q-2 -5 -4 -7zM134 64
l-12 15q1 -1 5 -7.5t7 -8.5v1zM115 79q5 -20 16 -29q-9 12 -16 29zM121 461q-5 -30 -6 -60l3 30zM101 107q1 -3 3.5 -10t3.5 -11q-1 4 -3.5 11t-3.5 10zM91 475q-1 -2 -1 -19l-2 -38q0 -24 -1 -36q0 -26 2 -33l1 1q-2 7 -2 30q0 6 0.5 16.5t0.5 15.5q0 6 0.5 16t0.5 15v15
q0 1 0.5 3.5t0.5 5v5t0.5 4t1.5 1.5v1q-2 0 -2 -3zM90 526q0 -3 -2 -17q3 11 2 17zM65 322v36q0 5 0.5 17t0.5 18q-2 -24 -2 -35q0 -25 1 -36zM70 404q8 105 20 185q-13 -71 -20 -185zM133 23q1 0 1 1q-20 18 -40 54q-2 6 -7 18.5t-7 18.5q-2 10 -5 17q-2 7 -6 8v-1
q3 -1 4.5 -4t2.5 -7.5t2 -6.5q2 -3 3 -8.5t2 -8.5q5 -10 13 -32q15 -31 37 -49zM148 34q1 0 1 1q-5 3 -5 9q-1 -6 4 -10zM244 189l-2 -8zM241 116q7 22 9 48q-3 -22 -4 -25q-3 -9 -5 -23zM262 144l9 63l-9 -61q-2 -8 -10 -62q2 10 5 30t5 30zM298 143h1q0 1 -0.5 3t-0.5 4
h-1q1 -2 1 -7zM327 87h1h1q-8 10 -12 26h-1q5 -17 11 -26zM339 84q-1 2 -4.5 12.5l-5.5 16.5q-4 9 -10 31q-10 39 -13 63q1 -33 12 -63q3 -16 9 -31q9 -23 12 -29zM413 -14q11 -8 19 0q-11 -5 -19 0zM443 -33v1q-12 0 -19 1q-10 2 -19 7q-17 7 -29 24v-1q12 -17 29 -24
q21 -12 38 -8zM482 -9h1q2 4 3.5 9.5t2.5 9.5zM535 464q-2 -22 -2 -34q3 16 3 34h-1zM526 637q2 -5 2.5 -11.5t0 -12t0.5 -12.5v-35q0 -23 -2 -69h1q3 24 3 73v35q-1 4 -1.5 15t-3.5 17zM521 349h-1q0 -8 -2 -22q0 -5 -2 -12.5t-2 -10.5h1q6 18 6 45zM512 266v1
q-2 -10 -1 -16q0 11 1 15zM507 61l-9 -29q0 -1 1 -1q3 5 10 31q1 5 2 14t3 15q5 37 -1 63q2 -46 0 -62q-2 -6 -3.5 -16t-2.5 -15zM507 559q3 -35 3 -67q0 -9 -2 -65q0 -1 1 0q6 64 -2 132zM497 332h-1q-2 -14 -2 -18q0 6 1 8q0 8 1 8q1 -1 1 -7v-7q0 -6 -0.5 -16.5
t-0.5 -14.5v-2q3 20 1 49zM497 512h-1q3 -41 3 -42h1zM498 639l-3 -10q3 5 3 10zM479 89h-1l-4 -25q0 5 2 12.5t3 12.5zM471 21v-1q11 16 18 42q6 19 8 45h-1q-2 -26 -8 -45q-4 -14 -7 -20l-5.5 -11t-4.5 -10z" />
    <glyph glyph-name="X" unicode="X" horiz-adv-x="330" 
d="M314 50q-15 -26 -24 -33q-27 -16 -43 -13q-8 1 -20 1q-34 13 -72 58q-2 2 -18 27q-3 4 -9.5 16t-11.5 19q-1 -5 -4.5 -14t-4.5 -13q-7 -46 -4 -63q3 -40 -4 -105q0 -8 -7 -18q-3 -3 -7 -5q-22 -6 -43 11.5t-19 40.5q1 13 3 37.5t4 37.5q1 4 1 36q1 8 2.5 27.5t3.5 29.5
q3 19 17 64q5 21 14 60q-2 10 -9 35t-10 38l-15 75q-1 4 -2.5 13.5t-3.5 13.5q-10 34 -10 97q0 8 -0.5 24.5t-0.5 24.5q0 15 4 56.5t8 55.5q16 9 48 -2q38 -11 52 -39q1 -63 24 -154l7 7q3 19 14 43q10 22 28.5 61.5t26.5 56.5q1 2 4.5 13.5t7.5 17.5q7 14 19 14l37 -24
q9 -7 15 -26q-48 -100 -58 -121q-9 -17 -34 -88q-4 -13 -23 -73q-16 -43 -1 -75q18 -38 52 -125q8 -14 34 -55q11 -24 10 -36q2 -3 7.5 -7.5t9.5 -9.5t5 -12zM233 611v1v-1zM254 603v-1q-29 -45 -38 -83v-1q3 7 8 21t9 22q16 33 22 41zM225 582q-5 -20 -15 -36h1q9 14 14 36
zM209 181q2 -15 11 -24h2q-12 14 -13 24zM162 242q1 -13 11 -18q-10 6 -11 18zM171 144q7 -20 16 -31q-3 4 -15 30q-13 17 -13 30q-1 -12 12 -29zM171 110h1q-13 23 -16 34q0 1 -1 0q5 -19 16 -34zM60 492q1 -5 2.5 -14.5t3.5 -14.5q0 7 -6 29zM74 373h1l-14 49q-7 39 -8 51
q-8 54 -2 105h-2q-5 -52 3 -105q2 -28 8 -52q1 -4 5.5 -21.5t8.5 -26.5zM85 442q-4 16 -14 90h-1q1 -8 2.5 -23.5t3.5 -23.5q1 -22 9 -43zM99 592v-9q0 -3 0.5 -10t0.5 -11q-2 -21 3 -39q7 -65 12 -81q-1 5 -2.5 15t-3 18t-3.5 15q-2 32 -5 51q0 10 -0.5 26.5t-0.5 24.5
q0 14 -1 14q-2 0 0 -2v1v-7v-6zM77 100q0 -14 -7 -35h1q7 20 6 35zM53 -40h1q0 4 -1.5 13.5t-1.5 14.5q-2 6 -2 29h-1q0 -19 1 -28q0 -14 4 -29zM58 56l10 49l9 49l-10 -48q-9 -47 -9 -50zM66 -24h1q-5 12 -4 19h-1q0 -12 4 -19zM74 -58v1q0 7 0.5 20t0.5 19q-2 26 -5 38
l-1 -1q5 -16 5 -40v-20q-2 -13 0 -17zM89 108h-1q2 -17 -2 -26h2q3 11 1 26zM116 302l-3 31q0 -15 3 -31zM125 340q1 -11 7 -27q0 -1 2 -8.5t6 -10.5h1q-3 4 -6.5 12.5t-4.5 10.5q-2 6 -4 29q-2 5 -4 15t-3 14q-3 12 -5 30h-1q2 -20 6 -32q1 -13 6 -33zM182 72q-8 13 -20 28
q-19 30 -20 32q-14 26 -26 70q12 -46 25 -71q5 -13 18 -30q13 -20 23 -29zM222 138v1q-8 8 -15 19q-10 17 -10 18q-10 16 -20 41q4 -16 21 -44q2 -7 11 -21q2 -2 6 -7t7 -7zM255 65v1v1l-3 3q-3 2 -5 5v-2l5 -3q2 -2 3 -5z" />
    <glyph glyph-name="Y" unicode="Y" horiz-adv-x="260" 
d="M195 -89l-36 -3q-40 -3 -67 28q0 26 -2 76l-3 78q-1 1 -1 7q2 22 -1.5 63t-3.5 56q0 6 -1 8q-8 20 -6 62q0 40 -3 61q-7 45 -12 59q-4 8 -7 25.5t-6 26.5q-2 8 -5.5 26t-5.5 26q-5 17 -8.5 48.5t-4.5 39.5l-8 56q-2 13 4 19q9 4 26 6q29 -8 39 -17q4 -9 28 -38l11 -96
q0 -2 3 -52q8 -41 11 -48q2 -2 8 4q19 37 33 80q11 31 14 34q2 6 2 9q5 36 31 77q7 10 8 13q0 9 5.5 28.5t4.5 30.5l2 10q2 2 7.5 5t7.5 4l7 -2l21 -12q28 -7 25 -40v-3q-1 -2 -1 -4q-9 -10 -15.5 -20.5t-15.5 -29.5t-11 -23q-2 -6 -4 -12.5t-4.5 -14.5t-3.5 -12
q-22 -70 -39 -112q-22 -50 -31 -77q-8 -26 -7 -40q1 -1 0.5 -9t-0.5 -9q-3 -34 3 -103q0 -3 0.5 -7t0.5 -6v-23.5v-28.5v-24q0 -83 20 -174l1 -2q1 -3 1 -5q1 -13 -11 -19zM158 -37h-1q0 -7 1 -8q-1 4 0 8zM66 576q2 -24 9 -43q-6 19 -9 43zM61 601h-1q0 -10 1 -13
q-1 6 0 13zM74 469q-4 25 -14 75q-12 61 -16 74q2 -15 8 -42.5t7 -31.5zM117 22h-1v-16h1q-1 7 0 16zM115 199h-1q0 -4 0.5 -12.5t0.5 -13.5q0 -1 0.5 -10t2.5 -14q0 9 -2 25q0 17 -1 25zM111 221v15v-15zM85 619h-1q17 -98 26 -136q-4 26 -13 71.5t-12 64.5zM113 103
q1 18 -4 41q-1 8 -2 23t-3 22q-6 53 -2 87q2 41 4 49h-1q-12 -84 2 -171q6 -37 5 -51h1zM116 -56q0 -1 1 0q-3 19 -1 52q0 34 -3 50q-1 1 -1 0q3 -16 3 -52q-2 -33 1 -50zM121 16v-18q1 7 1 18h-1zM125 -30v17q0 -2 -0.5 -7.5t-0.5 -9.5h1zM137 236h-1q0 -27 1 -42
q3 -33 4 -39q0 1 -3 40q-1 15 -1 41zM138 -51q0 -1 1 0q-1 11 -1 29v30v58q-1 -20 -1 -59v-29q0 -25 1 -29z" />
    <glyph glyph-name="Z" unicode="Z" horiz-adv-x="400" 
d="M323 63q-19 1 -38 -3t-53.5 -14.5t-49.5 -14.5q-22 -7 -42 -22l-27 -19q-49 0 -97 34q-2 2 -3 6t-2 6l-3 12l3 7q16 32 17 50q0 8 8 30l21 58l14 44q6 18 19 54t19 54q7 9 9 14q7 13 8 16q0 13 9 20q3 1 3 5q3 12 15 33.5t16 34.5q22 24 25 42q2 8 5 11q9 9 18 28.5
t12 24.5q7 10 13 38q-4 0 -15 2t-17 2q-23 1 -61 18q-17 7 -25 23q-7 10 0 20q4 3 17 8.5t20 11.5q5 5 19 3q9 -1 24.5 1.5t19.5 2.5q15 4 37 4q37 0 59 -19q5 -5 16.5 -12t14.5 -9q34 -67 3 -136q-15 -29 -42 -73q-63 -107 -88 -183q-6 -16 -19.5 -45.5t-17.5 -40.5
l-33 -78q-3 -8 0 -18h11q44 12 116 29q40 7 67 -11q14 -9 25 -27q-2 -4 -7 -10.5t-6 -8.5q-9 -3 -37 -3zM191 379q4 11 12.5 33t12.5 33l-26 -65q-2 -6 -6.5 -16t-5.5 -14l-14 -31q0 -1 1 -1l13 30q2 6 6.5 16t6.5 15zM196 285h1l61 151h-1q-7 -18 -28 -69.5t-32 -80.5z
M242 424h-2q-16 -27 -23 -53h1l10 26zM227 474l-3 -13q0 2 1.5 6t2.5 7h-1zM249 481q5 4 12 20h-1q-3 -12 -11 -20zM274 467q15 18 19 36h-1q-4 -16 -18 -36zM220 653q-8 0 -17 -3v-1q4 1 9.5 2.5t7.5 1.5zM244 670q-8 0 -25 -1t-26 -1q40 0 51 2zM166 675q70 6 106 11v2
q-36 -7 -106 -13zM89 140q0 -1 1 -1q4 6 10.5 19.5t8.5 17.5h-1q-2 -3 -8.5 -16.5t-10.5 -19.5zM111 41q-12 0 -19 1v-1h19zM116 266q2 5 5.5 15t5.5 16h-1q-6 -17 -10 -31q-6 -18 -10 -32h1q8 29 9 32zM127 256h1q5 12 11 36h-1q-2 -10 -11 -36zM142 342h1q14 34 22 51
q2 6 23 47q4 6 12 22t13 24q19 27 30 46h-1q-11 -13 -29 -45q-13 -18 -26 -47q-30 -55 -45 -98z" />
    <glyph glyph-name="bracketleft" unicode="[" horiz-adv-x="291" 
d="M239 -63q18 -8 19 -28q-8 -21 -27 -22q-7 -2 -20 -3t-20 -2q-7 -2 -34 -2q-16 -2 -75 9q-35 11 -44 45q-3 9 -8 26q8 23 10 105q2 60 4 178.5t3 178.5q1 18 3.5 37t6 42.5t5.5 36.5q8 56 15 87q21 25 54 18q7 -2 19.5 -4.5t20.5 -4.5t18 -6t18 -9q17 -11 20 -25
q-2 -13 -23.5 -22.5t-27.5 -26.5q-3 -8 -5.5 -20.5t-4.5 -29t-4 -25.5q-7 -51 -9 -154q-2 -52 -3.5 -155.5t-3.5 -155.5q0 -22 1 -25q0 -21 17 -31q36 11 75 -12zM171 601q-14 0 -19 1v-1h19zM145 613v-1q1 0 52 -3h2q-17 4 -54 4zM141 -66q-1 1 -17 3v-1q12 -5 17 -2z
M122 598l-8 -57q7 19 9 57v1h-1h-4l1 -1h3zM115 503h3q1 4 0 13t-1 12q-2 -5 -2 -25zM125 261q1 4 0 11.5t-1 9.5q0 -19 1 -21zM136 591v-33q-2 -28 -4 -32q6 18 6 31q0 26 -2 34zM71 394q7 -90 6 -122q2 -39 -1 -59q0 -29 -5 -62h2q3 14 5 59q2 41 1 62q0 58 -8 122z
M65 -43q-7 -9 5 -18v1q-5 8 -5 17zM90 -92v1q-17 6 -31 23q-7 15 -9 45q-5 -24 9 -47q15 -21 31 -22zM101 -78q1 -1 2 0q-22 16 -32 61h-1q11 -49 31 -61zM92 328h-1q4 -21 -1 -50h2q2 26 0 50zM94 528q8 53 8 61l-9 -62q-3 -15 -9 -61h2q2 13 4.5 33.5t3.5 28.5zM108 625
v-2h16q-3 2 -16 2zM108 612v-2h11q-2 2 -11 2zM111 350q-1 -5 -1 -47q3 -40 4 -47h1l-3 47q0 32 -1 47zM113 -20q-1 0 -1 -1t1 -1h10q-4 0 -10 2zM178 -82h-2q-4 0 -12.5 -1.5t-14.5 -1.5q-6 -2 -15.5 -2.5t-15.5 -1.5q23 0 28 2q6 2 16 2.5t16 2.5zM194 -81h3q-2 2 -3 2v-2
z" />
    <glyph glyph-name="backslash" unicode="\" horiz-adv-x="406" 
d="M185 235q-23 59 -63 148q-42 90 -55 112q-24 45 -53 117q5 30 27 37q24 13 42 3l9 -25q68 -142 74 -155q6 -14 18 -40t21.5 -47.5t17.5 -41.5q6 -17 19 -46t18 -42q43 -101 78 -193q10 -28 40 -121l13 -34q-1 -9 -7.5 -16t-11 -9.5t-16.5 -8.5q-4 1 -14 1t-17.5 2.5
t-13.5 10.5q-21 58 -22 59l-2 6q-2 16 -7.5 34t-14 39t-12.5 33q-9 27 -20.5 56t-25.5 64.5t-22 56.5zM326 17h1q-3 11 -4 13q0 -2 1.5 -6.5t1.5 -6.5zM214 242q-9 18 -27 74q9 -38 27 -74zM180 286q-4 17 -13 39q9 -22 13 -39zM162 362l7 -18q-1 2 -3 8t-4 10zM117 512
q-1 1 -1 3q0 1 -1 2v1l-1 1q-1 -2 1 -3v-1q1 -1 3 -4t3 -4l-1 2q-1 2 -3 3zM281 122q-9 15 -11 22q2 -7 11 -22zM241 228l9 -33q3 -10 7 -30h2q-1 13 -7 35q-9 19 -13 35q-1 3 -49 120q-42 95 -54 124h-2q5 -12 15 -35.5t16 -34.5q46 -109 51 -121q4 -8 25 -60z" />
    <glyph glyph-name="bracketright" unicode="]" horiz-adv-x="284" 
d="M236 342q0 -74 -5 -96q-5 -15 0 -29q5 -38 7 -164q0 -61 7 -110q1 -9 6 -21.5t6 -17.5q9 -26 -18 -38q-21 -11 -43 -4q-4 1 -13 3t-14 4q-33 8 -63 2q-51 -8 -80 36q11 26 42 26q42 2 65 5l4 22q0 52 -5 91q-2 8 -2 17.5t1 21.5t1 19q0 2 1.5 17t-0.5 17q-4 17 -6 99
q0 86 4 129q3 44 3 136q4 20 0 45q-65 22 -91 52q1 1 3.5 4t5 5.5t4.5 3.5q24 8 32 8q42 0 76 -5q33 -1 63 -31q4 -19 16 -97q1 -10 0 -22q-5 -19 -6.5 -39t-1 -49.5t0.5 -39.5zM127 -101v1q-3 0 -11 -2t-13 -3q-2 0 -2 -1t2 -1q4 1 12 2.5t12 3.5zM137 -88q-52 -7 -63 -9
q11 2 31.5 4.5t31.5 4.5zM208 479q1 7 1 59q-1 11 -1 27q0 23 -2 28h-1q2 -7 2 -29q0 -20 1 -28q-2 -30 0 -57zM143 600q13 -1 33.5 -3.5t30.5 -2.5q-23 6 -64 6zM178 568v6h-1v-6h1zM177 350q-2 -30 -1 -47q0 32 1 47zM164 -99h-3q0 -1 -1 -1h-1v1q-2 0 -3 -1h1q0 -1 1 -1
t1 1q4 0 5 1zM156 234h1q5 36 5 87v46q0 6 8 44q-4 -11 -11 -86q3 -22 0 -44q0 -5 -1 -14.5t-1.5 -17.5t-0.5 -15zM169 -44h1q-4 29 -2 71q0 37 3 70h-2q-2 -12 -2.5 -35t-1.5 -34q0 -41 4 -72zM183 -6q3 38 1 46l-3 -46h2zM181 282v-1q1 2 1 6q-5 0 -4 -1h3v1v-1v-4z
M190 50q-1 3 -1 8q0 -5 1 -8zM195 -49v3v5v5h-1q0 -2 0.5 -6t0.5 -7zM190 493q0 16 -2 62h-1v-4h1q-1 0 -1 -1v-4q0 -2 1 -4v-3q0 -9 1 -16v-30h1zM213 68q0 37 -5 37q3 0 3 -3v-2v-7q1 -4 1 -10q0 -4 -0.5 -11.5t-0.5 -12.5q0 -29 -4 -44h1q3 14 5 53zM202 312q2 44 6 90
h-2q-5 -48 -5 -90q-5 -51 -1 -91v-1v41t2 51zM212 311q2 4 2.5 10t0.5 7t-1 2q0 -4 -1 -10t-1 -9zM224 307q3 18 3 35h-1q0 -6 -1 -17.5t-1 -17.5zM224 496q2 6 3.5 21t2.5 22q-1 2 -3 0l-2 -19q0 -4 -0.5 -12t-0.5 -12z" />
    <glyph glyph-name="a" unicode="a" horiz-adv-x="388" 
d="M416 235l9 35q4 14 18 28l13 12l3 -16q1 -16 -3 -52q-10 -65 -24 -123l-19 -87q-8 -16 -17.5 -20.5t-30.5 -3.5q-34 0 -58 24q-29 25 -36 46q-4 6 -11 5q-5 -5 -12 -25l-8 -27q-4 -2 -10.5 -4t-9.5 -3l-5 -13q-14 -18 -45 -11q-56 12 -104 53q-7 7 -8 9q-23 35 -34 64
q-7 18 -7 36q-2 34 4 56q3 12 3 37q-1 28 11 68q2 9 5.5 26.5t4.5 23.5q10 14 34 63q4 10 15 16q33 20 40 24t17 4q21 2 44 0q29 -4 55 -21q4 -2 8.5 -5t8.5 -5h6q6 4 8 22q2 11 11 44q3 0 13 2q6 3 10 3h5q5 0 11 -3q19 -9 33 -20q-2 -8 -3 -22t-3 -22q-3 -13 -5 -39
l-9 -86l-3 -22l-3 -20q-3 -63 -1 -76q0 -5 1.5 -41.5t6.5 -54.5q1 -3 2 -8t1.5 -8t3 -7t6.5 -8q11 7 19 30q4 11 28 82q1 4 2.5 11t3.5 11q1 6 5 18zM203 436v1q-24 4 -49 -27q-26 -26 -33 -54l1 -1q20 38 28 48q31 36 53 33zM135 54h1l-12 9l-9 11q-1 0 -1 -1l10 -12
q6 -6 11 -7zM151 427v1q-15 -4 -28 -24h1q18 21 27 23zM131 429h1q1 3 18 10h-1q-15 -2 -18 -10zM110 405h1l7 7q1 2 6 7q1 1 0.5 1.5t-1.5 -0.5q-11 -11 -13 -15zM83 96l-1 -1q4 -6 7 -7v1q-5 5 -6 7zM74 259q-5 -9 0 -18h1v8q0 8 1 10h-2zM63 214q1 -1 1 0q-3 13 -1 38
q0 5 2 19q0 19 4 22v1q-1 -1 -4 -9q-2 -5 -4 -26q-2 -37 2 -45zM157 22q1 0 1 2q-2 1 -12.5 5t-15.5 7l-25 20l-20 22q-19 24 -21 30q3 -12 17 -28q14 -18 22 -26q9 -10 25 -19q15 -13 29 -13zM190 173q15 40 18 56q13 46 23 73q5 16 3 27q-16 58 -33 82q-1 1 -9 7
q-10 -8 -19 -22q-3 -5 -24 -54q-12 -26 -8 -45q3 -14 3.5 -41.5t2.5 -39.5q4 -28 16 -65q1 -3 9 -13q14 20 18 35zM232 101h-1l-6 -11l-1 -3q-2 -3 -4 -5.5t-3 -2.5v-1q3 0 5 6q10 16 10 17zM212 115h1q1 1 2 4q1 1 2 4h-1l-3 -4q-1 -1 -1 -4zM257 126q0 1 -1 1
q-3 -5 -16 -35l-10 -17q-12 -19 -16 -20q4 0 8 6l15 22q4 7 10 21t10 22zM289 174v-7q1 -1 1 0q1 1 -1 7zM294 94l1 1q-4 4 -11 25l-6 30q-1 11 -2.5 32t-3.5 32h-1q-1 -24 5 -70q2 -6 4 -17t3 -17q6 -14 11 -16zM307 121h1q-3 9 -11 27q8 -24 10 -27zM333 46v1l-6 3
q-2 0 -3 2q-2 2 -3 2q-1 1 -1.5 0.5t0.5 -1.5q7 -7 13 -7z" />
    <glyph glyph-name="b" unicode="b" horiz-adv-x="369" 
d="M190 -160q2 -20 -3 -27.5t-23 -12.5q-7 -2 -20.5 -4t-19.5 -3h-12q-39 5 -71 37l-8 33q-3 11 -3 22q6 5 3 12q0 3 -1 4q3 3 0.5 16.5t-2.5 16.5q0 8 -6 32v7q-1 27 -1 81q2 57 1 85q0 56 -6 71q0 2 -1 3v1q-2 31 4 53q2 11 2 53q2 74 8 103v8q-6 12 3 41q7 23 7 70
q0 34 9 66q12 47 11 80q0 9 1.5 19t4 21.5t3.5 17.5l26 41q10 -2 41.5 -7t51 -10t38.5 -14q18 -28 4 -55q-5 -9 -12 -45q-9 -52 -13 -64q-15 -39 -20 -97q-2 -13 -6 -37.5t-5 -35.5q-5 -53 -14 -88q-2 -15 5 -22h2q2 -1 3 -1q60 5 113 -24q42 -21 51 -77q13 -82 8 -139v-1
q43 35 168 189q12 14 18 8q2 -2 4 -8l-75 -113q-72 -110 -109 -151q-30 -32 -57 -47.5t-39 -15.5q-29 -6 -68 8q-20 7 -29 1q12 -54 13 -64q1 -6 21 -37zM274 5q0 1 -1 2q-1 -2 -6.5 -10.5t-9 -13.5t-9.5 -11.5t-12 -8.5t-12 -1v-1q13 -3 25 9q16 20 25 35zM232 -14
q-1 -1 -0.5 -1.5t1.5 0.5q11 5 12 14l-7 -7q-2 -3 -6 -6zM296 180q-2 -21 0 -28h2q0 4 -0.5 14t-0.5 14h-1zM289 -21v2v-2zM270 244q-2 1 -3 0l3 -3q-1 0 1 -2l2 -5q0 -1 2 -3.5t3 -4.5q3 -10 9 -17q0 -1 1 0q-4 13 -18 35zM194 287q13 3 25 -4t17 -14.5t14 -22.5
q8 -14 29 -68l1 1q-6 36 -36 81q-28 40 -50 27zM121 575q2 -35 -6 -68q0 6 0.5 17.5t0.5 16.5q0 -19 -3 -37v-1q-2 -31 -4 -38h1q2 27 5 40q7 34 6 70zM121 623h-1q0 -11 -1 -32t-1 -33q3 33 3 65zM104 643l-8 -51q-5 -26 -6 -50l8 51q2 9 4 26t3 25q13 92 14 102
q-1 -5 -15 -103zM109 497q-6 -26 -7 -54q1 28 7 54zM102 469q2 12 5 18q-3 -6 -5 -18zM95 -98q-10 33 -17 65q-4 21 -10 67q-1 -1 -1 -5v1l1 2v-3v-4q0 -1 0.5 -4t0.5 -4q0 -7 3 -15q2 -24 5 -34q11 -45 18 -66zM119 -157q-9 11 -8 23h-1q0 -14 9 -23zM119 -103l1 1
q-2 8 -7.5 21.5t-8.5 21.5q-2 4 -3 11.5t-2 11.5q0 1 -2 7.5t-2.5 10t3.5 5.5q-6 0 -4 -6q1 -11 7 -29q6 -30 18 -55zM109 438h1q14 42 17 81q-3 -42 -18 -81zM136 580l2 35q-1 -12 -4 -70h1l1 1q-1 0 -1 4v4v8q1 7 1 18zM149 81q-4 -23 9 -54q12 -34 35 -44q20 13 25 28
q1 4 5.5 30.5t6.5 40.5q1 7 0 19.5t-1 17.5q0 2 -0.5 7.5t-0.5 9.5q-2 9 -3.5 28t-3.5 29q-5 23 -15 42q-5 14 -19 20q-12 -9 -18 -31q-20 -64 -20 -103v-13.5v-14.5v-12z" />
    <glyph glyph-name="c" unicode="c" horiz-adv-x="270" 
d="M139 -1q-34 -5 -59 13q-27 20 -32 39q-1 7 -6 13q-25 44 -25 94q0 21 -2 61q-2 15 8 74q2 6 3.5 16.5t2.5 15.5q1 2 1 6v6q2 6 8 22.5t9.5 24.5t9.5 20t13 22q13 17 21 23q20 17 33 24q43 24 80 9q27 -12 28 -13q27 -23 22 -71q-15 -6 -17 -8q-6 1 -15.5 3.5t-15.5 3.5
l-13 13q0 15 -1 22l-5 -2l-9 -21q-2 -12 -8 -34t-8 -29q-6 -32 -8 -117q-2 -63 17 -104q2 -5 8 -15l19 7l4 2l22 14q21 14 42 37q8 8 19 20t14 15q9 9 12 13q2 0 4 -2q4 -4 -1 -20q-6 -18 -38 -68.5t-44 -60.5q-23 -30 -45 -45q-6 -4 -25 -13.5t-23 -9.5zM201 463h-1h1z
M78 261h-1q-9 -29 2 -52l1 1q-5 13 -5 25q0 13 3 26zM80 133q1 0 2 1q-11 19 -16 38q-6 16 -8 39q-4 38 1 89l8 51q-22 -106 -3 -176q4 -20 16 -42zM114 434q24 36 67 31q-18 3 -37 -5.5t-30 -25.5zM128 31q-27 2 -33 25v-1q2 -11 11.5 -18t21.5 -6zM130 42v1q-6 0 -12 3
q4 -4 12 -4z" />
    <glyph glyph-name="d" unicode="d" horiz-adv-x="362" 
d="M345 35q0 5 13.5 57.5t29.5 103t21 45.5t8 -29q-2 -8 -4 -50q-12 -54 -14 -67q-7 -38 -11 -62q-2 -12 -3.5 -34.5t-3.5 -33.5q-1 -1 -1 -3q-2 -6 -2 -7q-2 -3 -7 -4q-5 -5 -18 -5q-59 -5 -93 41q-12 16 -27 52q-4 9 -16 47q-4 3 -8 -3l-4 -9q-4 -16 -26 -38
q-25 -22 -59 -12q-35 10 -70 42l-12 11l-1 -1v1q-10 21 -13 36l-8 37q-1 4 -1 38q0 4 -1 5q1 33 21 82q5 11 6 21q1 7 1 18l31 44q9 15 24 24q9 6 16 13q15 15 36 13q9 0 24 -1.5t18 -1.5q2 14 2 17q0 4 0.5 33.5t-2.5 33.5q3 8 1.5 28t-0.5 28q0 6 2 20q0 1 1.5 6.5
t1.5 7.5q8 109 8 121q0 11 2 25q1 3 4 6q19 20 34.5 23t38.5 -8q30 -14 62 -14q8 0 22 -2q12 -2 12 -14q-2 -11 -5 -17q-7 -12 -16 -21q-12 -12 -16 -28q-15 -63 -16 -89q-3 -13 -4 -15q-6 -9 -8 -33q-1 -9 -3 -28t-2 -29q-2 -9 -3 -27t-3 -27q-9 -59 -9 -101v-47
q2 -33 5 -54q3 -16 3 -32q-1 -1 -1 -7q2 -14 6.5 -58.5t10.5 -68.5q3 -8 5 -12t5 -8q10 4 14 14q0 1 2 7zM78 263q-2 -15 -1 -23q0 15 1 23zM69 311q-15 -19 -16 -41q3 25 16 41zM75 96q-18 31 -24 67l-3 36v18q2 16 5 18v1q-4 -6 -5 -12v-19q0 -13 2 -39q8 -47 25 -70z
M83 165q-10 21 -10 44q0 -25 10 -44zM172 178l14 62q10 48 3 97q-4 4 -12 9.5t-12 8.5q-9 -16 -10 -18q-10 -28 -18 -61q-8 -38 -8 -99q0 -31 21 -63q2 4 5 9t4 7q5 16 13 48zM265 30q1 -16 17 -21q-14 6 -17 21zM218 467h1q-2 32 -1 48h-1q-2 -32 1 -48zM215 542l3 40
q2 32 4 40q6 50 10 80h-1q-5 -33 -10 -79l-4 -40q-3 -39 -3 -41h1zM234 420v5v-5zM237 554q3 38 9 75h-1q-4 -31 -10 -83l-3 -42q-3 -20 4 -23q-4 2 -4 16q0 3 0.5 9t0.5 10q2 31 4 38zM296 -22q-20 14 -32 33q-6 8 -11 20q-7 18 -4 26q-1 -11 3 -24q6 -14 10 -21
q13 -21 34 -34zM348 -31q-4 -1 -14 1q10 -2 14 -1z" />
    <glyph glyph-name="e" unicode="e" horiz-adv-x="315" 
d="M76 -26q-9 9 -40 55q-7 23 -10.5 48t-5.5 60t-3 48v2q1 18 8 40q0 1 1.5 4.5t1.5 5.5q0 19 16 57q25 60 52 83q19 15 37 20q4 2 12 4l12 3q27 1 52 -9q2 -1 12.5 -4.5l16.5 -5.5q42 -12 57 -53q-2 -60 -21 -102q-14 -35 -53 -59l-18 -9q-26 -12 -48 -2q-14 4 -18 4
q-7 -98 33 -163q6 -11 20 -25q12 -12 20 -16q2 -2 6 -2.5t6 -2.5q28 -6 77 14q27 10 59 65.5t39 80.5q3 12 9 15q4 2 7 1q1 -2 1 -7q0 -14 -1 -33q-5 -35 -37.5 -100t-65.5 -81q-48 -24 -117 -8h-1l-8 2l-9 3q-53 15 -99 67zM202 -72q3 -1 22 -4q-3 1 -22 4zM103 15
q-12 23 -21 45h-1q17 -37 22 -45zM87 270q-8 -3 -6 -9h1q0 4 1 5q1 3 5 3zM114 -3q4 -9 10 -13q-6 6 -10 13zM110 288q6 9 13 16q1 1 0 1q-20 -24 -23 -34q1 1 10 17zM93 292q2 4 13.5 25.5t20.5 30.5q1 1 0 1q-7 -8 -17 -26q-14 -22 -18 -31h1zM157 -58q-28 18 -47 37
q19 -21 47 -37zM245 218q7 7 9 13q-4 -8 -12 -15l-15 -12q-23 -17 -32 -22q7 4 33 23q3 1 17 13zM205 211q4 1 10 7q-1 0 -2 -2t-3 -2q-3 -1 -5 -3zM259 244l3 4q0 1 -1 1q-1 -2 -1 -3zM273 294q0 -9 -3 -18q2 5 4 18h-1zM258 286q-6 -23 -24 -49q17 21 25 49q1 4 4 27
q0 22 -2 28q0 -5 0.5 -14t0.5 -13q0 -13 -4 -28zM191 313q-14 -18 -36 -65q-7 -14 -4 -31q10 3 27.5 13.5t28.5 12.5q38 58 26 95q-15 -2 -16 -3q-18 -12 -26 -22zM75 292q-9 -21 -14 -48h1q7 43 31 86q27 51 65 51v1q-38 0 -64 -48q-4 -7 -10.5 -22t-8.5 -20zM54 118
q5 -62 33 -105h1q-29 49 -34 105z" />
    <glyph glyph-name="f" unicode="f" horiz-adv-x="373" 
d="M435 477q10 -1 4 -16v-1q0 -1 -2 -3l-48 -24q-9 -4 -23.5 -11.5t-20.5 -10.5l-7 -3l-6 -3q-1 -1 -2 -1q-1 -1 -3 -1q-12 -9 -40 -24q-17 -6 -32 -17l2 -2q5 -7 14 -16q2 -3 11.5 -15t15.5 -19q3 -1 2 -2q3 -5 10 -18.5t11 -19.5q12 -20 18 -43q9 -29 17 -52q7 -22 7 -58
q2 -5 4 -22q-1 -4 0 -9.5t1 -8.5q2 -5 4 -36v-16v-21v-20q-4 -6 -6 -20q-2 -22 -18 -85q-3 -7 -9 -25t-11 -28q-9 -17 -18 -23q-22 -18 -51 -23q-8 -4 -26 -6l-5 -2q-10 -7 -18 -7q1 -1 2 -1q-6 -1 -19 -1q-19 0 -35 6q-64 20 -104 127q-35 90 -35 303q0 56 46.5 224.5
t89.5 224.5q37 48 88 72q21 9 40 9q18 2 33 -8q26 -19 31 -46q2 -9 5 -47v-13q5 -28 -6 -66q-8 -25 -19 -28q-19 5 -23 8t-8 16q15 35 15 86q0 38 -14 54q-16 -13 -23 -27q-18 -32 -29 -69q-2 -9 -8.5 -29t-9.5 -31q-5 -15 -6 -30q-1 -14 -4.5 -38.5l-5.5 -38.5
q-4 -7 -1 -14l-1 -1h1q1 -5 9 -10q4 2 13 4t13 3q34 13 41 15h4q3 0 4 1q16 9 60 25h1q20 9 31 16q13 6 19 9q1 1 4 1q0 1 2 3q19 7 24 3zM231 386h-1q-3 0 -5 -2q0 -1 1 -1h2q3 0 3 2h1l1 -1q2 2 3 2q1 1 1 2t-1 1q-2 0 -4 -2l-1 -1h-1h1zM241 373h-1q-16 -5 -36 -18l1 -1
q3 2 39 19h-3zM214 379q-17 -6 -25 -15q-2 -2 1 -1q8 8 21 13zM217 624v1q0 1 1 2q0 3 -2 1q-1 -1 -1 -4q-1 -2 0 -2t2 2zM142 -112l-7 13v-1v-1q1 -1 7 -11zM166 564h2q11 54 64 120l-1 1q-54 -64 -65 -121zM209 639l-1 1q-1 -4 -6 -13t-7 -15h3q2 4 6 13t5 14zM139 128
q-6 19 -3 26q2 2 -3 0q-3 -8 4 -27q0 -1 1 -1t1 2zM134 99q-1 0 -1 -1t-1 -1q1 -2 3 0v1q2 -1 3 1.5t-1 2.5q-1 0 -3 -3zM141 264q1 7 1 14q-2 -8 -1 -14zM129 180l3 26q0 2 -1 2t-1 -2l-3 -26q0 -2 1 -2t1 2zM119 103q-4 20 -4 47q-3 42 3 86h-2q-7 -46 -3 -86q0 -26 3 -51
q1 -5 2.5 -18t3.5 -20l1 1q-2 8 -4 41zM130 304q0 -3 -1 -8t-1.5 -9t-0.5 -7q3 10 3 24zM124 319l-3 -20q-2 -27 1 -44v1v13.5v13v10.5q-1 8 1 18q0 7 1 8q0 11 4 12v1q-4 -3 -4 -13zM122 -98q2 -6 5.5 -15t4.5 -15q5 -14 14 -28v2q-8 15 -13 25q-5 15 -9 31h-2zM199 671
q-16 -18 -23 -38q-3 -6 -6 -18q8 22 16 36q1 1 6 8t7 12zM93 192q-2 -14 -2 -18q-3 -11 -1 -43q0 7 0.5 19.5t1 22.5t1.5 19zM138 -187q12 -23 39 -39q-1 1 -4 1q-15 11 -35 38zM183 -117v-1q11 -25 25 -39q-11 13 -25 40zM199 -180q-4 5 -7 6h-1q1 -1 4 -2.5t4 -3.5z
M189 -151q-1 3 -4.5 9t-5.5 10q-1 1 -1 0q5 -11 11 -19zM180 -165q-6 6 -16 22q-8 18 -9 22h-2l11 -25q9 -16 15 -20q1 0 1 1zM264 -214q2 0 2 1t-2 1q-42 0 -54 5q-18 7 -22 9q-14 6 -17 13q0 2 -1.5 1t-0.5 -2q4 -9 14 -13q14 -6 21 -8q20 -7 60 -7zM293 -197l-1 1
q-3 -5 -17 -5q-1 0 -7.5 1.5t-10.5 2.5q-32 0 -38 11l-1 -1q-1 -1 -1 -2q4 -5 11 -7.5t16.5 -3t13.5 -1.5q3 0 10.5 -0.5t11.5 -0.5q10 0 13 5zM277 -185h-14q-1 0 -1 -1t1 -1h14q1 0 1 1t-1 1zM352 47h-1q3 -15 -3 -46q0 -2 1 -2t1 2q6 24 2 46zM338 97q-1 -1 -2 -1
q0 -5 2.5 -19t2.5 -23q1 -15 -1 -46q-2 -35 -6 -46q-7 -17 -4 -24q2 0 3 3q-5 5 2 16q0 2 1.5 6.5t1.5 8.5q3 15 5 44v42q-2 26 -5 39zM284 236q-23 55 -51 78q-7 7 -11 16q-2 0 -7.5 3.5t-11.5 0.5q0 -2 -1.5 -14t-1.5 -17q0 -26 -6 -76q-6 -32 -6 -47q-2 -60 -4 -72
q2 -21 1 -30q-4 -35 3 -81l10 -67q0 -8 4 -13q1 -8 4.5 -15.5t8.5 -16.5t7 -14q12 -29 36 -39q2 -2 12 -3q26 38 43 114q2 5 3.5 13.5t2.5 13.5l2 15v46q1 17 -2.5 45.5t-3.5 39.5q-6 55 -17 83q-10 30 -14 37zM278 403h1q1 0 2 1h-2q-4 -2 -12 -5l-4 -2q1 0 1.5 -1.5
t-0.5 -2.5q3 1 5 3l1 1h3v1h1q0 2 2 2q2 2 2 3zM306 418q-2 0 -3 -1q1 1 3 1zM335 415v1q-7 -4 -21 -10h-1q-3 -2 -8 -5t-9 -4h-3q6 2 17.5 7t17.5 7q1 0 2 1t2.5 2t2.5 1zM394 450l3 2h-1zM433 464v4q0 3 -1 3l-1 -1q0 -2 0.5 -3t0.5 -3h1z" />
    <glyph glyph-name="g" unicode="g" horiz-adv-x="365" 
d="M455 332q11 2 14 -7.5t-4 -16.5q-8 -8 -24.5 -20t-23.5 -19q-26 -23 -42 -41q-23 -23 -58 -51q0 -8 1 -10q-4 -15 0 -30q2 -4 3.5 -11.5t2.5 -13t0 -6.5h-1l-1 -1l-1 -1q-2 -2 -5 -3q-1 -1 -2 -1l3 2l1 1l-1 -1l-3 -2l-1 -1q1 1 4 2t4 3l3 2l2 -28q2 -27 5.5 -62.5
t5.5 -49.5q1 -10 4 -27t5 -31.5t3 -28.5q0 -15 4 -30l8 -63q8 -53 4 -77q11 -23 -3.5 -49t-39.5 -41q-53 -34 -131 -36q-61 0 -104 49q-47 52 -52 108q-5 51 23 125q8 19 18 59t17 59q22 57 66 109q16 19 43 43q-14 -2 -16 -2q-18 -4 -44 -2q-55 5 -79 50l-17 34
q-11 18 -18 47q-10 33 -12 68q0 29 2 38q1 6 3.5 16t3.5 15q0 18 14 44q4 5 8.5 15t8.5 16q26 36 53 54q11 7 22 5q18 -1 41 6q23 6 53 -1q33 -7 52 -27q10 -27 15 -36q4 -1 11 -2.5t11 -3.5l14 -9q2 -7 3 -8q9 -14 1 -28q-5 -11 -7 -29q-5 -44 -10 -76v-13q-1 -11 0 -32
t0 -31q-1 -8 -1 -24q21 17 44 40q2 2 11.5 12t13.5 13.5t12.5 11.5t14 12t13.5 9.5t16 9t16 5.5zM37 356q4 28 14 54q-12 -26 -15 -54q-5 -33 1 -54q0 4 -1 13t-1 13q0 10 2 28zM54 358q1 3 4 22h-1q-1 -3 -2 -10.5t-2 -11.5l-3 -23q2 4 4 23zM270 486q3 -11 5 -34
q0 14 -5 34zM286 366v-13q1 -13 0 -13q1 -19 1 -54v-27.5v-33v-28.5q0 1 1 1v38t1 38q0 14 -0.5 30t-1.5 36t-1 31v14q0 5 -1 8l-2 2t-2 -1q4 0 4 -3v-4q0 -1 0.5 -3t0.5 -4v-14zM251 506q-1 1 -1 0q9 -22 18 -55q-4 22 -17 55zM265 354l2 -11q0 3 -2 11zM272 327
q2 -48 -1 -73q4 33 1 73zM272 242h-1q0 -8 -5 -23q8 11 6 23zM141 322v-29q7 -50 12 -68l2 -6q6 -16 18 -19q2 0 8 -2.5t9 -3t8.5 0.5t10.5 4q28 54 33 99q-3 3 -6 7t-5 6l2 9q15 29 15 90q0 10 -2 27t-2 23q-4 23 -27 46q-3 3 -6 4q-31 9 -44 -19q-2 -2 -2 -3l-1 -1
q-16 -42 -22 -91q-2 -12 -1 -37t0 -37zM203 171v1q-11 -4 -25 -4v-1q22 3 25 4zM74 343q0 -1 1 -1q3 34 10 57h-1q-8 -22 -10 -56zM107 280h1l-3 45h-1zM109 353h1q3 9 1 28q2 -17 -2 -28zM92 358q5 47 20 87q-16 -42 -21 -87q-2 -28 -1 -42q0 -27 6 -45q-5 25 -5 43
q-1 15 1 44zM117 406h1q1 2 1 11zM145 174v-1l11 2q-2 0 -5.5 -0.5t-5.5 -0.5zM167 154h11q10 -1 10 0q22 0 44 6v1q-20 -5 -41 -6h-21q-7 0 -9 1q-4 0 -4 2t3 3l-1 1l-3 -3v-1q3 -4 11 -4zM278 -12q1 1 1 0q1 2 -1 4q1 -14 7 -54q8 -45 10 -52l-9 53q-2 4 -3 13t-2 13
q0 10 -1 13q0 2 -0.5 4t-0.5 3t-1 3zM286 16l-2 20q0 -6 2 -20zM319 -306h1l-6 9q-1 1 -1 0zM262 4q-2 9 -4 50h-1q1 -16 3.5 -45t2.5 -43l8 -88q1 -8 3 -24.5t3 -25.5q-1 13 -7 77t-8 99zM309 -62q-1 7 -2.5 20t-3.5 20h-1q1 -5 3 -19t4 -21zM333 -295q-3 1 -6 0h6z
M180 -372q30 -3 81 10q-4 9 -4 20q0 1 -1.5 4.5t-2.5 5.5q-5 59 -16 111q0 7 1 8q-4 21 -11 67t-11 70q-2 10 6 18q-2 40 -5 59q3 26 -3 74q0 5 2 9t4 20l-25 -24q-39 -45 -61 -94q-9 -19 -17.5 -54.5t-12.5 -46.5q-3 -12 -9.5 -32.5t-11 -37t-5.5 -32.5q-5 -61 26 -101
q40 -50 76 -54z" />
    <glyph glyph-name="h" unicode="h" horiz-adv-x="385" 
d="M15 439q1 13 -1 38t-1 39q2 16 2 46.5v37.5l4 27q0 2 0.5 5.5t0.5 4.5l8 81q0 1 2 7q6 6 24 4q5 0 13.5 -1t15 -0.5t13.5 2.5q4 -1 12.5 -2t14 -1.5t12.5 -4t12 -8.5q-2 -6 -4 -32q-5 -27 -5 -47q-1 -8 0.5 -23t1.5 -21q0 -16 -1.5 -60.5t0.5 -60.5q1 -25 -3 -49
q-1 -19 4 -51q2 1 4.5 2.5t4.5 3.5q14 14 45 27l27 12q37 15 79 -4q25 -11 32 -38l15 -52q2 -6 4 -32q1 -8 2 -24.5t3 -24.5q2 -22 2 -32q0 -9 -1.5 -26.5t-2 -26t0.5 -26.5q0 -9 -3 -28.5t-2 -30.5q0 -20 -2 -60l-2 -17q-9 -43 3 -88q2 9 9.5 24t9.5 22q12 22 21 43
q13 30 41 102q7 20 23.5 87t20.5 77q5 11 8 -8q7 -42 -8 -107q-4 -22 -67 -253v-2q-1 -9 -5 -18q-2 -7 -3 -8l-21 -57q-3 -10 -12 -25t-11 -21q-33 -37 -89 -3q-6 4 -9 12q-15 25 -22 62q-1 8 -3 22t-3 22q-3 6 -2.5 51t0.5 51q0 27 2 89v12q0 8 -2 32.5t1 31.5q2 10 5 62
q0 11 0.5 32t0.5 33q2 41 -3 61q-1 8 -7 18q-42 -17 -82 -80q3 -64 23 -132q1 -5 3.5 -11t6 -13.5t5.5 -11.5q2 -3 6.5 -12t6.5 -14q7 -19 16 -28q14 -17 -4 -27q-15 -9 -23 -23q-13 -9 -25 -6q-39 8 -54 24l-25 71q-1 1 -2 5t-2 6t-3.5 4.5t-6.5 3.5v-1l-1 -2l-9 31
q-19 68 -29 116q0 37 2 45q-3 11 -3.5 32.5t-1.5 29.5q-7 63 -7 83zM340 -183l2 -1q-2 0 -2 1zM319 80l-4 -25q0 -11 5 -8l-1 1q-2 0 -2.5 2t-0.5 7l1 5q2 10 2 13q1 4 4 24q4 21 4 48q1 46 -8 98h-1q11 -58 8 -110q-2 -29 -7 -55zM303 190q0 -6 0.5 -18.5t0.5 -18.5
q0 -7 -0.5 -19t-0.5 -19h1q1 13 1 38q0 29 -2 37zM303 -157q-5 -12 2 -22.5t19 -8.5q-12 1 -19 10t-2 21zM291 214h-1q-2 -2 -1 -3l1 1q-1 0 0 1h1v1zM277 -87q-2 -12 0 -48q2 -27 7 -47q6 -23 20 -32q17 -13 31 1q0 1 -1 1q-16 -16 -36 4q-9 11 -15 36q-5 21 -6 42
q-1 0 -0.5 21t0.5 22zM168 344l13 8q-10 -4 -17 -10t-9 -11h1q0 4 12 13zM141 342q-1 -1 -3 -2q-6 -6 -5 -9v1q-1 2 7 9q2 1 7 6q1 1 7.5 6t10.5 7l32 22q-25 -14 -39 -26q-9 -6 -17 -14zM128 109l8 -12v1q-1 4 -8 11zM104 163h-1q7 -20 13 -34h1q-10 27 -13 34zM95 131
l-12 38q-9 30 -15 40l8 -22q1 -3 3.5 -10t3.5 -11l12 -37q15 -44 35 -67l-20 33q-9 18 -15 36zM73 618q-2 0 -1.5 -2t0.5 -3h1v3v2h2l-1 2zM68 589q-2 -21 -1 -31q0 -23 2 -29h1q0 5 -1 15t-1 15q-1 1 -0.5 15t0.5 15zM52 579q0 -68 3 -101h1q0 12 -1 32t-1.5 36.5
t-0.5 32.5q0 55 4 102h-1q-4 -47 -4 -102zM39 609v-1v1z" />
    <glyph glyph-name="i" unicode="i" horiz-adv-x="167" 
d="M77 449q12 -3 24 -3q20 0 45 -20q0 -12 -1 -19q-1 -12 -3 -26t-5 -30.5t-4 -26.5q-7 -56 -3 -108l3 -28v-1q-2 -6 0 -11v-3q-1 -7 3 -12t10 -3q14 4 27 26q4 6 9.5 17t9.5 17q16 28 16 29l8 28q5 3 7 11q4 6 14 23q0 1 1 1h4q0 -12 1 -17v-1q-13 -34 -19 -62
q-4 -11 -10 -32.5t-9 -31.5l-22 -63q-11 -30 -14 -41q-9 -25 -36 -43q-16 -14 -42 -2t-37 23q-10 16 -36 84q-2 26 -2 42q5 53 5 97q2 80 4 99l3 24q7 18 10 48l3 8q16 14 36 7zM45 284q0 -1 1 0q-4 13 2 36q0 21 4 36q3 25 11 75h-1q-3 -15 -7 -41.5t-5 -34.5q-2 -6 -3 -19
t-2 -20q-1 -4 -1 -9v-9q-2 -10 1 -14zM205 225l5 8q-5 -3 -5 -8zM179 131l11 34q-4 -6 -11 -34zM192 188q-6 -11 -10 -21l5.5 11t4.5 10zM154 116q0 -1 -1 -2q0 -1 1 -1q11 16 20 41l-11 -21q-2 -6 -5 -10l-2 -5q-1 -1 -1 -2q-1 -1 -1 0zM116 67q6 -9 14 -4h-7q-1 0 -3 1.5
t-4 2.5zM76 397q-3 -13 -2 -22h1q0 15 1 22zM68 337q0 -3 -1.5 -8.5t-1.5 -8.5v-1q1 2 4 16q2 13 4 18h-1q-1 -2 -4 -16zM75 114h-1l12 -23q6 -13 12 -16v1q-5 5 -13 18q-6 15 -10 20zM77 69q-14 18 -19 29q-19 35 -15 68h-1q-4 -17 3 -38q10 -27 13 -31q1 -1 8 -13t11 -17
q12 -14 25 -18v1q-11 3 -25 19zM59 135q1 -1 2 -4t2 -4q-1 5 -4 8zM90 520q-45 -20 -68 13q-4 12 1 25q5 14 22 50q24 14 45 -2q4 -4 13 -12q10 -10 7 -22q-6 -38 -20 -52zM56 561v-6q-3 -1 -3 -4q0 -1 1 -1q3 3 3 11h-1zM53 582v1q-16 -25 -19 -35q3 6 9.5 17t9.5 17z" />
    <glyph glyph-name="j" unicode="j" horiz-adv-x="221" 
d="M-6 566q22 9 47 -1q10 -6 16 -6q21 0 35 -23q13 -19 27 -61q2 -4 3.5 -11t2.5 -11q5 -23 35 -139l8 -41q0 -1 1 -2t1 -3q-2 -21 4 -35l21 20l27 33q1 1 4 1v1q2 2 3 2q3 3 8.5 10.5t9.5 11.5q2 3 4 1q2 1 3 1l2 1q7 0 10 -4q3 2 5.5 0t1.5 -5l-2 -6q0 -1 -2 -7v-2
q-4 -29 -29 -54q-16 -24 -25 -36l-8 -14q-10 -16 -19 -26q3 -12 5 -31l8 -58l8 -69q4 -37 4 -84q-1 0 -1 -25l1 -25q-3 -74 -4 -88v-8q0 -40 -10 -76l-12 -50q-3 -16 -16 -27q-17 -16 -30 -33q-10 -10 -25 -15q-30 -6 -64 0q-3 1 -27 1q-25 -5 -49 0q-33 5 -54 33
q-27 38 -28 78q-2 46 5 69q22 73 28 87q9 25 22.5 52.5t24 46t29.5 49.5t27 46q5 9 20 33t23 37q-1 6 -2 16.5t-3 16.5q-5 26 -22 146q-2 24 -5 36q1 1 1 6q-4 34 -26 114q-12 39 -27 114v1q0 4 5 12zM-25 -108q6 7 9 15q-3 -9 -9 -15zM-39 -150q-7 -10 -16 -29h1
q5 14 15 29zM-83 -312q-13 35 12 104q-26 -66 -12 -104zM-74 -256q2 6 5.5 15t4.5 15q-7 -20 -10 -30zM-70 -190q4 12 12 23q-8 -11 -12 -23zM-56 -246q4 25 16 58q-11 -27 -16 -58zM125 -342q-6 -8 -12 -18h1q1 4 5.5 9t5.5 9zM67 -381q47 41 59 96q-18 -61 -60 -95z
M134 -251l3 7h-1q-2 -6 -2 -7zM159 -353q11 18 13 38q-6 -24 -13 -37q-6 -10 -10 -15q-5 -11 -12 -17q2 1 11 13q1 2 5 8t6 10zM147 37q-3 42 -4 51q0 -6 0.5 -16.5t1 -19t1.5 -15.5h1zM224 269l-1 -1zM247 287l2 3l2 3q-3 -3 -4 -6zM134 279h-1q3 -20 8.5 -61t9.5 -61v-2
l2 -8v-1v-4l1 -1v-1v-1q0 -4 1 -5v-4v-1q0 -1 1 -1v-1v-3q0 -2 1 -3v-3v-2q4 -23 10 -69q5 -38 10 -67q-1 19 -7 57l-8 59l-3 20q-1 1 -1 3v1q0 4 -1 5v1v4l-1 1v1v1q0 1 -0.5 4t-0.5 5v1l-1 1v3v2q-1 2 -1 9l-1 1l-8 54q-4 34 -10 66zM115 211q0 1 -1 0q2 -8 3.5 -25
t3.5 -25q1 -6 3.5 -23.5t4.5 -27.5h1l-8 50q-2 9 -4 26t-3 25zM104 -291q0 -1 -0.5 -1t-0.5 -1q0 1 0.5 1t0.5 1zM100 244h-1q0 -4 0.5 -9t0.5 -9q1 1 0.5 9t-0.5 9zM98 -309h-1q-7 -21 -23 -37q18 17 24 37zM82 -53q0 17 -5 49q-6 -8 -7 -9l-26 -45l-13 -23
q-24 -42 -27 -56q0 -2 -2 -4q-8 -11 -16 -33q-5 -20 -9 -28q-24 -54 -19 -119q2 -29 24 -48q25 10 51 1q16 20 29 60q2 14 4 19q13 53 14 88q0 3 0.5 8t0.5 7q4 20 4 42q0 46 -3 91zM58 362q1 -1 1 0l-7 19q-1 4 -4 22q0 -11 3 -21q2 -4 3.5 -10t3.5 -10zM42 475l8 -30
q6 -21 9 -30l-8 30q-6 21 -9 30zM34 454l-9 30q-9 30 -21 60h-1l21 -60l8 -29q8 -29 9 -32v1zM-29 653q-18 13 -11 41q6 25 30 29q14 4 27 -3q20 -15 22 -22l-3 -38l-14 -20q-26 -5 -51 13zM-20 688q-7 -9 3 -15v1q-1 2 -2 3t-2 3q0 4 2 8h-1zM-22 705q-10 -12 -9 -25
q2 -14 11 -18v1q-9 7 -9 19t7 23z" />
    <glyph glyph-name="k" unicode="k" horiz-adv-x="305" 
d="M414 194q2 1 4 0t1 -3q-2 -22 -7 -33q-6 -17 -15 -27q0 -1 -1 -1l-6 -12q-3 -19 -11 -34q0 -2 -1 -3q-3 -3 -4 -6q-2 -2 -4 -5t-3 -4q-6 -12 -19 -25l-2 -3h-1l-3 -4l-5 -2l-19 -9l-1 -1h-2q-15 -5 -29 0l-3 4q-2 -5 -7 0q-1 2 -5 5.5t-6 6.5q-25 14 -41 37q-7 13 -16 50
q-4 25 -12 58q-2 4 2 5q0 7 -2 9q-4 10 -5 27q-3 3 -4 9q-1 1 -4 10q-5 7 -7 19q-17 -22 -23 -28v-21v-11l-6 -6q-6 -77 6 -152q2 -8 6.5 -22.5t6.5 -20.5l10 -32q4 -21 13 -35q14 -20 -7 -30q-22 -7 -30 -22q-16 -10 -30 -3q-42 16 -56 34q-3 13 -9.5 42t-10.5 45
q-1 2 -2 5.5t-1.5 5.5t-2.5 5.5t-5 5.5l-3 -3q-2 25 -5 36q-1 10 -7.5 60t-8.5 76q1 5 2 16t2.5 19.5t5.5 15.5q-4 5 -1 35.5t3 35.5q2 75 5 96q3 16 4.5 45t3.5 42q3 16 7.5 47.5t8.5 47.5q3 15 9 32q2 8 2 10l20 92l3 6q11 7 29 1q34 -6 48 -4q3 -1 17.5 -5t22.5 -8.5
t14 -14.5q-3 -19 -9 -34q-2 -8 -6 -26t-6 -26t-2 -25t-2 -26q-2 -18 -9 -65t-9 -73q-2 -11 -5.5 -29t-4.5 -24q1 3 7 11q4 7 25 33q3 1 3 2q12 18 25 28q26 19 37 12h1q2 -1 3 -3l1 -1t1 -2q1 -4 0 -7q3 -1 3 -5q-1 -7 -3 -20.5t-4 -20.5l-2 -3q-1 -2 -2 -6.5t-3 -6.5
q0 -1 -1 -1q-2 -6 -7.5 -16.5t-6.5 -12.5l-24 -37l1 -1q38 -96 41 -149q2 -3 2 -16q0 -10 4 -17l14 -31q2 -12 5 -16q7 -10 9 -11q3 -5 9 -9q13 -2 16 -1q4 1 17 11q8 5 9 8q6 13 20 34q11 25 16 33q0 1 0.5 1t0.5 1h2v1l1 1v1q1 1 1 5l2 2q0 1 0.5 1t0.5 1v2q2 5 7 9l1 1
q6 11 18 17zM80 597v1v-1zM78 446h2q7 87 12 115q5 35 19 116h-1q-11 -51 -19 -114q-7 -39 -13 -117zM146 268v1q-1 5 8 8q0 1 0.5 1t0.5 1q-10 -7 -9 -11zM155 279v1l1 1v1l-1 1v-4zM239 172v1h-1v-1h1zM202 294h1l-1 1v-1zM257 435v-2v2zM244 434l3 10q-6 -1 -22 -12
l-3 -5q-2 -2 -29 -39q-22 -30 -30 -46q-1 -3 -3.5 -7.5t-3.5 -7.5v-5q-1 -3 -1 -10q11 7 29 23v1q1 1 3 2l4 4h1v1q39 33 50 77q0 5 1 6v6l1 1v1zM87 82q2 -6 5 -20t5 -21q-1 14 -10 41zM120 604q-2 -2 -1 -4t-1 -2v-1q2 2 2 3v3h2v1h-2zM110 570q-4 -16 -6 -34
q-2 -22 -1 -32l2 32q2 23 5 34zM103 -36v-1l1 1q-6 9 -20 39q-9 33 -11 44l-8 45q-8 40 -10 48q2 -16 5 -26q2 -4 3 -13t2 -14q2 -7 4.5 -22l3.5 -21q10 -56 30 -80zM115 3q-2 9 -8 13q2 -2 4.5 -7t3.5 -6z" />
    <glyph glyph-name="l" unicode="l" horiz-adv-x="208" 
d="M8 433q0 11 -1 33t-1 33q0 13 0.5 40t0.5 40q0 45 12 81q2 4 3 12t2 12q8 6 17 6h24q17 1 55 1l6 -3q9 7 14 -5q7 -10 10 -25l2 -3q3 -10 12 -30t13 -31l1 -4q2 -4 3 -7q5 -11 9 -27q9 -26 1 -55q13 -59 -24 -141l-1 -2q0 -2 -1 -3q-2 -5 -31 -55l-4 -4l3 -64
q0 -5 -0.5 -16t-0.5 -17q2 -32 10 -47q0 -36 3 -47q0 -16 4 -25q0 -2 1 -3q0 -9 1 -13q13 -50 16 -77q0 -4 3 -7q0 2 2 2q8 16 15 20l2 3v4q4 16 17 31q2 2 5 9v4q9 31 28 62l9 13q1 4 3 4q3 2 7.5 5.5t8.5 5.5q3 3 6 4h3q5 2 5 1h4h5q9 0 9.5 -7.5t-7.5 -9.5q-1 -1 -6.5 -5
t-7.5 -6q-1 0 -2 -1q0 -1 -3 -2l-2 -2q-2 -2 -4.5 -6.5t-3.5 -6.5v-1l-3 -10q3 -4 1 -10q-1 -2 -3.5 -8.5t-4.5 -9.5l-3 -21q-3 -16 -12 -39q-10 -28 -16 -42v-1l-1 -2q-1 -1 -1 -2q0 -2 -2 -4v-2q0 -1 -1 -1q-15 -32 -28 -40q-8 -6 -25 -6q-2 -2 -6 -2q-13 0 -31 5
q-8 2 -14 2l-5 5q-34 2 -49 23q-13 13 -15 38q-2 19 0 25l-6 48q-7 34 -15 106q-1 10 -5.5 49.5t-6.5 62.5q-2 29 -2 128q0 5 -2 7q0 22 1 33zM129 353l11 10l12 34q18 44 11 84q-2 14 -10.5 40.5t-10.5 40.5l-2 20q-2 11 -8 15q-2 -48 -2 -74q0 -10 7 -14v-16
q-11 -28 -5 -90q-3 -26 -3 -50zM166 568l-2 4zM123 -18q2 8 0 32h-1q1 -12 1 -32zM172 -40v1l1 1l-1 -1v-1zM166 -86v1v-1zM140 13h-1q0 -21 5 -35q6 -15 18 -25l1 1l-5.5 5.5l-5.5 5.5t-4 7.5t-3 7.5q-5 11 -5 33zM133 47q0 -8 5 -13h1q-5 6 -6 13zM94 540q2 -8 2 -23
t1 -23q3 23 -3 46zM82 -12h-1q0 -10 7.5 -20t18.5 -12q-25 7 -25 32zM82 -54q-14 14 -18 30v1q-1 1 -1 2q-4 15 -4 35q0 21 -1 32v-32q0 -27 6 -41q0 -1 0.5 -3l0.5 -2q6 -13 19 -23.5t27 -8.5v1q-17 0 -29 9zM77 600v-19q0 -1 1 0q0 16 -1 19zM71 520v-46q1 16 1 46v45
q-1 -13 -1 -45zM65 22v-7h1v7h-1zM60 668q-19 -93 -14 -224q0 -32 3 -63h1q-4 49 -4 111q0 48 5 110l10 66h-1zM33 628q1 -5 -1 -18q1 3 1 18zM24 544q-2 -32 0 -45q0 -1 1 0q0 5 -0.5 12t-0.5 10q0 15 1 22q0 21 5 48q-4 -16 -6 -47zM24 478h-1q-2 -17 -1 -28h1q0 25 1 28z
" />
    <glyph glyph-name="m" unicode="m" horiz-adv-x="521" 
d="M587 139q4 -4 2 -10q-5 -11 -23 -40q-4 -6 -12 -18.5t-12 -18.5q-18 -25 -40 -40l-4 -8q-23 -23 -50 -19q-29 7 -37 15q-6 2 -8 8l-9 16q-11 2 -11 12q0 12 -2.5 25t-6.5 28.5t-6 23.5q-8 29 -2 76q1 13 1.5 40.5t2.5 41.5q4 29 15 66l-5 -5q-38 -48 -42 -55
q-27 -45 -45 -96q2 -6 4.5 -18t3.5 -16q3 -9 9.5 -29.5t10.5 -30.5q2 -9 7.5 -25t5.5 -17q12 -32 14 -34q9 -6 10 -15.5t-10 -15.5q-8 -5 -17 -6q-5 -3 -9 -2q-56 -13 -72 34q-1 1 -1 5q-5 13 -6 22q-18 39 -27 82v1l-1 2q-17 22 -19 28t-2 20.5t-2 20.5l-8 43q-5 52 -5 92
q-3 16 2 43v7l-29 -49l-23 -38q2 -31 5 -46l8 -71q3 -20 5 -56q1 -14 3 -41t4 -41q6 -17 15 -55q2 -7 3 -7q4 0 1 -3q5 -6 -1 -13.5t-13 -10.5q-16 -5 -40 0h-1q-14 -3 -43 7q-8 2 -6 8q0 1 1 2v1q0 1 -1 1q-8 8 -13 19q-4 11 -4 25q-15 37 -8 57l-8 39v3v1q-7 39 -13 112
q-9 96 -8 159q-5 18 -2 30q4 14 15 25q27 32 51 26q4 -2 7 -5h1q3 4 8 4h2q1 0 1 1q3 5 8.5 4t5.5 -7q0 -1 -0.5 -3t-0.5 -3l3 -4q8 -11 0 -25q6 -30 9 -61l45 75q23 37 58 17q18 -10 28.5 -29t13 -31.5t4 -43.5t2.5 -36q1 -27 7 -74q17 43 39 73q21 32 52 63
q15 15 21.5 20.5t21 11.5t27.5 3h4l1 -1q8 0 13 -3q25 -2 30 -20q4 -1 4 -4q2 -19 1 -28t-4.5 -28.5t-4.5 -27.5q-3 -22 -10 -87q0 -5 -2 -21q0 -12 1 -34t1.5 -40t0.5 -34q2 -12 4 -18l3 -10q2 1 7.5 2t7.5 3q5 4 12.5 12.5t10.5 11.5l29 29q8 13 23 31q4 3 8 2q1 -1 3 -1
q1 -1 2 -1zM114 193h-1q-2 -19 3 -29h1q0 3 -1.5 13t-1.5 16zM75 68h-2q-1 -3 0 -7q2 4 2 7zM66 361h-1v-5q0 2 1 4v1zM66 349v5q0 -4 -1 -5h1zM59 276h-1q0 -21 5 -35q1 -1 1 0q-5 20 -5 35zM28 381h1v5.5t0.5 5t0.5 5t0.5 5.5t1.5 5t2 5t2.5 4.5t3 4t4 3t5.5 2.5
q-14 -2 -19 -16t-2 -29zM38 405q3 2 5 8h-1q0 -1 -2 -3.5t-2 -4.5zM40 348q-5 -75 25 -186h1l-8 36t-8 39.5t-5.5 34t-4.5 40t0 36.5zM89 -26q1 0 1 1q-13 30 -31 127h-1q3 -24 13 -70q1 -4 4 -18t6 -23.5t8 -16.5zM89 3q1 -1 1 0q-9 40 -11 49h-1q2 -29 11 -49zM99 30
q1 -1 1 0q-6 20 -7 34h-1q0 -21 7 -34zM94 368h-1q3 -16 10 -80q1 -10 3 -36t4 -41h1q1 53 -17 157zM119 -28h2v1l-7 7q-1 1 -4 11h-1h-1q7 -16 11 -19zM203 258q-1 32 -6 67l-2 67q-2 -80 8 -134zM241 162q2 -19 5 -27q-2 4 -3 13.5t-2 13.5zM205 350h1v18h-1v-18zM211 211
h1l-3 18q-1 1 -1 9q-1 1 -1 2v5h-1q0 -20 5 -34zM217 270q-1 3 -1 10q0 -7 1 -10zM217 299h1l-4 46h-2q1 -8 2 -23t3 -23zM247 100h1h1q-21 48 -31 83q8 -49 29 -83zM262 53q-8 11 -10 24q0 -15 10 -24zM263 73q0 1 1 2l-3 6q0 1 -3 6q0 -2 1.5 -4t1.5 -3l1 -2q0 -3 1 -5z
M270 25v1q-1 1 -1 3q0 -2 1 -3v-1zM289 21h1q-4 5 -4 11q0 -6 3 -11zM434 38q-13 16 -18 35h-1q3 -20 19 -36v1zM430 136q-4 -19 0 -37q-4 18 0 37zM426 312q-6 -38 -5 -57q1 10 2.5 28.5t3.5 28.5h-1zM392 192q1 14 -1 42q-2 -31 0 -42q0 -1 1 0zM391 255q1 6 2.5 18
t3 21.5t3.5 17.5q7 32 16 56q0 1 -1 0q-25 -58 -25 -113h1zM415 104q0 2 -0.5 7t-0.5 7q0 -10 1 -14zM409 193h-1q-1 -10 0 -19v9t1 10zM404 257q0 6 0.5 19.5t0.5 21.5q-5 -47 1 -81q0 14 -2 40zM395 171q-2 -8 0 -16h1v8v8h-1zM419 34v1q-13 29 -17 43q-6 18 -6 47h-1
q-5 -54 24 -91zM438 9l-4 3q-4 4 -4 5t-1 0l3 -6zM455 18v1q0 1 -2 3l-1 1v3h-1q-1 0 -1 -1q2 -6 5 -7z" />
    <glyph glyph-name="n" unicode="n" horiz-adv-x="348" 
d="M443 176q5 2 8 -1.5t1 -8.5q0 -3 -2 -6t-5 -7t-4 -6v-1q-1 0 -2 -1l-28 -53l-2 -4l-2 -4t-1.5 -3.5l-1.5 -4.5t-2 -5t-4.5 -15t-7.5 -20q-2 -2 -2 -4l-3 -3q0 -2 -2 -10q-3 -1 -3 -2q-2 -11 -5 -15q-3 -9 -17 -28q-1 -1 -3 -1q-1 -7 -6 -12l-3 -7l-3 -2q0 -1 -1 -4t-4 -6
q-9 -9 -16 -13q-1 -1 -4.5 -5.5t-5.5 -6.5q-10 -7 -19 -3q-12 0 -22 5q-14 6 -21 10q-28 22 -37 56q-1 6 -3 18.5t-4 18.5l-3 20q-5 22 -12 87q-6 44 -3 64q5 21 7 96q2 8 2 36q1 28 -7 61q-28 -1 -43 -33q-4 -28 5 -94q6 -56 15 -113q1 -7 3 -19.5t2 -18.5q2 -17 2 -20
q-4 -21 4 -69q-6 -26 -37 -34q-39 -9 -69 15q-1 1 -12 10l-9 24q-1 -1 -1 -2v-1q-4 11 -6 21q-9 31 -14 87q-6 62 -6 93q0 51 -5 76q3 48 5 139q0 20 8 26.5t26 4.5q22 -3 51 -12q6 -3 27 -19q8 -1 22.5 4t22.5 3q8 -1 23 -3t23 -4q31 -8 41 -16q22 -14 35 -33
q15 -62 18 -128v-2q-2 -69 2 -102q-2 -5 -2 -19l2 -14q-2 -14 5 -67v-2q0 -6 0.5 -15.5t0.5 -13.5q0 -1 0.5 -3t0.5 -4q5 4 17 23q1 3 15 22q4 3 5.5 7t2.5 9.5t2 7.5q1 5 5 9q0 1 2 3q1 1 7 9q7 7 19 24q19 26 38 34zM69 90h-1q2 -16 5 -22h2q-6 11 -6 22zM43 428
q0 20 6 20q-7 2 -7 -17q-3 -21 -3 -41q-2 -48 3 -82q0 10 -1.5 33t-0.5 36q0 26 2 33q0 4 0.5 9t0.5 9zM51 351q1 18 0 37v-37zM55 416h-2q-8 -8 -4 -13v7q1 4 6 6zM73 30h2q-9 15 -15 45q-3 17 -3 51q-2 -32 2 -52q2 -14 6 -25zM153 403q-15 -7 -26 -24h1q9 15 25 24z
M181 412q-11 -2 -19 -5q4 1 9.5 2t9.5 3zM186 427v1q-27 -1 -56 -19q27 13 56 18zM283 -20q-1 1 -6 -1l1 -1q1 1 3 1h2v1zM278 261h-1q2 -16 3 -18h1q0 9 -3 18zM357 20q0 2 1 3v1v-1q-1 -1 -1 -3zM358 24q0 2 0.5 3t0.5 3q0 -2 -0.5 -3t-0.5 -3zM333 -1q1 0 1 -0.5t1 -0.5
q-1 0 -1 0.5t-1 0.5zM375 15q-1 -1 -1 -3q0 2 1 3zM274 403q-2 0 -2 -1q12 -8 15 -14q2 -4 3.5 -10.5t2.5 -10.5q2 -9 4 -47q0 -5 1 -14t1.5 -16.5t0.5 -14.5v-45h1v50q0 24 -3 47q-2 31 -5 46q-7 17 -8 18q-2 3 -6 6.5t-5 5.5zM271 375q5 -19 10 -47q1 -15 -1 -46h1
q2 12 0 46q-1 21 -10 47zM263 328q-4 -6 -2 -10q0 6 2 10zM257 389q2 -2 2 -5h2q0 5 -4 5zM246 5l-8 23q-1 1 -1 0q3 -14 14 -43q6 -10 11 -6q-4 0 -7.5 5t-5.5 12.5t-3 8.5zM229 -10q4 -10 8 -17.5t12 -15.5t16 -5h2v1q-17 7 -25 20q-9 16 -13 31q-3 9 -7 29t-8 30h-1
q6 -47 16 -73z" />
    <glyph glyph-name="o" unicode="o" horiz-adv-x="362" 
d="M467 174q4 -38 -8 -79v-1l-1 -2v-4q-1 -4 -4 -4q-1 -10 -5 -18q-3 -20 -21 -31q-11 -11 -22 -12q-8 0 -10 5h-5q-2 1 -13 5.5t-16 7.5l-22 11q-18 8 -21 17q-4 4 -7 5q-1 -3 -2.5 -7t-2.5 -7q0 -3 -1 -4v-1q-2 -22 -26 -71q-18 -37 -60 -48q-25 -4 -60 -4q-18 0 -46 13
q-2 1 -6 4t-7.5 5t-7.5 3q-23 30 -36 76q-1 3 -12 28q-13 19 -15 43q0 6 -3 13q-2 104 -2 155q2 59 6 91q5 40 20 91q1 1 1 6l18 18q23 17 50 20q31 3 37 4q34 -14 51 -22q27 -11 48 -32q5 -8 9 -11q9 -7 19 -21q5 5 8 0q23 -54 23 -114q3 -23 3 -47q3 -45 0 -89
q31 -50 67 -81q3 -1 7 -5l3 -2q1 0 5.5 -0.5t7.5 -0.5l9 2q2 7 13 26q0 1 2 7v1q0 2 3 11v2v4v5l2 11v1q2 5 4 19q0 1 4 5v1q0 1 1 2q2 4 6 6q9 9 15 -6zM246 415h-1q9 -28 15 -80q3 -30 0 -64v-9v6q4 39 0 75q-2 38 -14 72zM251 188h1l8 -10v1l-3 4q-1 1 -1 2q-5 5 -7 6v1
l-1 1q-1 3 -5 7l-6 6v1l-3 4q-3 1 -4 4l-10 13q1 -1 4.5 -6t5.5 -7l2 -4q2 -1 3 -4l1 -1v-1q5 -5 6 -8q3 -2 7 -8h1zM258 62q-6 -6 -12 -16q7 7 12 16zM202 262q8 -3 22 -21l8 -11q1 -1 4 -5.5t5 -6.5l1 -1q-2 2 -2 5q-3 3 -9 11q-1 1 -5 6.5t-6 7.5q-8 11 -18 15zM207 435
q-17 9 -36 2q-2 -1 -6.5 -3t-6.5 -4q-1 -1 -5 -1q-18 -50 -10 -103q8 -3 25 -12.5t28 -13.5q3 -6 16 -11h3q1 -1 3 -1q10 -5 20 1t10 18v1q3 16 -3 49q0 12 -3 19q0 3 -4 4v2q-3 18 -12 30q-8 15 -19 23zM136 450q-1 0 0 -1q17 13 37 13q-22 0 -37 -12zM129 69h-2l20 -19v1z
M49 373q3 17 9 38q15 48 41 57q1 0 1 1h-1q-26 -8 -41 -53q-2 -5 -10 -39q-2 -29 0 -40h1v36zM84 382l13 30q-12 -26 -13 -30zM86 110v-5q1 1 1 5h-1zM80 418q5 11 19 27v1q-27 -29 -31 -61q7 25 12 33zM74 374h-1q0 -2 -1 -8t-1 -8q3 5 3 16zM166 -29h1l-1 1q-4 2 -11.5 6
t-13.5 7.5t-11 8.5q-20 20 -28 35q-14 20 -38 93v-1q17 -61 38 -96q12 -18 28 -32q18 -18 36 -22zM169 7v1q-24 7 -40 25q-8 8 -17.5 24t-12.5 20q14 -31 30 -45q22 -22 40 -25zM209 68q7 -12 18 -12q9 0 15 6t6 15v15.5v18t-0.5 17t-2 18.5t-4.5 16.5t-7 16t-10 12.5
t-14 11q-4 3 -9 3l-2 2q-37 35 -56 61q2 -5 2 -27q0 -19 7 -33q1 -4 2.5 -9.5t3.5 -9.5l32 -88q6 -19 19 -33zM275 65q0 1 0.5 4t0.5 5l-2 -9q-2 -9 -4 -11q0 -2 -8 -20q-6 -10 -13 -17q-1 -5 -6 -9l-3 -2l-1 -1l-1 -1q-2 -2 -6 -2q-2 0 0 -2t4 1q4 3 11 11t9 10
q10 12 15 32q3 6 4 11zM310 129v1l-1 2l-1 1v1q-1 0 -1 1l-1 1q0 1 -1 2h-1v1h-1v1h-1v1h-1v2l-1 1h-1q0 1 -1 1v1h-1q0 1 -1 1v2l-1 1l-2 1v1h-1q0 1 -1 2q0 1 -1 1v1l-4 2v2q-1 0 -1 1h-1q3 -3 2 -3v-1q1 0 1 -1q-1 0 1 -1l2 -1v-2q1 0 1 -1l1 -1l1 -1l1 -1q0 -1 1 -2h1
v-1l1 -1l1 -1l1 -2l2 -1q0 -1 1 -1v-1h1v-2h1v-1h2v-1q1 -1 2 -1q0 -2 1 -3q1 0 1 -1zM331 96h1v1h-1h-2v-1h2zM356 72q1 1 1 2q0 -1 -1 -2z" />
    <glyph glyph-name="p" unicode="p" horiz-adv-x="386" 
d="M31 -237q-21 33 -12 84q5 29 0 51q-3 13 -1 22q3 13 3 50v104q1 11 3.5 34t2.5 35q1 6 -1 19v1q0 7 2 29q3 16 5 48l2 4l9 96q1 23 1 67l3 78l8 7q1 0 14.5 -1.5t20.5 -1.5q25 1 48 -12l11 -15h3q12 16 38.5 38t33.5 29l11 9q18 4 62 -5q18 -3 26 -21q14 -29 16 -41
l3 -10q1 -12 2.5 -33.5t2.5 -32.5q0 -15 2 -20q4 -16 1 -37q-2 -6 -2 -18.5v-15.5q0 -33 -14 -95q-1 -1 -1 -4q34 22 65 35v1l14 10q3 2 5 0l4 3h1l1 1v1h1q9 7 12 8l1 1q2 3 4 1q9 4 20 6q3 0 4.5 -3t-0.5 -5q-1 -2 -4 -4t-5 -3q1 -1 -2 -5l-4 -3l-2 -2q-4 -4 -24 -22
q-4 -3 -11.5 -9t-11.5 -9q-34 -30 -53 -45q-2 -2 -4.5 -5t-5.5 -6t-6 -5l-21 -22q-2 -4 -8 -14.5t-8 -16.5q-2 -5 -14 -21q-14 -17 -35 -13l-39 10q-8 11 -17 19q-14 14 -16 15q-20 12 -40 40h-2q-1 -1 -1 -2q-2 -5 -3 -16t-3 -16v-10v-34t-2.5 -34t-3.5 -34v-12
q2 -12 -1 -27q-3 -20 -1 -24q1 -5 4 -59q2 -12 3 -36t3 -36q1 -5 13 -33q0 -5 -1 -6l-8 -13l-4 -2t-3.5 -1.5t-2.5 -1.5h-2q-12 1 -68 4q-14 8 -21 13zM363 195l4 3zM354 189l-3 -3zM418 243l-1 -1h-1h1zM270 89l1 -1l1 1v2q1 1 7 11l-7 -11q0 -2 -2 -2zM445 247q2 0 4 2
q-2 -2 -4 -2zM299 512q-1 1 -1.5 0.5t-0.5 -2.5q10 -7 16 -30t9 -44q2 -20 0 -82q0 -2 2 -2.5t3 1.5q6 37 -3 93q-3 24 -10 42q-6 18 -15 24zM294 478q11 -36 12 -70h1q0 37 -13 70zM288 499h1q1 0 1 2h-1q0 -2 -1 -2zM269 186h-1q-2 -15 -9 -28q-2 -2 -8.5 -10t-10.5 -12
q-1 -1 0 -1q33 24 29 51zM255 236h1q3 9 3 10h-1q-1 -1 -3 -10zM249 199l-8 -25q-5 -11 -23 -40q0 -1 1 -1q14 15 26 43q12 31 12 46q-1 2 -3 0q-1 -4 -2 -11.5t-3 -11.5zM172 309q-9 -53 20 -143q1 -1 2 -5t2 -5.5t3.5 -4t6.5 -3.5q10 21 17 55q1 6 3 15.5t3 15.5
q4 16 4 37q0 48 1 72q1 34 -11 73q-2 6 -5 6q-33 -39 -46 -113zM130 185q0 -13 5 -19q-4 9 -4 19h-1zM80 -11v5v2l-1 2h-1v-4v-5h2zM92 342q1 -13 -0.5 -36t-1.5 -32q0 -2 2 0q2 15 2 68q-2 2 -2 0zM70 328q0 -3 -1.5 -18t-1.5 -24q0 -1 1 -1t1 1q3 12 3 38q1 15 1 43
q2 49 -2 84h-1q2 -54 1 -83q0 -27 -1 -40zM77 -31h-1q-2 -23 1 -34h1q1 6 0 18t-1 16zM64 256q1 -11 -5 -33h1q7 12 5 33q-1 1 -1 0zM63 -154l-1 -1q7 -29 13 -40q-2 8 -6.5 22t-5.5 19zM54 18q-1 -9 1 -55q2 -35 5 -52h1l-4 54l-2 53h-1z" />
    <glyph glyph-name="q" unicode="q" horiz-adv-x="376" 
d="M140 631q13 5 22 2q21 -4 42 0q25 4 52 -8q32 -12 47 -35l9 -38q18 -7 22 -9l11 -11l3 -8q6 -15 -4 -28q-5 -7 -11 -28l-20 -75q0 -1 -1 -3.5t-1.5 -4.5t-0.5 -4l-9 -63q-3 -14 -4.5 -30t-2.5 -35.5t-2 -29.5v-8q2 -6 5 -10q26 16 39 22q13 9 24 13q1 1 3 1l55 32
q1 1 2 1q0 2 1 3l4 2l25 14q7 1 7 -4q0 -1 -0.5 -3t-0.5 -3v-1v-1q-2 -7 -9 -12l-5 -4h-1l-9 -9q-54 -49 -71 -60l-27 -24q5 -21 24 -42q7 -8 17.5 -23.5t15.5 -22.5q1 -1 9 -19q3 -6 7 -22q9 -30 16 -71q-2 -6 1 -10q3 -6 4 -12.5t0.5 -15t-0.5 -13.5q2 -12 2 -36t1 -36
q1 -2 1 -16q-2 -36 0 -47q1 -7 0 -14q-6 -14 -4 -37q-10 -9 -20 -17q-8 -8 -11 -13q-9 -11 -22 -17q-27 -14 -47 -13h-19q-27 -3 -53 12q-4 2 -33 26q-20 17 -33 59q-9 19 -14 43q-6 32 -7 42q-1 14 -2 39.5t-3 39.5q-2 30 2 85.5t4 69.5q6 30 8 73q0 5 2 9q6 10 13 49
q0 -1 -1 1l-1 2q-6 0 -16.5 0.5t-15.5 0.5q-18 -1 -44 4q-54 12 -70 61q-3 8 -13 37q-7 20 -10 49q-5 40 -2 69q1 3 3.5 16.5t4.5 20.5q10 28 11 31q4 22 21 42q3 4 9.5 14t10.5 14q25 32 60 47zM44 470q4 15 22 51q-17 -28 -23 -51q-10 -32 -6 -55l2 27q2 19 5 28zM62 469
q2 4 4 11t3 11h-1q-2 -3 -4 -10.5t-3 -11.5q-4 -10 -6 -22q2 4 4 11t3 11zM413 -176h-1q0 -4 -0.5 -9.5t-0.5 -8.5h1q1 5 1 18zM79 451q9 33 19 55h-1q-14 -27 -18 -55zM106 429l-3 -45q3 22 3 45zM116 456q5 17 5 28h-1q1 -9 -4 -28zM131 547q1 1 0 1q-23 -40 -33 -84
q-6 -32 -7 -42q-2 -30 -1 -46q1 15 1 44q1 5 3.5 20t4.5 24q11 45 32 83zM131 508h1q2 8 2 11h-1q0 -3 -2 -11zM136 272h-11h11zM207 247v1q-26 -2 -40 -1l-21 3l-8 2q-4 1 -4 3q-2 1 3 3h-1q-1 -1 -4 -2v-1q2 -3 11 -5q11 -3 21 -3q21 -3 43 0zM156 262v-1q23 0 26 1h-26z
M214 87l3 50h-1q-2 -14 -3.5 -44t-2.5 -44q-2 -17 -4 -90l-3 -50h1q6 112 10 178zM228 72q-3 -18 -1 -54q0 -41 2 -54q0 16 -2 54q1 4 1 13v14v13v7v4q0 1 1 0v3h-1zM307 -306q-18 5 -29 11q-14 8 -24 19q-21 20 -33 56q11 -37 32 -58q24 -24 54 -28zM240 115v-20v10
q1 10 0 10zM235 -220q-1 0 0 -1q1 1 6 -1v1q-1 1 -6 1zM250 55v-40q1 13 1 40h-1zM279 175l8 3l3 2l4 2q2 2 3 2q2 2 5 3t5 2q1 0 3 1l1 1l1 1h1q1 1 2 1q1 1 3.5 2t3.5 2q7 3 9 5q1 0 1 0.5t1 0.5t2 1l7 3l1 1l5 2q2 2 3 2v1h2v1h1l3 2h1l1 1q1 0 3 1l4 3l-4 -2
q-1 -1 -3 -1v-1h-1l-2 -2q-2 0 -2 -1q-2 0 -2 -1q-2 0 -4 -2l-1 -1h-2l-1 -1l-6 -3q-1 0 -1 -1q-2 0 -3 -1l-4 -2l-6 -3l-3 -2l-6 -3l-1 -1l-1 -1h-1h-1l-1 -1l-3 -2l-7 -3l-1 -1l-10 -5l-1 -1h-2l-4 -3h-1l1 1l1 1h1h-1l-1 -1l-1 -1q-1 -1 -2 -1zM270 -235l12 -8
q-1 2 -3 3.5t-5 3t-4 2.5v-1zM358 223l1 1h1q1 1 2 1q1 1 2 1v1l-1 -1h-2v-1h-1l-3 -2h-2v-1h-1h-1q-1 -1 -2 -1q-1 -1 -2 -1t-2 -1t-3 -2h-1l-2 -2l-6 -3l-2 -2q3 1 5 3q1 1 3 1q3 3 6 4h1l2 1q0 1 1 1q1 1 2 1l2 1h1l1 1h1zM401 250v-1q3 3 7 5q-2 0 -4 -2t-3 -2zM407 249
q-2 0 -3 -1l-1 -1h-1l-2 -2h-1l-1 -1h-1v-1q-1 0 -2 -1q-1 0 -2 -1l-3 -2q-1 0 -1 -1q1 0 2 1t3 2l1 1q1 0 1 0.5t1 0.5t1 1q1 0 2 1l3 2h1q2 2 3 2zM317 186v1q1 0 1 1h1q-1 0 -1 -1h-1v-1zM292 -278v1q-24 6 -36 27q0 1 -1 0q11 -23 37 -28zM358 -286q10 0 18 9
q-9 -9 -18 -9zM377 -285q-4 -1 -2 -6zM402 -130h-1q1 -5 1 -40q-2 -26 -1 -39l2 39q0 25 -1 40zM403 -36v-15h1q-1 3 -1 15zM386 58l9 -27q2 -5 4.5 -15t3.5 -13h1q-8 28 -8 29q-6 18 -10 26zM362 84l12 -27l11 -30q12 -36 9 -62q5 26 -8 61q-7 20 -11 28q-1 8 -6 15
q-1 2 -3 7.5t-4 7.5zM348 101q6 -2 9 -8h1q-5 8 -10 8zM352 49q-9 24 -29 49q-3 4 -9 11.5t-10 10.5q-2 4 -7 9.5t-7 8.5q-1 0 -2 1q-3 -36 -5 -100v-39.5t-2 -49.5q-1 -27 4 -62l8 -52q1 -4 4 -27q2 -11 8.5 -31t7.5 -25q4 -15 11.5 -20t25.5 -5l18 12q20 42 14 89
q0 5 -0.5 16t-0.5 17l1 10q1 11 -1 11q-1 4 -1 36q2 15 -3 29l-10 45q-8 36 -15 56zM293 566h-1q1 -4 1 -34q2 8 0 34zM291 445q-1 -5 -2 -14t-2 -13q-2 -9 -4 -26.5t-3 -26.5q-2 -21 -8 -58.5t-8 -49.5q7 32 15 96q5 32 13 96q0 3 0.5 7.5t0.5 6.5q0 1 0.5 4t0.5 5
q-1 1 -3 2q3 -2 2 -5v-3q0 -2 -1 -4v-3q-1 -5 -1 -14zM277 589q2 -11 4.5 -31t3.5 -26h1q-1 19 -9 57zM269 425v10v-11v1zM271 408q-3 -39 -12 -73q10 31 12 73zM259 323q-6 -17 -10 -22v-1q8 8 10 23zM191 586l-2 -4q-22 -39 -35 -88q-4 -12 -6 -36.5t-6 -36.5
q-5 -18 -5 -29q0 -52 3 -69q0 -6 1 -7q7 -18 15 -21q2 -1 7.5 -4t8.5 -4t8 -0.5t11 2.5q34 48 46 94l-3.5 7t-4.5 7q1 6 4 9q18 30 27 87q1 8 1.5 16.5t1 18.5t0.5 16q0 24 -19 50q-2 2 -4 2l-3 3q-28 13 -46 -13z" />
    <glyph glyph-name="r" unicode="r" horiz-adv-x="330" 
d="M433 182q5 -4 4 -10q-2 -2 -3 -5.5t-2 -5.5l-3 -4q3 -3 1 -9q-1 -2 -5 -9q-1 0 -1 -1q-6 -10 -10 -14q0 -2 -2 -4q0 -2 -4 -9v-1q-1 -1 -1 -3q-5 -12 -11 -17q-2 -4 -7.5 -9.5t-7.5 -8.5q-13 -18 -16 -21q-1 -7 -6 -13q-21 -44 -63 -66l-2 -2l-7 -9q-25 -12 -56 0
q-31 13 -42 36q-2 3 -3 7l-2 4q-14 49 -10 86q1 10 4.5 42.5t6.5 50.5q6 27 6 54q1 3 -1 7.5t-2 7.5q-8 -3 -19 -5q-7 5 -18 3q-3 3 -9 3l-10 1q-10 0 -10 -1q-1 0 -1 -1q-17 2 -25 -5l-4 -4q-1 0 -1 1q-8 1 -24 1q-10 2 -12 2l-4 3l-14 9q0 9 -3 18l-3 10q-3 40 -4 48l-3 7
q0 1 -2 7v4v13q1 6 2 17.5t2.5 21t4.5 17.5q18 60 26 77q17 37 51 59q7 6 16 6q17 5 25 10q25 15 44 1q7 -4 12 -4q20 -3 55 -31q22 -19 15 -55q-8 -39 -43 -93q-21 -31 -58 -68l-17 -19q8 2 32 7q41 -14 49 -17q4 -1 11.5 -3t10.5 -4q9 -3 22 -16q0 -3 1 -4q-4 -25 -4 -56
q-6 -32 -7 -50q-4 -38 8 -78q0 -4 -1 -5q1 -1 3 -1v-21h1q3 -1 5 -3l12 8q20 13 24 16q0 4 3 5q10 10 22 16l13 11q1 0 1 1l5 6l6 4t6 4.5t6 4.5l2 2l14 18l3 7l6 5l1 1q0 1 1 2l9 12q6 4 11 1zM107 542h-1q-8 -3 -14 -14l6 8q2 2 5 3t4 3zM65 470q6 18 10 26t14 22q1 0 0 1
q-19 -19 -26 -56q-3 -15 -3 -30q0 -3 0.5 -8t0.5 -7q1 -4 3 -4q-3 0 -3 28q0 16 4 28zM84 468q0 30 24 57h-1q-24 -24 -24 -57h1zM227 419q-8 -8 -14 -17q8 8 14 17zM187 404v-1l34 24q-12 -7 -34 -23zM192 536q1 0 2 1t2.5 2t2.5 1q-1 0 -3 -2t-4 -2zM208 527
q-24 -13 -34 -34q-24 -51 -35 -97q-4 -13 0 -28q3 1 6 4q48 54 74 126q6 14 2 30q-12 0 -13 -1zM133 465h1q10 21 40 61h-1q-25 -30 -40 -61zM132 323h1q40 35 64 65l-31 -33zM244 256q0 -11 -1 -18q0 -15 -5 -35q5 13 7 43q0 4 -0.5 10t-0.5 10q-2 7 -6 7q3 0 4.5 -3.5
t1.5 -8v-5.5zM239 167q1 3 1 11h-1v-11zM186 276q4 2 10 4t10 3q1 0 4.5 1t5.5 0q6 -2 7 -9q4 -15 2 -38q-1 -19 -6 -39q-5 -18 -3 -37l2 22l4 24q5 25 5 42q0 13 -1 20q-2 11 -5 14q-6 6 -15 0q-5 -1 -20 -7zM250 -18q1 0 0 1q-17 7 -20 10q-5 5 -11 19q-3 7 -9 22.5
t-10 23.5v-1q4 -9 10.5 -26.5t9.5 -23.5q5 -11 11 -16q2 -1 19 -9zM252 0l-9 7l-7 9q5 -11 16 -16zM257 219q1 4 1 31q-1 -11 -1 -31zM321 49v1l-3 -2h-1q-1 -1 -2 -1l-1 -1l-1 -1q-2 0 -4 -2q-1 -1 -2 -1q0 -1 -1 -1l-6 -5l-11 -10l1 -1q2 3 11 10l3 3l4 3l1 1h1l4 3
q1 0 1 1q2 0 4 2q1 1 2 1z" />
    <glyph glyph-name="s" unicode="s" horiz-adv-x="324" 
d="M364 389l3 -2q5 -2 2 -7h-1q0 -6 -5 -9q-4 -3 -10 -1l-12 -7q-4 -3 -5 -4l-27 -23l-9 -8q-2 0 -2 -2q0 -3 -1 -4q-14 -19 -37 -42q9 -11 15 -25t12.5 -31.5t10.5 -27.5q4 -7 6 -31q6 -51 -2 -76v-7t-1 -8q-7 -24 -9 -28q-5 -8 -7 -25q-12 -21 -13 -25q-14 -40 -54 -48
q-17 2 -20 2q-41 -8 -99 22q-2 2 -5 3t-4 2q-3 -3 -6 -1t-1 6q0 1 1 2q-5 6 -18 14.5t-19 15.5t-13 23q0 7 1.5 23t1.5 24q2 21 13 32q3 3 13.5 17t18.5 20q4 3 16 22q32 49 77 97q1 2 2 3t2 3q3 6 -5 16q-7 5 -13.5 11.5t-14.5 14t-12 11.5q-15 4 -39 2h-23h-2l-15 8
q-18 10 -29 27q-7 13 -10 19q-3 36 9 69q21 54 25 62q19 33 45 44q3 1 8.5 3.5t10 4.5t8.5 4q28 14 73 5q28 -4 52 -21l20 -13q2 -3 23 -42q16 -34 -16 -50h-31l-16 12q-3 6 -3 20t-5 20q-10 3 -27 -8q-6 -5 -11 -11q-36 -58 -30 -102l1 -1q0 -1 2 -3q4 -2 11 -4t11 -3
q30 -9 45 -28v-1q6 -13 16 -27q30 23 64 45h3q2 1 13 9.5t17 12.5q1 1 3 1q8 2 9 2q2 3 7 4q4 1 5 -1q4 0 5 -1h1zM286 327l-1 -1q1 0 1 1zM235 299q1 0 2 1q-1 0 -2 -1zM231 292l2 2zM337 375q1 0 3 1h-1q-1 -1 -2 -1zM349 377q1 1 2 1q-1 0 -2 -1zM219 134l1 1q3 23 -2 50
q4 -21 1 -51zM201 309l-1 -1q3 -3 4 -3q-3 1 -3 4zM176 350q1 -2 8 -7l8 -7v1q0 1 -16 13zM186 519q-29 -29 -40 -48q-16 -24 -27 -55q0 -1 1 -1q12 33 27 55q18 28 39 49zM137 478q-17 -13 -23 -31h1q3 9 9 17q9 11 14 14h-1zM46 474q6 14 18 29q9 12 21 24q15 17 26 18
q1 0 0 1q-11 -1 -24 -14q-16 -18 -24 -29q-29 -35 -25 -62q2 19 8 33zM70 489q5 7 22 20q-29 -20 -36 -46q9 20 14 26zM82 470h1q5 9 13 17q-10 -10 -14 -17zM99 354v-1q50 2 87 -28v1q-41 32 -87 28zM189 192q-15 -14 -42 -66q-10 -16 -15 -41q8 6 48 28q2 7 3 8
q14 41 6 71zM161 185q-10 -9 -19 -19q9 10 19 19zM133 147q0 1 -1 1q-54 -62 -40 -113q1 0 1 1q-6 27 4 55q10 27 36 56zM86 136q3 4 9 9t10 8q-7 -5 -19 -17zM180 59q13 10 23 26l-2 -2q-9 -13 -21 -24zM216 79q11 7 17 30h-1q-3 -17 -16 -30zM247 108v6h-1q0 -5 1 -6z" />
    <glyph glyph-name="t" unicode="t" horiz-adv-x="237" 
d="M128 -58q-46 -5 -77 40q-10 14 -10 32q0 5 -8 54q-9 78 -7 101q4 4 2 12q-1 6 -1 54v38q0 1 1 1q0 2 0.5 5t0.5 5t1 3q0 5 -1 6q1 9 1 25.5v24.5q0 2 3 29q4 17 4 40q0 8 4.5 33.5t2.5 39.5q-1 5 0.5 14t1.5 13q2 34 2 52q0 2 -3 6q-1 0 -2.5 0.5t-4.5 1t-6 0.5
q-36 0 -64 4q-18 3 -29 14q-10 10 -15 17l7 18q25 5 43 -2q22 -7 76 -5q2 1 6 2q7 21 7 30q0 19 5 44q6 29 5 42q0 1 2 11q15 9 26 18l18 -3t18 -4q8 -2 9 -4q26 -26 27 -46q0 -13 -1 -20l-13 -74q7 -5 11 -5q30 0 34 1q15 3 49 -3q18 -12 24 -24q0 -13 -10 -19
q-14 -9 -30 -8l-72 2q-2 0 -12 -2q-4 -11 -4 -30q0 -70 -2 -89q-2 -15 -2 -67q0 -26 3 -34q1 -2 1 -10q-3 -28 2 -72q6 -75 12 -103q-5 -18 0 -42q2 -6 9 -11q7 -4 9 -4l4 -2q3 3 6 3q3 4 8.5 11.5t9.5 11.5l9 11l3 2q0 1 2 3q1 3 4 3q2 5 8 13l14 21q1 3 3 5q0 2 1 3
q4 10 16 20q0 2 2 2q1 1 3 1q5 5 11 6q9 2 9 -7q3 -10 -13 -26l-12 -15q-15 -31 -28 -54l-12 -25l-4 -9q-4 -12 -13 -31l-7 -18q-1 -11 -6 -15l-1 -1v-1l-1 -2q-4 -8 -19 -35q-12 -21 -50 -27zM192 594h-9v-1q7 0 9 1zM3 590h19v1q-10 -1 -19 0v-1zM46 601q-30 -3 -60 0
q30 -5 60 0zM269 170l-1 -1v-1v1zM228 118v1v-1zM174 54l-4 -4zM178 55l3 3l4 4q1 0 1 1l2 2l2 2v1h1l2 3l1 1l1 1q0 1 1 1q-1 0 -1 -1h-1v-1l-3 -3l-1 -1v-1q-1 0 -3 -2v-1l-2 -2l-3 -3l-3 -3l-1 -1q0 -1 -1 -2h-1q0 -1 -0.5 -1t-0.5 -1q-1 0 -2 -1l2 2q1 0 1 0.5t1 0.5
q0 1 1 2zM185 59h1h-1zM188 62v1v-1zM193 64l-1 -1zM200 84l1 1q-1 0 -1 -1zM211 97l1 1zM215 104q-1 0 -1 -1zM201 57q-1 -2 -2 -2.5t-1 -2.5q0 1 1 2t2 3zM256 168q-2 0 -2 1q0 -1 2 -1zM221 84h-1l-1 -1q-2 -2 -2 -3q-2 -2 -2 -3h-1l-2 -3q0 -1 -1 -1v-1l-1 -1v-1v1
q1 0 1 1l2 2l2 2q0 1 1 1q0 1 1 1v1q1 1 1 2q1 0 1 1l1 1v1h1zM172 13l-4 -5q0 -1 1 -1l9 14l2 3v1q3 3 4 6q2 3 4 7l3 6l1 1q0 1 1 2q0 2 2 4q0 1 1 3v1q-1 -1 -2 -4q-1 -1 -2 -4q-1 -1 -2 -4q-1 -1 -2 -4l-1 -1q0 -1 -1 -2q-2 -2 -3 -5l-3 -6l-1 -1l-1 -1q-1 -4 -6 -10z
M112 734q0 -1 -1 -5t-2 -7.5t-1 -7.5zM125 -5h-1q5 -8 9 -4q-7 0 -8 4zM88 634l-8 -51h1l8 52q1 7 12 50v1q-7 -16 -13 -52zM87 497v26v-26v-27h1q0 18 -1 27zM72 487l-2 -46q-3 -17 -5 -47q1 6 2 18t3 18q2 26 2 38q1 12 1 37q0 3 -0.5 9t-0.5 10v9q0 10 1 10q2 2 -1 2
q-1 0 -1 -11q1 -15 1 -47zM83 85q2 -7 1 -8v1q0 5 -1 7zM100 -8v1q-15 6 -24 27q-8 23 -11 42q-6 27 -6 90q-2 -63 5 -94q6 -30 13 -43q7 -19 23 -23zM109 10l1 1q-12 16 -13 20q-3 7 -5 23h-1q2 -28 18 -44zM94 574q4 16 6 33h-1q-1 -5 -3 -17t-3 -17q-2 -6 -4 -33
q1 5 2 16.5t3 17.5zM100 617q3 5 3 9h-1q0 -1 -2 -9z" />
    <glyph glyph-name="u" unicode="u" horiz-adv-x="405" 
d="M5 255q-17 63 -23 118q-6 52 -9 104q15 12 31 13q35 5 60 -5q1 0 29 -8q31 -5 41 -27q0 -16 2 -22q3 -39 4 -46q0 -9 1 -25t1.5 -29t0.5 -25q-4 -54 16 -132q2 -5 28 -62q9 33 9 35q0 19 11 70q0 2 1 5t1 5q2 69 6 92q1 8 2.5 25.5t3.5 27.5q5 24 -3 62q9 24 18 33
q2 -1 10.5 -2.5t11.5 -4.5q21 -17 63 -33q27 -8 27 -35q-5 -36 -6 -65v-102q0 -14 6 -44q3 -19 6.5 -54.5t8 -63t12.5 -52.5l4 -14q20 5 43 40q13 17 37 60q0 2 3 3q2 2 4.5 7.5t3.5 7.5q8 24 11 39q-2 6 1.5 11.5t10.5 5.5q11 0 17 -17q1 -7 1 -22q3 -4 0 -7
q-5 -16 -15 -37q-2 -6 -13 -32.5t-13 -42.5q-5 -31 -19 -56q-1 0 -3 -3q-10 -20 -14 -25q-7 -17 -20 -29l2 -2l-22 -11q-2 -2 -5.5 -3.5t-5.5 -2.5q-8 2 -24.5 3t-24.5 3q-55 30 -80 148q-11 -4 -40 -23q-37 -29 -76 -7q-22 14 -35 18q-23 8 -31 21q-39 55 -46 79
q-1 2 -3 17q-3 17 -8.5 57t-9.5 61zM448 24v-1v1zM422 -32q0 2 2 3.5t2 3.5q0 -2 -2 -3.5t-2 -3.5zM392 -30l1 -1zM389 -53v-1v1zM478 104h-1h1zM462 69l2 3zM348 -79v1l-3 3h-2l2 -2t3 -2zM376 -81v-1q3 -1 5 -3h1h1q2 0 2 1t-2 1h-1h-1h-2q0 1 -1 1q-1 1 -2 1zM302 -49
q2 0 2 2q-15 21 -21 71q-2 55 -8 78q4 -16 6 -48.5t2 -36.5q2 -44 19 -66zM327 -78l-6 6l-4 8q0 -10 10 -14zM309 27h-1q-6 -57 23 -81h1q-17 25 -19 35q-1 5 -4 46zM297 378h-2v-18h1l1 1v8v9zM291 343v-1v-4v-20q0 -18 -3 -37h2q4 33 3 66q0 -1 -1 -1t-1 -1v-2v-8v8z
M288 251v8v-8zM266 306q-2 -70 -2 -104q2 18 2 52t2 52q0 18 2 51.5t3 51.5h-1q-1 -18 -2.5 -52t-3.5 -51zM143 52q-3 -7 5.5 -11.5t14.5 -4.5q-2 1 -6 2.5t-6 2.5q-11 4 -8 11zM126 65l-1 1v-1q5 -5 9 -5v1l-1 1q-1 1 -3 1zM108 376q0 -45 2 -58h1q0 10 -0.5 29.5
t-0.5 28.5q0 44 -2 57h-1q0 -10 0.5 -29t0.5 -28zM107 301v-29h1q0 18 -1 29zM93 64q36 -48 94 -54l1 1v1q-61 7 -95 52zM59 140h1q-2 14 -5 23q0 10 -5 10q0 -1 6 -17q0 -2 0.5 -5l1 -6t1.5 -5zM63 184q1 -3 3 -7l1 -4q0 2 -2 5.5t-2 5.5zM44 296q-2 -16 5 -45t8 -33h2
q-1 10 -9 36.5t-6 41.5zM34 356q0 1 -1 0l2 -5q0 4 -1 5zM13 402q-2 -69 6 -108q1 -12 8 -51q8 -36 15 -54q-3 15 -14 52q-2 9 -9 54q-6 54 -6 107z" />
    <glyph glyph-name="v" unicode="v" horiz-adv-x="403" 
d="M69 145q-6 46 -13 70q-6 27 -20.5 103.5t-23.5 117.5q7 4 20 4q45 -2 66 -23q3 -3 6 -5.5t7.5 -5t7.5 -5.5q28 -61 49 -138q5 -18 14.5 -52.5t15.5 -51.5q4 -21 19 -39q4 1 4 3q26 67 29 94q5 31 17 70q6 25 3 38q-13 15 -25 18q-68 27 -79 104q-2 19 0 73q3 36 33 59
q2 2 28 21q9 0 28 1t29 1q7 0 11 -2q6 -3 36.5 -13t46.5 -19q29 -21 36 -34v-33q-1 -1 -6.5 -5t-9.5 -8q-20 -91 -23 -124h3q25 5 39 5h4q10 2 17 5h2h4l8 3h2h1q1 1 5 1l1 1v1q4 4 13 2h1q6 1 8 3q0 3 2 3l13 3q5 0 6 -1l1 1q2 5 5 0v-1h3q6 2 7 1q7 -4 6 -11q0 -6 -4 -6
q-3 -4 -14 -8l-4 -4q-41 -22 -78 -35h-4q-10 -4 -30.5 -10t-30.5 -9h-3q-2 -8 -4 -10q-2 -10 -2 -13l-2 -12q-2 -10 -6 -31.5t-7 -31.5q-4 -14 -13 -47t-13 -50q-4 -37 -35 -82q-4 -4 -8.5 -12.5t-7.5 -12.5q-1 -3 -3 -8.5t-4 -10t-5 -8.5q-26 -14 -64 -8q-13 1 -30 11
t-25 12q-9 7 -13.5 16t-8 21.5t-5.5 17.5q-4 4 -4 7q-1 8 -12 25.5t-11 30.5q-1 16 -6 33zM224 515q0 -4 1 -6v6q0 1 -1 0zM208 478q-8 -25 -4 -46h6v2q-6 0 -6 8v11q0 5 2 14.5t2 10.5zM232 380q1 0 1 1q-34 24 -43 56q-11 37 10 75q-21 -32 -12.5 -73.5t44.5 -58.5z
M282 174h1q18 20 21 47q-3 -22 -22 -47zM415 335h-1h1zM440 350h2h-2zM399 348h-1h1zM436 355h2h-2zM396 351h3h-3zM391 346h-2h2zM475 364q0 3 4 3q-4 0 -4 -3zM471 369v1v-1zM361 313h-1h1zM352 362v1q0 3 -1 3l-1 1v-1q1 0 1 -3v-1v-2v-1v-1q0 -1 -1 -1v-2v-1q-1 0 -2 -1
q0 -1 -2 -3v-2v-1h-1q0 -3 -2 -3v-1v-1q-1 0 -1 -1v-1h-2q0 -5 -1 -5v-1q-1 -1 -1 -2q-1 0 -1 -1v-1v-1h-1v-1q-3 -2 -3 -3q-1 0 -1 -1v-1l-1 -1q0 -1 1 -1v1q1 1 1 3h3v2l1 1v1h1v1v2h1q0 2 1 2v1l1 1l1 1v3h1v1l1 1l1 1v1l1 2v1q0 1 2 1v2h1q1 1 1 3q0 1 0.5 1t0.5 1v2v1
l1 1v1v2zM377 528l-11 -65q-1 -9 -4.5 -30t-5.5 -34q8 34 11 64q3 12 6.5 36.5t4.5 28.5h-1zM350 434l-8 -41h1q12 36 7 78q0 1 -1 1t-1 -1q2 -9 2 -37zM290 534q-36 -26 -30 -69q0 -4 8 -48q1 -1 7 -12t15 -17q2 12 6 37t5.5 36t2.5 36t-3 37h-11zM122 112h1l-12 41
q7 -34 11 -41zM205 29h-18q11 -1 18 0zM156 31q2 -19 21.5 -25.5t41.5 -3.5q-60 0 -63 29zM144 142q-2 -11 6 -18v1q-6 13 -5 17h-1zM132 249v14v-14zM105 259q5 -15 15 -46.5t14 -47.5q-12 45 -29 94zM96 303v9v-9zM58 367h-1q-1 0 -1 -1l20 -93l13 -43q9 -33 15 -42
q-2 8 -7 22.5t-7 20.5q-9 33 -14 45q-3 13 -8.5 43.5t-9.5 47.5z" />
    <glyph glyph-name="w" unicode="w" horiz-adv-x="534" 
d="M595 305q3 0 3.5 -3t-1.5 -5l-15 -15l-30 -19q-35 -19 -50 -21q2 -24 2 -35q-3 -8 -5 -26l-20 -97q-3 -14 -14 -39.5t-14 -38.5q-5 -5 -10 -6q-30 -7 -58 5t-39 42q-4 12 -12.5 34.5t-15 41t-11.5 35.5q-3 9 -7.5 24.5t-5.5 20.5q-4 -8 -13 -45q-2 -6 -4 -18t-4 -18
q-4 -16 0 -31l-11 -22q-11 -10 -28 -12l-15 -4q-12 -5 -24 -3h-11q-10 -1 -16.5 -0.5t-17 2t-19 5.5t-14.5 10q-15 17 -33.5 60.5t-29.5 83.5q-24 78 -19 192q1 33 6.5 63.5t10.5 45.5t8 18q5 3 45 -10q0 -1 2 -1q34 -16 35 -16q15 -6 18 -19q12 -29 13 -49q1 -25 9 -73
q1 -7 1 -17q-1 -39 14 -105q1 -5 20 -62q0 -1 1.5 -2.5t3 -3.5t2.5 -4q16 28 20 57q3 22 10 86q2 3 0 17t-2 17q-2 14 -1 22q2 18 20 20q13 1 25 -3q2 0 4 -2q2 -1 3 -2q8 -3 15 -9q14 -12 16 -50q4 -29 16 -74q3 -12 18 -57.5t20 -71.5q4 -18 15 -36q2 -1 5 -2q10 8 16 35
q2 10 8 39.5t8 50t1 40.5l-33 23q-3 4 -9.5 8.5t-10.5 7.5q-33 47 -44 84q-10 34 -10 69q-1 31 12 66q11 30 41 24q4 0 30 -9q3 -4 8 -5q3 -2 10.5 -6t13 -7.5t9.5 -8.5q16 -21 26 -45q2 -6 4.5 -18.5t3.5 -14.5v-7t2 -10q11 -28 11 -96v-12h5h1l23 4q2 0 3 -3q4 2 16 4h1
q4 1 9 3.5l7 3.5q3 1 4 0l11 9q3 3 4 1q6 1 7 -1v-1q1 -1 1 -3zM200 98v-1h13q3 0 5 2q-1 -1 -18 -1zM156 238q4 -13 15 -28q1 0 1 1q-4 4 -16 27zM159 99v-1q19 -23 71 -29v1q-37 7 -39 8q-22 9 -32 21zM149 167q0 1 -1 0q0 -1 1 -2q1 -2 1 -3q0 -2 3 -2l-1 1q-1 1 -2 3v1
q-1 1 -1 2zM145 145h1q0 1 -2 2t-3 3q-2 2 -2 6h-1v-2l1 -2q1 -2 1 -3q4 -4 5 -4zM121 266q0 -18 5 -40q2 -7 7.5 -19t7.5 -20h1q-1 9 -7 21t-7 16q-3 7 -4 22t-2 20q0 1 -1 0zM116 288h-1q1 -5 5 -8q-4 4 -4 8zM126 177q-2 9 -7 22.5t-6 16.5q-3 10 -10 39q-9 35 -14 82v1
q-2 -2 -1 -4l1 1v-4v-5q1 -1 1 -9q2 -14 2 -21l8 -41q1 -4 3.5 -12.5t4.5 -15t4 -11.5q8 -29 14 -39zM87 413q2 7 4 38q2 25 5 37h-1q0 -6 -2 -18.5t-3 -19.5q-3 -36 -3 -37zM99 436h1v10q1 10 3 15h-2q-2 -16 -2 -25zM233 83h-1l-18 2q-1 0 -1 -1q13 -2 20 -1zM246 91h1
q0 1 1 3h-1l-1 -1v-2zM316 215v-1l1 1l-8 31q-4 26 -7 37q-2 7 -4 33q0 15 -6 21q0 1 -1 0q4 -5 7 -29l3 -31q2 -5 3.5 -15.5t2.5 -15.5zM323 272v4v-4zM331 171q0 7 -7 23h-1q6 -9 8 -23zM331 207q-4 16 -6 37q2 -25 6 -37zM382 23v1q-19 14 -29 34q-4 8 -11 50h-1
q7 -40 12 -51q12 -26 29 -34zM383 38q1 0 1 1q-9 9 -17 22q4 -13 16 -23zM400 14q-1 1 -5 1h-3v-1h5h3zM418 25h6v1h-6v-1zM450 467q0 1 -1 0q3 -6 9 -16t7 -12t4 -12.5t5 -15.5q0 -1 1 0q-8 32 -25 56zM466 149v1v-1zM387 491q-1 -1 -4 -2h1q1 0 3 2zM412 299l-11 12l-9 14
q5 -18 20 -26zM358 488q8 25 27 25v1q-21 1 -27 -26zM382 505v1q-7 -1 -14 -11h1q1 1 6 7zM427 271v1q-30 20 -43 38q-16 24 -21 53q2 -28 20 -54t44 -38zM427 286v1v-1zM450 305q0 47 -1 53q-6 24 -9 52q-3 19 -9 30t-24 28v-32q3 -13 2 -16q-6 -21 8 -64q5 -18 14 -32
q4 -12 19 -19zM457 110h1q5 9 7 21zM471 120q9 35 12 42q0 1 -1 2l-12 -44q-1 -5 -5 -19.5t-6 -22.5h1q3 8 6 22t5 20zM481 270v4v1v1v1v1h-1q-1 0 -1 -1v-1v-1v-1v-4v-2v-2v-1v-2v-1v-1v-2v-2v-2v-2v-1v-1v-1q0 -1 -1 -4v-2v-4q1 1 1 3v3q2 2 2 4v1v1v1v2v2v1v1v1v1v1v1v2
v1v2v2zM479 376v4v5h-1v-5q0 -3 1 -4zM487 235v-9q0 2 1 5t1 4h-2zM491 288v20q0 -4 -0.5 -10t-0.5 -10v-1v-2q0 -1 -1 -1v-4v-2v-1v-1v-1v-3v-1q0 -2 -2 -4v-1v-4v-1v-1v-3v-2v-1v-2v-1v1l1 1l1 1v1v2v1v3v1q0 3 1 4v1v1v3v3v1v1v1v1q0 5 1 6v1v2v1z" />
    <glyph glyph-name="x" unicode="x" horiz-adv-x="318" 
d="M313 94l3 2l11 13q2 2 3 2l2 2q2 2 4 2l4 3l3 3v1q18 15 39 27q0 1 2 1q0 2 3 2q1 1 6 1q6 2 7 -2q1 -1 1 -2q3 -3 0 -6v-1q-1 -2 -8 -7q-3 -3 -8 -5q-1 -3 -4 -4h-1q-3 -1 -7 -5q-1 -1 -3 -2t-4 -3l-3 -3q-12 -14 -22 -29q-21 -33 -24 -38l-31 -56l-3 -2q-3 -5 -10 -6
q-8 -11 -22 -15q-4 -1 -19 -5.5t-24 -6.5q-14 -2 -16 -2q-18 6 -26 10h-1q0 1 -0.5 1t-0.5 1l-5 6q-10 10 -16 21q-8 31 -18 59q-1 2 -2.5 4t-1.5 3l-2 12q0 8 -5 13l-13 60q-3 -3 -14 -22q-16 -23 -37 -66q-8 -14 -22 -24q-8 -8 -18 -2q-10 7 -7 18q2 10 5 16q44 89 58 112
q5 8 11 24q0 9 -2.5 17t-8.5 21t-7 15q-3 26 -27 95l-24 79l4 12l4 5q26 7 35 7q26 -2 35 -23l20 -34q26 -46 37 -70l5 -4q5 4 12 14.5t8 12.5q48 74 57 93q2 8 5 11l12 14q20 2 27 -3.5t11 -23.5q-8 -13 -9 -16q-48 -72 -71 -108q-2 -3 -28 -46q1 -3 2 -8.5t3 -8.5
q16 -54 21 -66q4 -11 11 -33t11 -33q8 -25 17 -41q1 -2 2.5 -2.5t1.5 -2.5l8 -15l2 -3l5 -10q4 -3 11 -1q4 3 10 5l6 8q0 1 1 1q5 6 14 18t15 19zM213 361q-4 -3 -9.5 -10t-8.5 -10q-9 -11 -8 -15q0 3 12 18q2 3 7 8t7 9zM213 382q-3 -3 -3 -7q0 4 3 7zM200 360
q-5 -3 -16 -14q0 -1 1 -1q2 3 4.5 5.5t5.5 5t5 4.5zM28 418v3h-1q0 -2 1 -3zM42 379q-7 11 -7 23q0 -12 7 -23zM68 142q-3 -4 -3 -10h-1q1 2 2.5 5.5t1.5 4.5zM63 116h1q1 5 8.5 18.5t5.5 22.5q1 -9 -6.5 -22t-8.5 -19zM325 105l-6 -6zM262 2h1l2 4h-1q-1 -1 -2 -4zM271 27
l-2 -3zM324 91l3 4zM317 83q2 2 2 3q0 -1 -2 -3zM328 89l2 2h-1q0 -1 -1 -1v-1q-2 0 -2 -2q-1 0 -1 -2h-1l-1 -1q0 -2 -1 -2v-3v1l2 3v1q1 0 1 1q1 1 1 2h1q0 1 1 1v1zM296 40v1v-1zM307 60q0 1 1 1l1 1v1h1q0 1 2 3v1l3 3v1h1v1l-1 -1l-2 -2q0 -1 -0.5 -1t-0.5 -1l-1 -1h-1
q0 -1 -1 -2q0 -1 -1 -1q0 -1 -0.5 -1t-0.5 -1l-2 -2q-1 -2 -2 -3t-1 -2l-2 -2q0 -1 -2 -3v-1l-1 -1l-2 -3l-2 -4q0 -1 -1 -1q0 -1 -1 -2v-1l-2 -3v-1l-1 -1v-1l-1 -2q-1 -1 -1 -2q-1 -1 -1 -2v-1q-1 0 -1 -1v-1l-1 -1v-1q-1 -1 -1 -2t-0.5 -1t-0.5 -1v-1v1l2 3v1l1 1
q0 1 1 2v1v1q1 0 1 1v1q2 2 2 4q1 0 1 2h1v1q0 1 2 3v1l2 3l2 3q0 1 1 2v1l1 1l1 1v1q1 0 1 2h1q0 1 0.5 1t0.5 1l4 5q0 1 1 2zM315 80v1v-1zM265 -3q0 -1 -1 -2zM329 101v1v-1zM233 62l1 -1v-2l2 -2v2h-1q0 1 -2 3zM88 295q6 -18 10 -27l12 -24l-12 26zM81 322q0 -8 2 -14
h1q-3 9 -2 13q0 1 -1 1zM116 186v1q-2 4 -4 11t-3 11l-8 23l-15 43l-15 43q-2 4 -4 11t-3 11q-1 1 -3 4t-4 5q-1 0 0 -1q2 -1 9 -18q2 -4 3.5 -11t3.5 -10l14 -40q1 -4 6.5 -18t7.5 -23q3 -6 7 -20l3.5 -10.5t4.5 -11.5zM120 216v1l-8 21h-1zM175 -10v1q-2 6 -7 14.5
t-7 14.5q-10 22 -14 33q-10 28 -11 31q-2 3 -3 8.5t-3 7.5q-2 12 -5 17q0 -5 1.5 -10t4 -11.5t3.5 -10.5l12 -33q3 -7 13 -30q11 -24 16 -32zM195 -4q-12 9 -18 18q-7 8 -10 23q6 -31 28 -41zM209 -21q-8 0 -11 1v-1q7 -1 11 0zM212 -1v1q-1 -1 -2 -1h-2q-1 0 -1 -1q4 0 5 1
zM214 79q-2 9 -4.5 18.5t-5.5 21t-5 17.5q-4 10 -8.5 29t-8.5 28h-1q3 -9 16 -57q3 -9 8 -28t9 -29z" />
    <glyph glyph-name="y" unicode="y" horiz-adv-x="349" 
d="M440 364h5q5 0 3 -6q-3 -6 -6 -9q-1 -1 -1 -2l-4 -3q-7 -6 -13.5 -12t-14 -13t-11.5 -11q-6 -5 -15.5 -14.5t-14.5 -13.5v-1q-23 -29 -47 -56v-36.5t2 -45.5q3 -30 5 -179v-45t1 -45q2 -20 -8 -105q-1 -10 -5 -27t-5 -26q-16 -62 -24 -76q-2 -2 -3 -6.5t-2 -6.5
q-6 -16 -16 -29q-6 -6 -10 -13q-11 -21 -38 -23q-21 -3 -49 17q-35 26 -40 28q-24 11 -29 14q-33 20 -47 58l-9 23q-9 16 -15 66q0 2 0.5 7t0.5 7q1 3 1 12q0 29 18 110q5 27 15 48q32 75 36 83q10 21 27 46l22 35l32 47q5 8 13.5 21t14.5 20q2 22 -5 33q-3 -6 -7.5 -19
t-8.5 -20q-3 -7 -8.5 -18.5t-7.5 -15.5q-8 -16 -21 -20l-16 -3q-5 1 -15 2.5t-16.5 2.5t-16 4.5t-17.5 8.5l-5 4q-5 4 -8 8q-17 36 -20 46q-2 5 -8.5 28t-11.5 35q-1 7 -1 16q-1 43 -1 128q0 37 -15 77q2 9 10 10l28 3h4q6 -2 19 -4t19 -3l33 -10q6 -8 10 -15v-19
q-5 -35 -6 -65q-2 -30 0 -59l8 -73q3 -22 13 -59l5 -8q28 43 31 98q2 40 5 65l2 14l3 83q2 29 -4 49q-1 0 -0.5 3.5t0.5 4.5q1 0 4 2t5 2q34 3 66 -13q26 -14 32 -41q7 -26 7 -32q0 -7 1 -9q4 -27 14 -81q-1 -21 5 -59q2 2 3 2q6 6 7 8l2 1h2l13 11l1 1l4 2q0 1 1 1
q10 10 22 15q1 1 2 1l28 16q3 3 10 7t11 6h1l8 6q7 4 9 4q2 2 2 0zM41 344q0 6 -0.5 19.5t-0.5 21.5q-2 33 -4 40q-2 27 -5 39l4 -39q1 -7 4 -41l2 -40v-13.5v-15v-12.5q1 19 0 41zM72 220q0 -17 12 -24v1q-12 9 -12 23zM50 436q0 -8 1 -9q0 6 -1 9zM48 400l3 -33v-32v1v32
q0 17 -3 32zM88 179q-4 0 -8 2t-6 5t-6 8t-5 7q-9 19 -11 32l-1 -1q3 -19 14 -35q11 -22 23 -18zM88 218v1l-1 1q0 -2 1 -2zM132 162q-14 0 -26 5h-1q10 -5 27 -5zM431 350q2 2 3 2q-1 0 -3 -2zM277 167v-1q0 -10 1 -15q0 3 -0.5 8t-0.5 8zM260 156l2 -34q0 6 -0.5 17
t-0.5 17v6q0 4 -1 5v1v2v1v5v-5v-1v-3v-1v-4v-6zM269 197v11q-2 -6 0 -11zM286 345q0 -19 1 -28q0 4 -0.5 13t-0.5 15zM269 471q6 -40 7 -54l6 -54q-6 72 -13 108zM272 383l-8 32q1 -8 8 -32zM254 468q-1 -2 -1 -9q1 2 1 9zM254 431q5 -46 12 -86q-1 8 -12 86zM259 -251v3
v-3zM245 -328h1q6 9 11 23q3 7 3 14q1 1 1 5q0 8 1 8q-2 0 -2 -4q0 -10 -2 -16q-1 -4 -13 -30zM205 132l-7 -6q2 1 7 6zM128 57h-1q3 3 9.5 10.5t10.5 11.5q-9 -8 -19 -22zM135 36q-7 -12 -18 -25q11 11 17 22q4 4 9.5 13t8.5 13q23 36 30 52h-1l-29 -52q-10 -16 -17 -23z
M166 58q-9 -7 -14 -24q3 13 14 24zM213 -227q0 1 3 44q0 32 3 47q1 16 0 33q-2 10 -4 76q0 19 -1 27q-3 19 -3 52v32l-17 -22q-27 -32 -41 -80l-7 -12q-16 -21 -25 -54q-1 -3 -3 -10t-4 -10q-8 -15 -14 -45q-1 -4 -2.5 -11.5t-3.5 -11.5q-4 -17 -6 -54q-1 -5 0 -13.5
t1 -11.5q2 -14 2 -17q0 -22 12 -41l33 -45q2 -2 5 -4.5t4 -3.5q26 1 43 30q3 6 10 27q8 19 15 78zM265 -339q-4 -6 -9 -17t-9 -16q-11 -24 -20 -28q10 4 18 23q4 7 11 20.5t9 17.5zM289 -264q4 25 -1 57q4 -30 0 -58q-2 -15 -6 -25q-2 -6 -10 -29h1q11 21 16 55zM289 80h1
q1 16 -4 39h-1q4 -17 4 -39zM290 138h1q0 8 0.5 22t0.5 22v2v11v1v4v2v1v6v3v1v1v2v3v6v1v1v3v1v1h1h-1v1v4v2v1v2v1v1v1v4v1v1v1v3v1v1v1v1v1v2l1 1v1h2h1h-1h-3v-1v-2v-1v-2v-2v-1v-4v-1v-1v-1q-1 -1 -1 -4v-1v-1v-1v-2v-1v-1v-6v-1v-1v-3v-1v-1v-6v-3v-2v-1v-1v-3v-6v-1
v-2v-4v-2v-10v-2q-1 -15 -1 -43z" />
    <glyph glyph-name="z" unicode="z" horiz-adv-x="413" 
d="M218 488q22 4 50 -13q13 -13 10 -31q0 -12 -1 -17l-10 -59q-5 -28 -31 -58q-28 -32 -44 -52l6 -2q47 -2 76 -20q4 0 5 -1q6 1 16.5 7.5t13.5 7.5q2 -1 6.5 -1.5t6.5 -0.5l13 -8l86 51q38 22 48 0q10 -19 -9 -39q-9 -9 -22 -13q-24 -15 -57 -30q-15 -6 -35 -18
q-12 -5 -17 -16l8 -32q8 -24 8 -44q0 -56 -6 -79l-3 -14q-36 -96 -77 -137q-13 -16 -30 -26q-5 -3 -17 -10.5t-19 -11.5q-30 -14 -54 -14h-45q-36 -1 -69 28l-7 9q-17 60 9 137l10 28q21 44 42 64q9 7 23 22t16 18q21 21 92 72q-2 13 -6 17t-20 11q-6 -1 -43 -21l-11 -7
q-3 -2 -7.5 -2.5t-7.5 -1.5q-3 1 -14 5t-15 6.5t-9.5 9.5t-6.5 18q14 18 42 49q7 6 20.5 16t18.5 15q8 6 12 13l28 53q-16 6 -30 1q-60 -12 -123 -15q-19 56 -22 79l8 20q6 2 16 3.5t15 3.5q4 1 18 3.5t21 4.5q16 4 89 17q13 3 35 5zM466 282q3 3 7 5q-4 -4 -7 -5zM289 195
v-1l7 3h-1q0 -1 -1 -1t-2 -1l2 2q2 1 9 4l18 9l36 18l72 36l-69 -34q-8 -4 -33 -16t-38 -19zM294 78v-4v4zM293 33l-9 -27q0 -1 1 -1q3 5 6 16t3 12q2 15 0 30h-1q1 -15 0 -30zM282 -46q0 -1 1 -1q7 11 18 40q9 29 11 45q6 44 -3 87h-1q9 -44 3 -89q-3 -14 -10 -41
q-5 -15 -19 -41zM275 -23q3 3 3 10h-1v-5q-1 -1 -1 -3q-1 -1 -1 -2zM170 127v1v-1zM91 59l-3 -3q-4 -4 -5 -7t0 -6h1l6 3v1q-3 -3 -5 -3q-2 2 0 5l2 2t1 3q6 6 7 8q3 4 8 9t7 8q11 11 35 29q-15 -9 -37 -31q-14 -15 -17 -18zM113 64h4q-2 0 -3 1l2 2q1 1 2.5 2t1.5 3l10 8
q-13 -8 -17 -16zM70 -159q21 -3 34 -2q36 2 63 23v1q-26 -19 -57 -23q-16 -1 -31 0l-14 3q-16 3 -16 9h-1q0 -2 1 -3t3 -2t3 -2q10 -3 15 -4zM136 -135l-13 -9q-1 -1 0 -1zM206 -130q-8 -4 -20.5 -13.5t-15.5 -11.5q-5 -5 -17 -11q-2 -2 -5.5 -2.5t-5.5 -2.5q-2 0 -2 -1h-3
l-2 1h-1v-1l-1 -2q17 3 37 18q12 8 36 26zM172 -126q4 3 18 17q-4 -3 -18 -17zM210 -121l8 7l-1 1q-5 -7 -7 -8zM239 36l-8 -26l-8 -28h1q4 14 10 31l8 31q3 13 3 28l-2 14q-1 5 -5 7q5 -4 5 -15q1 -3 1 -14q-2 -20 -5 -28zM226 40v1q-4 -7 -10 -21q0 -1 1 -1zM210 50l3 15
q0 31 -1 34q-5 0 -8.5 -2t-7.5 -6t-6 -5q-34 -26 -49 -45q-11 -14 -28 -41.5t-22 -34.5q-10 -16 -10 -37q0 -3 -1.5 -18t-1.5 -24q-1 -10 0 -20q0 -2 3 -4t3 -4h5q1 0 7 2q40 20 67 64q26 42 47 126zM224 351q-1 -1 -4 -3t-5 -4q2 2 5 4t4 3zM215 462l-13 -3q3 0 13 2
q1 0 0 1zM84 427q-2 0 -2 -1h-3q1 0 2 0.5t3 0.5zM117 449l-70 -9l71 9q46 6 70 11q-20 -2 -71 -11zM124 436v-1q68 9 91 14zM178 295h1l24 25q1 1 0 1zM247 358h-1l-36 -47l-19 -23q-4 -4 -11.5 -13t-8.5 -10q0 -1 1 -1q4 4 10 12t9 11t9 11t10 12q13 16 37 48z" />
    <glyph glyph-name="h.001" horiz-adv-x="422" 
d="M495 256q5 11 8 -7q6 -41 -8 -103q-28 -113 -64 -240v-1q-1 -4 -2 -9.5t-3 -8.5l-2 -8q-2 -7 -6.5 -17.5t-8 -19.5t-5.5 -17q-3 -9 -12 -24t-11 -20q-21 -18 -42.5 -16.5t-41.5 14.5q-2 1 -9 11q-15 25 -21 59q-1 8 -2 21t-3 21q-3 14 -3.5 29.5t0.5 37t1 30.5q0 14 2 84
v12q0 7 -2 31t1 30q1 5 4 59l2 61q0 44 -3 59q-1 2 -3 8t-4 9q-40 -18 -78 -77q3 -64 21 -124q2 -7 15 -35l13 -25q4 -16 14 -27q15 -15 -3 -25q-16 -9 -22 -22q-13 -9 -24 -6q-37 8 -51 23l-25 68q-7 16 -12 18q0 -1 -2 -3l-7 30q-19 63 -28 109q0 38 1 43q-2 11 -3 30.5
t-2 28.5q-6 54 -6 80q0 12 -1 36t-1 36q2 16 2 45v36l4 25q0 1 0.5 4t0.5 5q1 13 3 38.5t4 39.5l-78 13q-105 15 -172 1q-97 -22 -120 -77q-13 -27 2 -76q12 -40 43 -58q58 -31 118 35q6 7 14.5 1.5t5.5 -13.5q-13 -48 -64.5 -63.5t-92.5 8.5q-40 19 -58 65.5t-12 93.5
q14 79 130 118q83 25 204 5q52 -7 102 -18q33 -7 55 -15q20 -7 39 -23q4 -3 2.5 -8.5t-6.5 -6.5q-2 -14 -2 -17q-5 -25 -5 -44q0 -7 1 -21t1 -21q0 -16 -1.5 -58t0.5 -58q1 -8 -2 -46q-3 -16 3 -48l9 6q16 16 42 25q5 2 26 11q34 15 75 -3q24 -10 30 -36l14 -50q2 -7 4 -30
q3 -15 5 -47q2 -26 2 -31l-3 -75q1 -10 -2 -28.5t-3 -27.5t-2 -56q0 -3 -2 -17q-8 -43 4 -83q2 8 9 22t8 21l20 41q22 46 40 97q4 14 21 79.5t21 76.5zM154 131h1q-2 6 -6.5 18t-5.5 14h-1zM113 594v2l1 1h1h-2v-5q2 0 0 2zM81 587v1v-1zM97 463l-3 96q2 80 4 97h-1
q-4 -43 -4 -97q0 -64 3 -96h1zM108 540v29q-1 -11 -1 -30q0 -18 3 -27q0 4 -1 14t-1 14zM168 68l-20 31q-9 19 -14 35l-11 36q-2 4 -6 17.5t-8 20.5q1 -3 3 -10t4 -11q2 -3 4 -10t3 -11q2 -6 5.5 -18t5.5 -17q15 -44 34 -63zM173 101l1 1l-8 11q-1 0 -1 -1q5 -5 8 -11z
M204 336l12 8q-4 -2 -9 -5.5t-8 -5.5q-7 -7 -7 -10q0 4 12 13zM200 351l31 21q-13 -7 -37 -25q-9 -6 -16 -13q-8 -8 -8 -10h1q-2 3 3 7q1 0 1.5 0.5l1.5 1.5l7 6zM344 61q0 -9 4 -8q0 1 -1 1q-2 0 -2.5 2t-0.5 7l1 5q2 10 2 12q2 4 4 23q4 20 4 46q1 41 -8 93h-1
q10 -48 8 -105q-2 -26 -7 -52q0 -3 -1 -7.5t-1.5 -8.5t-0.5 -8zM334 154l-2 35q0 -5 0.5 -17t0.5 -18t-0.5 -18t-0.5 -18h1q1 12 1 36zM332 -141v1q-5 -11 1.5 -21.5t18.5 -8.5q-12 1 -18.5 9.5t-1.5 19.5zM320 212h-1v-2v1h1v1zM362 -193q-16 -15 -35 4q-7 7 -14 34
q-5 21 -6 40v41q-2 -12 0 -46q1 -18 7 -44q6 -22 19 -31q16 -13 29 2zM367 -165q1 0 2 -1q-2 0 -2 1z" />
    <glyph glyph-name="_0023" 
 />
    <glyph glyph-name="_0009" 
 />
    <glyph glyph-name="h.002" horiz-adv-x="385" 
d="M648 857q18 -31 7 -63q-17 -52 -109 -92q-84 -36 -225 -42q-9 -34 -9 -56q0 -14 1 -21l4 -12q1 0 1 -1q17 0 21 -15q6 -22 -14.5 -29t-34.5 8q-22 22 -22 66q0 27 8 59q-6 0 -20 -0.5t-20 -0.5q-29 0 -91 2q-4 -20 -4 -43q0 -6 2 -42q0 -8 -1.5 -58t0.5 -58q0 -1 -3 -46
q-1 -19 4 -48l8 6q12 11 42 25q19 7 26 11q36 15 75 -3q24 -11 31 -36q11 -38 14 -50q2 -7 4 -30q1 -8 2 -23.5t3 -23.5q2 -22 2 -30q0 -6 -2.5 -33.5t-1.5 -42.5q1 -10 -1.5 -29t-2.5 -27q0 -18 -2 -56q0 -3 -2 -17q-8 -41 3 -83q2 8 9 22t9 22l20 41q22 45 39 97
q7 19 22.5 82.5t19.5 72.5q5 11 8 -7q6 -41 -8 -103q-15 -71 -63 -240v-1q-4 -9 -5 -18l-3 -8l-20 -54q-3 -9 -11.5 -24.5t-10.5 -19.5q-21 -18 -42.5 -16.5t-41.5 14.5q-3 2 -10 11q-15 25 -21 59q-2 7 -3 21t-2 21q-3 5 -2.5 48.5t0.5 48.5q0 14 1 42t1 43q1 2 1 5.5v5.5
q0 3 -2.5 30.5t1.5 30.5q1 7 4 59q0 10 0.5 30.5t0.5 30.5q2 40 -3 59q-1 7 -7 17q-38 -18 -77 -77q1 -59 21 -124q2 -7 8 -20t7 -15q11 -22 12 -25q5 -15 15 -27q14 -14 -4 -25q-16 -10 -22 -22q-12 -9 -24 -6q-36 9 -50 23l-25 68q-7 15 -12 18l-2 -3l-8 30
q-16 53 -27 110q-2 31 1 43q-3 11 -3.5 30.5t-1.5 27.5q-6 54 -6 80q0 9 -1.5 34t-0.5 39l2 80q0 1 3 25q2 8 2 10l4 49q-94 14 -139 26q-13 4 -10.5 18.5t15.5 14.5q30 -2 95 -7.5t114.5 -8.5t95.5 -3q61 0 92 1q14 28 30 47q43 54 116 95q78 42 143 35q48 -6 63 -29z
M333 -161l1 -1zM309 65q0 -4 0.5 -6.5t3.5 -0.5q-2 0 -2.5 2t-0.5 7l1 5q0 2 2 12l4 23q1 7 4 46q0 53 -9 93q11 -56 7 -104q-2 -26 -6 -53q-1 -4 -4 -24zM298 194h-1q0 -6 0.5 -18t0.5 -18t-0.5 -18t-0.5 -18h1q1 12 1 36t-1 36zM298 -136h-1q-5 -11 1.5 -21.5t18.5 -8.5
q-12 1 -18 10t-1 20zM286 216h-1q-1 -1 -1 -2h1q-1 1 0 1h1v1zM273 -70q-3 -22 0 -45q2 -25 7 -45q6 -23 18 -31q17 -13 30 2h-1q-15 -15 -34 4q-9 9 -15 35q-3 14 -5 40v40zM120 135q-4 17 -12 33q4 -16 12 -33zM79 598v2l1 1h1q-2 2 -2 0q-2 -1 -1.5 -2.5t0.5 -2.5
q1 0 1 2zM46 592v-1v1zM62 467h1q-3 96 -3 97q0 53 4 96h-1q-4 -43 -4 -96q0 -65 3 -97zM74 573q-2 -21 -1 -29q0 -22 2 -28h1q0 4 -1 14t-1 14v29zM133 72h1q-16 22 -20 31q-9 19 -14 35l-12 36q-9 30 -14 38q2 -4 4 -11t3 -10q2 -4 3.5 -10.5t3.5 -9.5l12 -36
q15 -44 33 -63zM139 105v1q-1 4 -8 11v-1q1 -1 2.5 -3t3 -4.5t2.5 -3.5zM181 348q-14 -8 -16 -10q-8 -8 -8 -11q1 4 12 13q9 7 12 8zM143 338q-1 -1 -4 -3t-3 -3v-4q0 2 7 9q5 5 7 6l6 5q6 6 10 8l31 20q-26 -14 -38 -25q-1 -1 -6.5 -5.5t-9.5 -7.5zM567 770q12 7 23 17
t17.5 24.5t-7.5 25.5t-55 9q-25 -1 -56 -14q-51 -20 -100 -67q-28 -26 -44 -53q62 5 114 16q62 14 108 42z" />
    <glyph glyph-name="a.001" horiz-adv-x="364" 
d="M427 297l3 -15q2 -15 -3 -50q-3 -26 -22 -117q-7 -37 -18 -82q-8 -15 -17 -19.5t-29 -4.5q-33 2 -54 23q-28 24 -35 44q-4 6 -11 5q-5 -5 -11 -24q-3 -9 -8 -26q-3 -2 -9.5 -3.5t-9.5 -2.5q0 -1 -0.5 -3t-1.5 -4.5t-2 -4.5q-13 -18 -43 -11q-55 12 -99 50l-7 9
q-18 27 -33 61q-7 15 -7 34q0 35 4 54q3 11 3 35q0 34 10 64q2 7 3.5 14t3.5 17t3 17q18 24 32 60q5 11 14 15l39 23q7 4 16 4q27 0 42 -1q26 -1 52 -19q2 -2 16 -10h6q4 3 6 11.5t2 9.5q5 24 10 41q1 1 6 1l-20 8q-37 10 -76 15q-77 11 -154 0q-85 -9 -138 -36
q-33 -18 -40 -38q-6 -8 -4 -35t15 -27q18 0 18 -17.5t-18 -19.5q-28 -4 -43 20t-13.5 52.5t8.5 49.5q23 45 96 69q75 23 154 28q80 5 157 -12q23 -6 36 -9.5t32 -12t32 -20.5t21 -28q4 -9 -2 -15q-2 -7 -4 -31q-3 -12 -5 -37l-9 -82l-3 -21q0 -3 -1 -9t-1 -10q-6 -44 -2 -72
q0 -4 1.5 -39t6.5 -53q1 -2 2 -7t1.5 -8t3 -7t6.5 -7q10 7 18 29q3 9 8.5 24.5t9.5 28.5t8 25l6 21l14 49q5 16 16 28q5 7 12 11zM187 417q-21 4 -46 -25q-25 -25 -32 -52h2q17 33 26 46q28 34 50 31zM123 53v1l-10 8q-2 1 -3.5 3t-3.5 4l-3 3q2 -6 9 -11q7 -7 11 -8z
M138 408v1q-17 -5 -27 -23h1q17 20 26 22zM119 410h1q1 3 4 4.5t6.5 2.5t5.5 2v1q-16 -7 -17 -10zM99 388q0 -1 1 -1l6 7l6 7q1 0 0 1q-12 -12 -13 -14zM79 87l-5 6h-1q1 -5 6 -7v1zM65 248q-6 -9 -1 -17h1v8q0 1 2 9h-2zM54 206q1 -1 1 0q-3 12 -1 36q0 4 2 18q0 18 4 21
q1 0 0 1q-1 -1 -4 -9q-3 -12 -3 -25q-7 -29 1 -42zM144 23v2q-2 1 -11.5 5t-14.5 7q-11 6 -24 19l-19 20q-18 23 -20 29q3 -13 16 -27q2 -3 6 -8t7.5 -9t7.5 -7q13 -13 24 -19q17 -12 28 -12zM175 166q13 36 17 54l21 69q6 17 3 25q-13 52 -31 79l-8 6q-11 -8 -19 -20
q-6 -9 -13 -27.5t-9 -23.5q-11 -24 -7 -44q2 -14 3 -39.5t2 -37.5q4 -31 15 -61q1 -2 4 -6t5 -7q13 23 17 33zM215 98h-1q-5 -6 -6 -10q-4 -11 -7 -11q3 1 4 5q1 1 4.5 7t5.5 9zM196 112q0 -1 1 -1l2 4l1 1v3h-1l-2 -3q-1 -1 -1 -4zM238 122q0 1 -1 1l-15 -33q-2 -3 -9 -16
q-11 -18 -15 -19q3 0 8 5q5 7 13 21q4 7 10 21t9 20zM269 168v-7q1 -1 1 0q0 6 -1 7zM274 92q-3 3 -10 24q-4 13 -5 29q-1 10 -3 30.5t-3 30.5h-1q-1 -24 5 -66q1 -5 3 -16t4 -17q2 -11 10 -15zM286 117q0 -1 1 0l-10 26h-1q7 -21 10 -26zM311 46v1l-6 3q-3 1 -6 4l-1 -1
q9 -7 13 -7z" />
    <glyph glyph-name="a.002" horiz-adv-x="388" 
d="M750 347q19 -26 13.5 -59.5t-32.5 -48.5q-10 -6 -19 0t-9 16t9 17q20 14 13.5 35t-24.5 33q-45 29 -107 17q-44 -7 -85.5 -32t-58.5 -62q0 -5 -2 -21q-5 -30 -23 -117q-7 -37 -18 -82q-7 -15 -16 -19.5t-29 -3.5q-32 0 -55 23q-28 24 -35 44q-1 7 -10 4q-2 -1 -12 -24
q-2 -4 -4 -12.5t-3 -12.5l-19 -7q-3 -8 -5 -12q-12 -17 -42 -11q-57 12 -100 51q-1 1 -7 9q-22 31 -32 60q-7 19 -7 34q-2 32 4 54q3 11 3 35q-1 28 10 65q0 2 10 47q11 16 32 60q4 10 14 15q33 20 38 23q9 4 16 4q27 0 42 -1q29 -2 52 -19l17 -10h5q4 3 6 11.5t2 9.5
q4 18 10 42q3 0 13 2l10 3h4l10 -3q8 -3 32 -19l-6 -42q-3 -11 -5 -37l-8 -82l-3 -21l-3 -18q-2 -61 -1 -73q1 -8 2 -40.5t5 -50.5q6 -23 13 -30q13 9 18 29q6 14 27 78l6 21q-3 5 -3 11q6 73 72 119.5t142 48.5q95 2 133 -51zM208 428q-20 3 -47 -26q-27 -31 -31 -52h1
q16 33 27 46q25 35 49 31q1 0 1 1zM143 64h1q-2 2 -6 4.5t-5 3.5q-2 3 -9 10q0 1 -1 0l9 -11q5 -5 11 -7zM158 419q-15 -1 -26 -22v-1q18 21 26 23zM139 420h1q1 3 4 5t7 3t6 2q-15 -2 -18 -10zM120 398q-1 -1 0 -1l6 7l7 7l-1 1q-9 -9 -12 -14zM94 103q0 1 -1 0q1 -5 6 -7
v1l-3 3t-2 3zM85 259q-3 -13 0 -18h1v8q0 7 1 9q-1 0 -2 1zM75 216q0 -1 1 0q-3 12 -1 36q0 11 1 18q0 1 0.5 6t1.5 9.5t3 5.5l-1 1q-2 -2 -4 -9l-3 -24q-3 -35 2 -43zM164 34q1 0 0 1q-2 1 -11 5t-14 7q-9 5 -25 19q-9 9 -18 21q-18 21 -20 28h-1q1 -5 4 -9.5t7 -10t5 -7.5
l21 -24q4 -4 12 -9.5t12 -9.5q19 -12 28 -11zM196 176q10 27 17 54q4 22 21 69q6 17 3 26q-13 52 -31 78q-1 1 -9 7q-11 -9 -18 -21q-6 -9 -14 -28.5t-9 -22.5q-10 -22 -7 -44q2 -14 3 -39.5t2 -37.5q4 -31 15 -61l9 -12q9 13 18 32zM226 92l9 16q1 1 0 1q-1 -2 -3 -5.5
t-3 -5.5l-1 -3q-2 -3 -4 -5.5t-3 -2.5q3 0 5 5zM216 122q0 -1 1 -1l2 4q1 1 2 4h-1l-3 -3q0 -1 -1 -4zM259 133h-1q-4 -5 -6.5 -10.5t-4.5 -12t-4 -10.5q-8 -14 -10 -16q-11 -18 -15 -19q4 0 8 6l14 20q4 7 10.5 22t8.5 20zM290 178h-1q0 -6 1 -7v7zM294 102q1 0 1 1
q-5 5 -11 24q-2 4 -3 14t-2 14q-1 10 -2.5 30.5t-3.5 30.5q-3 -24 5 -66q2 -16 6 -33q1 -10 10 -15zM306 127h1q-6 18 -10 26q3 -14 9 -26zM331 57q1 -1 1 0l-6 3q-4 2 -6 4q-1 1 -1.5 0.5t0.5 -1.5q6 -6 12 -6z" />
    <glyph glyph-name="b.001" horiz-adv-x="365" 
d="M434 174q11 14 17 8q2 -2 4 -8q-27 -46 -44 -70q-45 -70 -76 -104q-29 -32 -55 -46.5t-38 -14.5q-22 -5 -65 6q-16 8 -26 2q1 -10 5 -30.5t6 -30.5q3 -10 21 -35q1 -19 -3.5 -25t-21.5 -12l-39 -8q-8 0 -10 1q-42 5 -68 35l-8 31q-3 11 -3 21q6 4 3 11q0 3 -1 4
q1 3 -2 32q0 7 -6 29v7q0 1 -0.5 39t0.5 39q0 13 0.5 40t0.5 41q-1 13 -0.5 23t-0.5 22.5t-4 22.5l-1 1q-1 1 -1 2q-3 25 3 50q3 17 3 51q2 76 7 97v8q-5 10 3 40q7 23 7 66q-2 33 9 63q11 40 10 76q0 4 8 56q3 3 15 22q-56 17 -111 29q-240 55 -351 -66
q-22 -24 -34.5 -51.5t-10 -58t24.5 -53.5q31 -34 77.5 -30.5t74.5 38.5q6 9 16.5 8t15 -8.5t-0.5 -17.5q-37 -55 -99.5 -64.5t-110.5 35.5q-44 47 -43.5 104t36.5 108q61 83 179 110q107 24 251 -15q32 -8 138 -42q5 -1 18 -5t19 -6t17 -6.5t18 -9t14.5 -11t13.5 -14.5
q6 -11 -8 -13q2 -15 -5 -26q-5 -10 -12 -45q-7 -44 -13 -59q-12 -35 -18 -94q-1 -11 -5.5 -33.5t-5.5 -34.5q-3 -25 -13 -85q-5 -9 5 -19l2 -1q1 -1 3 -1q54 4 107 -23q41 -21 49 -72q12 -75 8 -133v-1q18 14 40 36t43 44.5t22 23.5zM106 476h-2q-3 -17 -5 -51q1 22 7 51z
M99 450q0 2 1.5 7.5t2.5 9.5q-1 -3 -4 -17zM102 616l14 96h-1q-3 -17 -7.5 -50t-6.5 -47q-1 -6 -3.5 -23t-4.5 -26q-6 -32 -7 -47h1q2 9 4 25.5t3 22.5q2 10 4.5 26.5t3.5 22.5zM117 596q0 -2 -1.5 -25.5t-1.5 -35.5q3 20 3 61zM109 481h1q-3 -30 -4 -35q2 7 4 38q9 30 7 66
q2 -39 -7 -64q1 11 1 32q0 -6 -0.5 -17.5t-0.5 -18.5zM92 -89q-4 10 -16 60q-8 47 -9 64q0 1 -1 1q-2 -2 0 -5v3v-3q1 -1 1 -4v-8l2 -14q1 -13 6 -31q10 -45 17 -63zM115 -145q-8 12 -7 21h-1q-2 -14 8 -21zM116 -94l-15 42q-1 10 -6 21q-6 22 -1 23q-3 0 -3 -7q1 -9 7 -27
q6 -28 18 -52zM106 420q12 34 17 77q-5 -43 -17 -77zM132 555q0 11 2 33h-1q0 -8 -2 -30.5t-2 -35.5h2q1 0 0 1t-1 3q0 3 1 4v8q0 10 1 17zM185 -13q20 13 24 27q1 8 4 21.5t5 25t3 21.5q1 6 -2 34q0 13 -1 16q-2 37 -6 56q-4 15 -13 40q-8 15 -20 18q-10 -9 -17 -30
q-19 -55 -19 -98v-37q-4 -25 8 -52q12 -33 34 -42zM262 9q-2 -2 -8.5 -12t-11 -15.5t-12 -10.5t-14.5 -3v-1q13 -4 23 9q11 12 23 33zM222 -10v-1q0 -1 1 -1q11 7 12 14h-1l-5 -6q-5 -5 -7 -6zM267 173h1q-7 36 -34 78q-7 14 -21.5 23.5t-26.5 2.5q28 5 54 -39
q13 -25 27 -65zM274 203q0 -1 1 -1l1 1q-6 17 -17 34q-3 0 -3 -2l3 -2q-6 0 0 -2l3 -5l3 -6q2 -3 4.5 -9t4.5 -8zM277 -15v-1v1zM285 148q1 4 0 13t0 13q0 1 -1.5 1t-1.5 -1q0 -21 2 -26h1z" />
    <glyph glyph-name="b.002" horiz-adv-x="369" 
d="M190 -161q1 -20 -4 -27.5t-22 -11.5l-40 -8h-11q-38 5 -69 36l-8 32q-4 9 -4 22q7 3 4 12l-1 1q-1 1 -1 3q3 3 0.5 16.5t-2.5 16.5q0 13 -6 30v7v81q0 13 0.5 41t0.5 42q0 6 0.5 21.5t-0.5 27t-5 21.5q0 -1 -3 2q-2 29 4 53l3 51q0 67 7 102v8q-6 12 3 40q8 26 8 69
q-1 33 9 64q12 47 11 79q-2 10 8 56q12 20 27 40q100 -19 126 -29q19 -29 4 -55q-4 -8 -11 -44q-11 -56 -13 -62q-15 -40 -20 -96q-2 -13 -6 -37t-5 -34q-5 -48 -14 -87q-2 -14 6 -20q2 -2 5 -2q58 3 111 -23q41 -21 50 -75q13 -84 8 -137v-1q27 22 61.5 57t47.5 51
q11 14 17 8q2 -2 4 -8q-20 -35 -45 -73q-63 -91 -80 -108q-29 -32 -56 -47t-39 -15q-24 -7 -66 7q-19 5 -28 1l13 -62q3 -14 21 -36zM271 0v1q-2 -2 -11.5 -16.5t-18 -21.5t-17.5 -5v-1q11 -4 24 9q21 28 23 34zM231 -19q0 -1 1 -1q6 4 11 13q0 1 -1 1q-2 -6 -6 -7
q0 -1 -5 -6zM292 172q-2 -20 2 -28v-1l1 1q1 5 0 14.5t-1 13.5q0 1 -1 1t-1 -1zM287 -26v1v-1zM268 235q-2 2 -2 0l1 -3q0 -1 1 -2q1 -3 3 -5t4 -8q3 -7 9 -17l1 1q-3 13 -17 34zM193 277q13 3 24.5 -4t16.5 -14.5t14 -22.5q12 -20 28 -67h1q-4 32 -35 81q-27 39 -49 27z
M122 559q2 -37 -7 -67q1 11 1 33q0 -5 -0.5 -17.5t-0.5 -18.5q-1 0 -1 -1q0 -7 -2 -19.5t-2 -16.5v-1q3 15 5 39q9 31 7 69zM122 606h-1q0 -10 -1.5 -32t-1.5 -32q4 21 4 64zM106 625l-9 -51q-2 -8 -4 -23.5t-3 -23.5q2 7 9 50l8 50q1 7 14 99h-1q-12 -86 -14 -101zM110 482
h-1q-6 -34 -6 -53q1 20 7 53zM103 454q1 4 2 9t2 9h1q-4 -8 -5 -18zM96 -101q-13 42 -16 64q-6 23 -11 65q-1 -1 -1 -4h1v2v-2q0 -2 2 -4v-8q0 -2 0.5 -7t1.5 -7q1 -19 6 -34q6 -32 17 -65zM120 -159v1q-9 10 -9 22q-2 -14 9 -23zM121 -106v1q-1 5 -7 19.5t-8 23.5
q-2 4 -3 11t-3 10q-6 23 -1 23q-4 0 -4 -7q1 -10 7 -26q9 -33 19 -55zM110 425q13 32 18 78q-5 -46 -18 -78zM137 564q0 5 0.5 16.5t0.5 17.5q0 -3 -1.5 -29t-1.5 -40q1 0 1 1v8v8q0 11 1 18zM149 75q-4 -25 8 -54q12 -33 35 -43q14 8 18 12.5t7 15.5q8 46 11 70q1 6 -1 35
q0 12 -1 16q-2 37 -6 57t-14 42q-4 14 -20 19q-12 -10 -17 -30q-20 -55 -20 -102v-38zM304 27q-10 -3 -13.5 6t4.5 14q70 44 117 91q22 23 43 51q5 7 13.5 20t16 23.5t15.5 18.5q40 36 102.5 46.5t113.5 -2.5q57 -13 99.5 -49.5t51.5 -89.5q10 -54 -12.5 -106t-68.5 -80
q-51 -32 -112 -27q-76 6 -107 44q-11 13 -2.5 29t24.5 11q10 -4 27 -13t24 -12q30 -7 51 -7q58 0 94 36q31 32 37 78.5t-17 83.5q-47 73 -163 67q-59 -2 -100 -27q-14 -8 -25.5 -22t-24.5 -33.5t-20 -28.5q-71 -89 -168 -122z" />
    <glyph glyph-name="c.001" horiz-adv-x="270" 
d="M304 206l11 13q2 0 4 -2q4 -4 0 -20q-4 -17 -35 -68t-42 -61q-16 -26 -42 -45q-6 -5 -24.5 -14t-23.5 -9q-33 -5 -58 14q-29 20 -34 39q0 2 -8 12q-26 50 -27 94q-1 10 -2.5 30.5t-3.5 30.5q-1 12 6 74q2 21 5 32v12q3 8 7.5 22.5t7.5 23.5t8.5 21t12.5 22q6 13 19 23
l4 3q-42 0 -78 -4q-87 -8 -164 -45q-80 -39 -102 -99q-8 -23 -3 -36q3 -12 23 -23q17 -6 40 -11q31 -6 38 -13q8 -9 -1 -18q-23 -23 -85 -1q-46 15 -57 51q-16 64 48 130q40 43 121 74q84 31 166 35q42 2 83 -3q24 -2 31 -4q26 6 47 -4q22 -6 30 -12q30 -24 25 -71l-16 -8
q-6 2 -16 3.5t-15 3.5q-3 2 -7.5 6.5l-6.5 6.5v9q-1 9 -3 13l-4 -2q-7 -18 -8 -21q-7 -32 -12 -63q-7 -39 -5 -117q-1 -50 20 -104q2 -3 10 -14q3 -1 4.5 -0.5t6.5 3t8 3.5l4 2q7 4 21 14q28 21 41 36zM80 237q-1 8 1 25h-1q-6 -33 4 -52q0 3 -2 12t-2 15zM90 135
q-12 23 -17 37q-1 4 -10 39q-6 47 -2 90q0 8 2 25t3 26q-19 -101 4 -175q6 -23 20 -42zM109 435l5 7q6 6 10 8h-1q-4 -2 -14 -15zM141 33q-27 0 -34 24q7 -26 34 -24zM142 43v1q-6 0 -12 3q4 -4 12 -4z" />
    <glyph glyph-name="c.002" horiz-adv-x="261" 
d="M645 235q13 -26 8.5 -57t-27.5 -51q-21 -21 -52 -27q-40 -7 -50 14q-2 11 5 15q8 4 27 4.5t28 3.5q30 13 36 41q7 37 -17 57t-64 27q-74 12 -150 -27q-37 -17 -81 -58q-48 -91 -66 -109q-20 -28 -42 -46q-40 -23 -47 -23q-33 -5 -60 14q-28 21 -35 39l-8 13
q-26 42 -30 94q-2 10 -4 30.5t-3 31.5q-3 21 3 74q2 25 4 31v13q28 80 34 90q9 14 19 22q3 2 14.5 11t17.5 13q43 24 79 9q25 -9 29 -13q31 -23 29 -71q-15 -6 -18 -8q-6 2 -16 3.5t-16 3.5q-2 3 -13 14q-1 1 -3 21l-4 -2q-6 -14 -7 -21q-11 -52 -13 -64q-3 -39 -1 -117
q2 -57 25 -104q4 -9 9 -15q6 0 19 7h2q1 1 2 1l14 9q6 4 32 26q-1 1 1 7q40 62 126 104q76 37 149 30q90 -10 115 -60zM183 464h-1h1zM73 262q-6 -30 4 -52h2q-5 12 -7 27q-1 8 1 25zM85 134l1 1q-14 25 -18 38q-5 13 -11 39q-9 37 -4 89q0 29 4 52h-1q-15 -108 9 -177
q7 -21 20 -42zM98 436q23 36 64 31q1 0 0 1q-18 3 -36 -6t-28 -26zM140 32q-23 -1 -35 24q11 -24 35 -24zM141 42v1q-7 0 -11 4q5 -5 11 -5z" />
    <glyph glyph-name="e.001" horiz-adv-x="315" 
d="M403 134q1 -1 1 -6q0 -15 -1 -32q-5 -35 -35 -95.5t-63 -76.5q-50 -26 -111 -8h-1l-8 2q-6 2 -8 2q-50 15 -95 64q-6 7 -38 53q-7 21 -10 44t-4.5 58.5t-2.5 45.5v2q1 13 7 39l3 9q0 18 15 54q20 49 45 74h-11q-49 -2 -91 -7q-166 -18 -274 -102q-75 -58 -76 -119
q0 -39 20 -59q19 -18 53 -11q13 2 21 -10t-3 -20q-35 -29 -81 -1q-35 21 -47 71q-7 42 6 82q15 37 50 71q57 54 144 92q80 34 178 46q42 5 97 7q73 0 96 -8q3 -1 5 -3l25 -8l27 -8q40 -12 55 -51q-2 -53 -20 -97q-15 -37 -51 -56q-2 -2 -17 -8q-26 -12 -46 -3q-3 2 -16 4
q-7 -93 31 -155q10 -16 19 -23q6 -9 19 -16l12 -4q27 -6 73 13q26 10 56 62t37 77q1 6 9 14q2 1 6 1zM243 217q6 5 9 12q-3 -7 -12 -14l-14 -12q-3 -2 -13.5 -9.5t-16.5 -10.5q6 3 31 21q9 6 16 13zM205 210q5 2 10 7l-5 -4q-3 -1 -5 -3zM259 245v1l-3 -4q0 -1 1 -1q0 2 2 4
zM270 288q0 -8 -3 -16q3 8 3 16zM256 282q-8 -26 -23 -47q16 19 23 46q4 12 4 26q2 15 -2 27q0 -3 1 -12t0 -14q0 -14 -3 -26zM216 328q-20 -15 -24 -22q-6 -8 -34 -61q-7 -10 -4 -30q7 3 24.5 13.5t28.5 11.5q37 54 24 91l-7 -1q-6 0 -8 -2zM81 287q-7 -15 -13 -45h1
q5 30 30 81q15 29 34 41h-1q-20 -12 -32 -37q-4 -6 -10 -20t-9 -20zM119 7q1 -7 9 -13q-6 6 -9 13zM115 283q6 9 13 16h-1q-17 -17 -22 -32q0 -1 1 -1q5 12 9 17zM98 287v-1q2 3 13 24t20 30q1 1 0 1q-8 -8 -16 -24q-12 -18 -17 -30zM94 265l-1 1q-7 -1 -5 -9q0 4 1 5
q1 3 5 3zM93 21q1 0 1 1q-27 45 -32 100h-1q5 -57 32 -101zM108 24l-20 43q8 -23 20 -43zM159 -46q-23 15 -44 36q19 -22 44 -36zM202 -60l21 -3z" />
    <glyph glyph-name="e.002" horiz-adv-x="298" 
d="M69 -9q-9 10 -38 52q-7 22 -10 45t-4.5 58.5t-2.5 45.5v2q1 14 7 38l3 9q0 18 15 54q23 57 50 79q12 10 34 19q9 4 23 7q26 2 50 -9l27 -8q37 -11 55 -51q-2 -53 -20 -97q-16 -36 -51 -56q-5 -4 -17 -9q-24 -10 -45 -2q-3 2 -17 4q-7 -93 31 -155q5 -9 19 -23
q6 -9 19 -16q2 -1 6 -2t6 -3q18 -2 30.5 0t42.5 14q27 10 56 61t37 78q1 6 9 14q2 1 6 1q1 -1 1 -6q0 -15 -1 -32q-3 -31 -34.5 -94t-63.5 -79q-45 -24 -111 -7h-1l-2 1q-3 0 -5 1q-1 0 -9 2q-48 14 -95 64zM210 -56l-21 3zM95 30v1l-20 42q5 -15 20 -43zM81 272h-1
q-7 0 -5 -8q0 4 1 5q3 3 5 3zM106 14q4 -9 9 -13h1q-7 4 -10 13zM102 290q12 15 13 16q-16 -14 -23 -33h1q1 4 4.5 9t4.5 8zM85 294v-1q3 5 14 25t19 29q-10 -10 -16 -24q-4 -6 -17 -29zM146 -39q-24 15 -44 35q20 -21 44 -35zM230 224q8 6 9 12q-4 -8 -12 -15
q-1 -1 -14 -11q-3 -2 -13.5 -9.5t-16.5 -10.5v-1q6 4 31 22q9 6 16 13zM192 217q4 0 10 6v1l-5 -4q-2 -2 -5 -3zM246 252q-2 -2 -2 -4q0 2 2 4zM257 295q0 -9 -3 -16l4 16h-1zM243 289q-6 -24 -23 -47v-1q17 21 23 47q4 9 4 26q2 16 -2 26q2 -16 1 -25q0 -14 -3 -26z
M179 313q-6 -8 -34 -61q-7 -13 -4 -30q9 3 25.5 13t27.5 12q37 53 25 91q-13 -3 -15 -4q-14 -7 -25 -21zM68 294q-10 -30 -13 -46h1q5 31 30 82q24 48 61 48v1q-37 0 -60 -45q-4 -6 -9.5 -20t-9.5 -20zM49 129h-1q4 -53 32 -101h1q-27 45 -32 101zM368 43q-5 -7 -12.5 -4.5
t-7.5 10.5q-1 10 0 20.5t4.5 23t5.5 19t7.5 22.5t6.5 19q17 49 40 94q39 74 109 124t146 42q39 -4 70 -25t39 -57q7 -34 -9 -66t-49 -32q-12 0 -14 11t7 17q24 18 28 41q5 29 -18 50q-43 39 -115 17q-58 -15 -108 -68q-42 -42 -75 -117q-13 -29 -28 -73q-2 -5 -6.5 -21.5
t-9 -27t-11.5 -19.5z" />
    <glyph glyph-name="d.001" horiz-adv-x="362" 
d="M409 258q4 -4 7 -27l-3 -48q-11 -45 -14 -64q-4 -19 -10 -59q-2 -11 -4 -32.5t-3 -32.5q0 -1 -1 -2q0 -1 -1 -2q0 -3 -1 -5q-1 0 -3 -2t-3 -2q-4 -4 -17 -4q-57 -5 -89 38q-10 13 -25 50q-4 8 -16 45q-4 1 -7 -3q-3 -7 -4 -9q-4 -15 -25 -36q-22 -22 -56 -11
q-32 9 -66 40l-12 10l-1 -1v1q-8 18 -12 35l-8 34q-1 4 -1 37q0 3 -1 4q4 41 20 79q4 9 6 20q1 7 1 17q21 28 29 42q12 15 24 23q8 5 14 12q15 13 34 12q9 0 23.5 -1.5t17.5 -1.5q0 2 0.5 8t0.5 8q0 6 1 19.5t0.5 24t-2.5 20.5q3 5 1.5 25.5t-1.5 27.5l3 19q2 10 2 14
q8 104 8 115q0 4 0.5 12t0.5 11l4 5l-68 15q-5 1 -39 8.5t-44 9.5t-41 7t-45 4.5t-40.5 -1.5t-42.5 -7t-36 -17t-35 -26q-28 -28 -36 -68.5t10 -76.5q20 -36 52 -37q35 0 50 24q5 8 13 4t6 -13q-5 -18 -21.5 -31t-35.5 -16q-46 -7 -79 32q-28 34 -30 82.5t19 88.5
q40 80 146 99q81 14 221 -23q67 -15 115 -29l62 -16q32 -7 40 -12q7 0 9 -1q11 -2 11 -14q0 -11 -4 -15q-4 -8 -16 -20q-11 -14 -14 -27q-14 -56 -17 -85q0 -10 -3 -14q-5 -6 -7 -31q-3 -21 -5 -54q-1 -8 -3 -25t-3 -26q-9 -70 -8 -96q0 -1 -0.5 -23t0.5 -22q0 -29 4 -52
q3 -15 3 -30v-7q2 -13 4 -38.5t4.5 -45.5t7.5 -37q1 -5 4 -11q2 -4 5 -7q8 1 13 13l3 6q0 17 31 126q22 75 29 70zM94 279q-2 -14 -1 -22q0 15 1 22zM86 325q-14 -17 -15 -39q1 21 15 39zM91 120q-18 33 -22 64q-3 16 -3 34v17q0 13 4 18q-4 -4 -4 -11v-18q0 -29 2 -37
q5 -41 23 -67zM99 186q-10 22 -9 42h-1q0 -23 10 -42zM197 257q9 41 3 92q-10 9 -24 18q-3 -7 -9 -17q-8 -23 -17 -59q-7 -31 -7 -93q-1 -27 20 -60q8 13 8 15q5 15 13 45q2 9 6 29t7 30zM289 37q-15 7 -17 21q1 -16 17 -21zM228 473q0 7 -0.5 22t-0.5 23q-2 -30 1 -45z
M227 583q3 31 4 37l9 77q-4 -25 -10 -75l-3 -39q-3 -19 -3 -39zM243 428v5h-1v-5h1zM242 520l3 35l8 72q-1 -6 -9 -79l-4 -40q0 -20 5 -22q-5 2 -5 16zM301 8q-18 13 -30 31q-7 13 -10 19q-7 18 -4 25h-1q-1 -8 4 -22q6 -14 10 -21q14 -22 31 -32zM351 -1v1q-7 -1 -14 0
q3 -1 14 -1z" />
    <glyph glyph-name="d.002" horiz-adv-x="362" 
d="M751 226q9 -46 -13 -81q-12 -19 -31 -27t-40 1q-8 5 -8 14t8 14q33 20 38 49q4 30 -16 62q-36 55 -117 48q-70 -7 -125 -66q-22 -22 -43 -56q-2 -16 -2 -24q-11 -45 -14 -64q-4 -19 -10 -59q-2 -11 -4 -32.5t-3 -32.5v-2l-3 -7q-2 -1 -3 -2t-3 -2q-4 -4 -17 -4
q-57 -5 -89 38q-10 13 -25 50q-4 7 -16 45q-4 1 -7 -3q-4 -7 -4 -9q-3 -14 -25 -36t-56 -11q-29 9 -66 40l-12 10v-1l-1 1q-8 18 -12 35l-8 34q-1 4 -1 37q0 3 -1 4q4 41 20 79q4 9 6 20q1 7 1 17q21 29 29 42q12 15 24 23q8 5 14 12q15 13 34 12q9 0 23.5 -1.5t17.5 -1.5
q2 13 1 16q0 6 1 19.5t0.5 24t-2.5 20.5q3 5 1.5 25.5t-1.5 27.5l3 19q2 10 2 14q8 104 8 115q0 4 0.5 12t0.5 11l5 6q17 18 32.5 21t36.5 -7q32 -14 59 -13q7 0 21 -2q13 -1 11 -14q0 -11 -4 -15q-4 -8 -16 -20q-11 -14 -14 -27q-15 -61 -16 -85q-2 -12 -4 -14
q-5 -6 -7 -31q-1 -10 -3 -27t-2 -27q-2 -8 -3 -25t-3 -26q-9 -70 -8 -96q0 -1 -0.5 -23t0.5 -22q0 -29 4 -52q3 -15 3 -30v-7q2 -13 4 -38.5t4.5 -45.5t7.5 -37q1 -5 4 -11q0 -1 1.5 -2t2.5 -2.5t1 -2.5q8 1 13 13v1q-7 61 26 138q11 27 27 50q4 8 6 11.5t3 2.5
q46 61 109.5 92t132.5 14q43 -11 73.5 -42.5t38.5 -73.5zM83 256q-2 -14 -1 -22q0 15 1 22zM75 302q-13 -16 -15 -39q2 21 15 39zM80 97q-18 33 -22 64q-3 17 -3 34v17q0 13 4 18q-4 -4 -4 -11v-18q0 -29 2 -37q5 -41 23 -67zM88 163q-10 22 -9 42q-1 -23 9 -42zM186 234
q9 41 3 92q-4 4 -12 9.5t-11 8.5l-10 -17q-8 -23 -17 -59q-7 -31 -7 -93q-1 -27 20 -60q8 13 8 15q5 15 13 45q2 9 6 29t7 30zM261 35q1 -16 17 -21q-14 6 -17 21zM217 450q0 8 -0.5 23t-0.5 22q-2 -30 1 -45zM216 560q3 31 4 37l9 77q-4 -25 -10 -75l-3 -39q-3 -20 -3 -39
q1 6 1.5 12.5t1 14.5t0.5 12zM232 405v5h-1v-5h1zM234 532l9 72h-1q-1 -6 -9 -79l-3 -40q-3 -19 4 -22q-7 3 -4 16q0 3 0.5 9t0.5 9zM290 -15q-18 13 -30 31q-7 13 -10 19q-7 18 -4 25h-1q-1 -8 4 -22q6 -14 10 -21q14 -22 31 -32zM340 -24v1q-7 -1 -14 0q3 -1 14 -1z" />
    </font>
</defs>
</svg>
